<?xml version="1.0" encoding="UTF-8"?>
<svg id="katman_1" data-name="katman 1" xmlns="http://www.w3.org/2000/svg" xmlns:xlink="http://www.w3.org/1999/xlink" viewBox="0 0 456.27 401.64">
  <defs>
    <style>
      .cls-1, .cls-2 {
        fill: none;
      }

      .cls-3 {
        fill: #fbbf77;
      }

      .cls-4 {
        fill: url(#Travel_Pattern_3);
        opacity: .25;
      }

      .cls-2 {
        stroke: #fbbf77;
        stroke-dasharray: 4.01 4.01;
        stroke-linecap: round;
        stroke-linejoin: round;
      }
    </style>
    <pattern id="Travel_Pattern_3" data-name="Travel Pattern 3" x="0" y="0" width="320" height="310" patternTransform="translate(11711.13 6206.19) scale(1.98)" patternUnits="userSpaceOnUse" viewBox="0 0 320 310">
      <g>
        <rect class="cls-1" y="0" width="320" height="310"/>
        <g>
          <g>
            <path class="cls-3" d="M249.27,322.25c-.29.93-.92,1.7-1.79,2.16l-33.91,18c-.53.28-1.12.43-1.71.43-1.36,0-2.6-.75-3.24-1.95l-9.44-17.94c-.95-1.78-.26-4,1.52-4.95l1.38-.73-.37-.69c-.38-.72-.1-1.61.61-1.99l2.66-1.41c.35-.18.75-.22,1.12-.11.38.12.68.37.87.72l.37.7,2.96-1.57-1-5.66c-.03-.19.06-.37.22-.46l10.59-5.8c.16-.09.37-.07.51.06l4.43,4.04,9.57-5.08c.53-.28,1.12-.43,1.71-.43,1.36,0,2.6.75,3.24,1.95l3.06,5.81h0l6.38,12.12c.46.86.55,1.85.27,2.79ZM211.11,312.48l13.11-6.96-3.96-3.61-10.04,5.5.89,5.07ZM202.85,316.87l3.71-1.97-.37-.7c-.07-.14-.2-.24-.35-.29-.15-.05-.31-.03-.45.04l-2.66,1.41c-.29.15-.4.52-.25.81l.37.69ZM199.95,322.55l2.81,5.34,11.56-6.1c-.12-1.27.01-2.56.4-3.81.77-2.53,2.48-4.6,4.82-5.84,1.42-.76,3.03-1.16,4.63-1.16,2.35,0,4.56.83,6.31,2.28l11.17-5.9-2.85-5.42c-.49-.91-1.43-1.48-2.46-1.48-.46,0-.9.11-1.3.32l-27.66,14.68s0,0,0,0h0l-4.48,2.38s0,0,0,0h0l-1.76.94c-1.36.72-1.88,2.41-1.16,3.77ZM216.21,325.1c1.57,2.95,4.62,4.79,7.97,4.79,1.46,0,2.92-.37,4.22-1.05,2.13-1.13,3.69-3.02,4.39-5.32s.47-4.74-.66-6.87c-1.57-2.95-4.62-4.79-7.97-4.79-1.46,0-2.92.36-4.22,1.05-2.13,1.13-3.69,3.02-4.39,5.32-.71,2.3-.47,4.74.66,6.87ZM248.22,319.87l-6.17-11.73-10.89,5.75c.68.68,1.28,1.47,1.75,2.35,1.24,2.33,1.49,5.01.72,7.54-.77,2.52-2.49,4.6-4.82,5.84-1.42.76-3.02,1.16-4.63,1.16-3.67,0-7.02-2.01-8.74-5.26-.47-.89-.8-1.84-.99-2.8l-11.28,5.96,6.22,11.82c.48.91,1.43,1.48,2.46,1.48.45,0,.9-.11,1.3-.33l33.91-18c.66-.35,1.14-.93,1.36-1.64.22-.71.15-1.47-.2-2.12Z"/>
            <path class="cls-3" d="M229.57,307.24c-.2-.37-.24-.8-.12-1.2.12-.4.4-.73.77-.93l4.05-2.15c.74-.4,1.74-.09,2.13.65l1.16,2.18c.41.77.11,1.72-.65,2.13l-4.05,2.15c-.23.12-.48.18-.74.18-.59,0-1.12-.32-1.39-.84l-1.16-2.18ZM230.35,306.83l1.16,2.19c.17.33.61.47.95.29l4.04-2.15c.34-.18.47-.61.29-.95l-1.16-2.18c-.12-.23-.36-.37-.62-.37-.11,0-.22.03-.33.08l-4.05,2.15c-.16.09-.29.23-.34.41-.05.18-.04.37.05.53Z"/>
          </g>
          <path class="cls-3" d="M75.54,304.95c-.35,2.74-.69,5.56-.76,8.35.93-2.23,1.98-4.21,3.21-6.46.1-.18.32-.27.52-.21.2.06.33.26.3.47-.35,2.93-.51,4.79-.64,6.28-.11,1.22-.2,2.27-.36,3.54-.33,3.18-.46,5.1-.4,8.22,4.56.88,6.81,5.34,8.27,9.29,1.44,4.06,2.55,8.18,3.22,11.92.41,2.52.35,6.22-1.17,8.38-.87,1.3-2.08,2.48-3.58,3.48-2.57,1.71-5.83,2.77-8.92,2.92-3.34.1-6.53-.74-8.98-2.39-2.25-1.44-2.9-4.21-3.46-6.66l-.08-.35c-.78-3.49-1.5-6.74-1.84-10.14l-.04-.58c-.22-3.16-.5-7.1.99-9.96.75-1.39,1.71-2.46,2.94-3.27,0,0,.01,0,.02,0-.76-1.09-1.27-1.78-1.51-2.04-1.95-2.08-3.35-3.46-7.57-5.55-.18-.09-.27-.28-.23-.48.04-.19.2-.34.4-.35.64-.04,1.29-.06,1.95-.05-2.25-1.88-4.63-3.83-5.43-4.32-.18-.11-.25-.33-.19-.52.07-.2.27-.32.47-.29,3,.4,5.12,1.06,7.11,1.73-1.49-2.01-2.91-3.99-4.2-5.81-.12-.17-.1-.41.05-.56.15-.16.39-.17.56-.05.79.55,1.54,1.12,2.27,1.71-1.36-2.13-2.99-4.41-5.08-7.13-.14-.18-.12-.43.05-.59.16-.16.42-.16.59,0,1.33,1.18,2.87,2.27,4.36,3.31.66.46,1.31.92,1.94,1.39,1.09.78,2.11,1.63,3.1,2.46.29.24.57.48.86.72-.15-4.4.8-8.37,1.72-12.21l.16-.68c.05-.2.22-.34.43-.34.2,0,.38.14.43.34.27,1.17.49,2.38.71,3.65.23,1.29.46,2.62.78,4.05.39,1.75.83,3.16,1.48,4.74.92-2.52,3.07-7.34,5.25-9.85.13-.14.33-.19.51-.11.18.08.28.26.26.45-.13,1.2-.28,2.4-.44,3.61ZM59.2,319.32c1.15.06,2.31.18,3.47.37-.67-.85-1.33-1.71-1.98-2.57l-.7-.23c-1.68-.57-3.42-1.15-5.67-1.57,1.07.84,2.65,2.14,4.88,4ZM65.23,328.51c-.2.13-.38.28-.57.43l.8.67,1.28-1.53-.29-.24c-.43.2-.84.41-1.23.67ZM79.45,326.81l-.12.15,1.53,1.28.18-.21c-.48-.47-1.01-.88-1.59-1.21ZM88.09,346.91l-.8.96.94.79c-.02-.6-.07-1.19-.14-1.75ZM88.23,349.52l-1.37-1.15-1.53,1.83,1.59,1.33,1.28-1.53c.01-.16.03-.32.03-.48ZM86.17,355.31l-.91-.77-1.21,1.45.76.64c.51-.41.96-.85,1.37-1.32ZM84.75,354.13l-1.6-1.33-1.21,1.44,1.6,1.34,1.21-1.45ZM81.19,358.38l-1.6-1.34-1.28,1.53,1.1.92c.41-.13.81-.27,1.21-.43l.57-.68ZM76.09,360.18l1.29-1.53-1.71-1.43-1.44,1.72,1.51,1.27c.12,0,.23-.02.35-.03ZM72.41,360.1l.9-1.07-1.53-1.28-1.33,1.59.61.51c.44.1.89.19,1.35.25ZM66.76,358.04l.46-.55-1.45-1.21-.37.44c.36.51.79.95,1.32,1.29.01,0,.03.02.04.02ZM62.41,346.15h.01s-.02-.03-.02-.03c0,0,0,.02,0,.03ZM61.81,342.18h0s-.01-.02-.01-.02c0,0,0,.01,0,.02ZM62.23,345.12l.61.51,1.28-1.53-1.8-1.51-.4.48c.09.68.2,1.37.31,2.05ZM61.54,338.54l.26-.31-.27-.23c0,.18,0,.36.01.54ZM62.22,337.73l1.21-1.45-1.58-1.33-.25.3c-.06.62-.08,1.25-.09,1.88l.71.59ZM63.52,331.93l1.52-1.82-.88-.74c-.56.53-1.04,1.16-1.46,1.88l.81.68ZM64.02,332.36l1.59,1.33,1.52-1.82-1.59-1.33-1.52,1.82ZM72.77,326.15l-1.08,1.29,1.45,1.21,1.23-1.47-1.31-1.09c-.09.02-.2.04-.29.06ZM75.29,327.1l1.8,1.51,1.31-1.57-1.27-1.06c-.27-.04-.54-.08-.83-.09l-1.01,1.21ZM83.27,331.12l-1.31,1.57,1.59,1.33.7-.84c-.3-.7-.62-1.39-.97-2.06ZM87.9,345.78l-1.56-1.31-1.28,1.53,1.72,1.44,1.17-1.39c-.02-.09-.03-.18-.05-.27ZM64.2,354.11l1.48,1.24,1.33-1.59-1.58-1.33-1.27,1.52c.02.05.03.1.05.15ZM71.25,352.67l1.28-1.53-1.45-1.21-1.28,1.53,1.45,1.21ZM69.38,351.96l-1.44,1.72,1.45,1.21,1.44-1.72-1.45-1.21ZM75.12,335.09l-1.53-1.28-1.28,1.53,1.53,1.28,1.28-1.53ZM74.34,337.04l1.83,1.53,1.28-1.53-1.83-1.53-1.28,1.53ZM71.89,335.84l-1.53,1.82,1.53,1.28,1.53-1.82-1.53-1.28ZM72.4,339.37l1.83,1.53,1.53-1.82-1.83-1.53-1.53,1.82ZM73.43,347.12l1.45,1.21,1.21-1.45-1.45-1.21-1.21,1.45ZM74.14,345.25l-1.58-1.33-1.21,1.45,1.59,1.33,1.21-1.45ZM75.38,348.75l1.8,1.51,1.21-1.45-1.8-1.51-1.21,1.45ZM78.82,348.31l1.33-1.59-1.8-1.51-1.33,1.59,1.8,1.51ZM77.84,344.79l-1.45-1.21-1.33,1.59,1.45,1.21,1.33-1.59ZM75.89,343.15l-1.59-1.33-1.33,1.59,1.58,1.33,1.33-1.59ZM76.31,342.65l1.53-1.83-1.59-1.33-1.53,1.83,1.59,1.33ZM71.98,339.87l-1.33,1.59,1.83,1.53,1.33-1.59-1.83-1.53ZM70.22,341.97l-1.21,1.45,1.83,1.53,1.21-1.45-1.83-1.53ZM68.59,343.92l-1.51,1.8,1.83,1.53,1.51-1.8-1.83-1.53ZM69.41,347.67l1.59,1.33,1.51-1.8-1.59-1.33-1.51,1.8ZM68.99,348.18l-1.28,1.53,1.58,1.33,1.28-1.53-1.59-1.33ZM72.95,350.63l1.51-1.8-1.45-1.21-1.51,1.8,1.45,1.21ZM73.45,351.06l1.8,1.51,1.51-1.8-1.8-1.51-1.51,1.8ZM75.76,352.99l1.53,1.28,1.51-1.8-1.53-1.28-1.51,1.8ZM79.22,351.96l1.21-1.45-1.53-1.28-1.21,1.45,1.53,1.28ZM80.85,350.01l1.33-1.59-1.53-1.28-1.33,1.59,1.53,1.28ZM82.6,347.92l1.53-1.83-1.53-1.28-1.53,1.83,1.53,1.28ZM82.1,344.39l-1.8-1.51-1.53,1.83,1.8,1.51,1.53-1.83ZM79.79,342.46l-1.45-1.21-1.53,1.83,1.45,1.21,1.53-1.82ZM80.21,341.95l1.28-1.53-1.45-1.21-1.28,1.53,1.45,1.21ZM79.54,338.79l-1.59-1.33-1.28,1.53,1.59,1.33,1.28-1.53ZM79.97,338.29l1.51-1.8-1.58-1.33-1.51,1.8,1.59,1.33ZM79.38,334.74l-1.83-1.53-1.51,1.8,1.83,1.53,1.51-1.8ZM79.81,334.23l1.23-1.46-1.83-1.53-1.23,1.47,1.83,1.53ZM78.7,330.81l-1.53-1.28-1.23,1.47,1.53,1.28,1.23-1.47ZM75.52,331.5l-1.51,1.8,1.53,1.28,1.51-1.8-1.53-1.28ZM75.02,331.08l-1.8-1.51-1.51,1.8,1.8,1.51,1.51-1.8ZM71.29,331.88l-1.28,1.53,1.8,1.51,1.28-1.53-1.8-1.51ZM69.58,333.91l-1.53,1.82,1.8,1.51,1.53-1.82-1.8-1.51ZM69.08,333.49l-1.45-1.21-1.53,1.82,1.45,1.21,1.53-1.82ZM65.69,334.61l-1.33,1.59,1.45,1.21,1.33-1.59-1.45-1.21ZM66.3,337.83l1.8,1.51,1.33-1.59-1.8-1.51-1.33,1.59ZM68.61,339.76l1.53,1.28,1.33-1.59-1.53-1.28-1.33,1.59ZM68.19,340.27l-1.21,1.45,1.53,1.28,1.21-1.45-1.53-1.28ZM66.56,342.22l-1.51,1.8,1.53,1.28,1.51-1.8-1.53-1.28ZM64.63,344.52l-1.28,1.53,1.53,1.28,1.28-1.53-1.53-1.28ZM65.38,347.75l1.83,1.53,1.28-1.53-1.83-1.53-1.28,1.53ZM64.96,348.26l-1.44,1.72,1.83,1.53,1.44-1.73-1.83-1.53ZM65.85,351.93l1.59,1.33,1.44-1.72-1.58-1.33-1.44,1.72ZM66.19,355.77l1.45,1.21,1.33-1.58-1.45-1.21-1.33,1.59ZM68.14,357.41l1.8,1.51,1.33-1.59-1.8-1.51-1.33,1.59ZM71.69,356.82l1.44-1.72-1.8-1.51-1.44,1.72,1.8,1.51ZM73.56,354.6l1.28-1.53-1.8-1.51-1.28,1.53,1.8,1.51ZM74.06,355.02l1.53,1.28,1.28-1.53-1.53-1.28-1.28,1.53ZM76.09,356.72l1.71,1.43,1.28-1.53-1.71-1.43-1.28,1.53ZM79.5,356.12l1.51-1.8-1.71-1.43-1.51,1.8,1.71,1.43ZM81.44,353.81l1.21-1.45-1.71-1.43-1.21,1.45,1.71,1.43ZM83.07,351.87l1.33-1.59-1.72-1.44-1.33,1.59,1.72,1.44ZM84.83,349.78l1.53-1.83-1.72-1.44-1.53,1.83,1.72,1.44ZM85.83,344.06l-1.53-1.28-1.28,1.53,1.53,1.28,1.28-1.53ZM83.8,342.35l-1.8-1.51-1.28,1.53,1.8,1.51,1.28-1.53ZM84.22,341.85l1.51-1.8-1.8-1.51-1.51,1.8,1.8,1.51ZM83.42,338.12l-1.45-1.21-1.51,1.8,1.45,1.21,1.51-1.8ZM83.85,337.62l1.22-1.46-1.45-1.21-1.22,1.46,1.45,1.21ZM83.12,334.52l-1.58-1.33-1.22,1.46,1.58,1.33,1.22-1.46ZM82.76,330.7l-1.83-1.53-1.31,1.57,1.83,1.53,1.31-1.57ZM80.43,328.74l-1.53-1.28-1.31,1.56,1.53,1.28,1.31-1.57ZM74.87,327.6l-1.23,1.47,1.8,1.51,1.23-1.47-1.8-1.51ZM71.26,327.94l-1.51,1.8,1.45,1.21,1.51-1.8-1.45-1.21ZM69.33,330.25l-1.28,1.53,1.45,1.21,1.28-1.53-1.45-1.21ZM68.83,329.83l-1.59-1.33-1.28,1.53,1.59,1.33,1.28-1.53ZM63.6,332.86l-1.33,1.59,1.58,1.33,1.33-1.59-1.59-1.33ZM62.72,338.15l1.45,1.21,1.21-1.45-1.45-1.21-1.21,1.45ZM64.67,339.79l1.8,1.51,1.21-1.45-1.8-1.51-1.21,1.45ZM64.25,340.29l-1.51,1.8,1.8,1.51,1.51-1.8-1.8-1.51ZM63.09,349.47l1.37-1.63-1.53-1.28-.36.42c.16.82.34,1.65.52,2.49ZM63.94,353.19l.98-1.17-1.56-1.3c.06.26.12.52.17.79l.09.39c.1.43.2.86.32,1.3ZM65.03,356.14l.24-.29-.63-.53c.12.28.25.56.4.82ZM67.32,358.38c.68.4,1.4.74,2.17,1.01l-1.77-1.48-.39.47ZM73.72,358.53l1.44-1.72-1.53-1.28-1.44,1.72,1.53,1.28ZM77.06,360.05c.53-.09,1.06-.2,1.58-.34l-.76-.64-.82.98ZM81.61,357.88l1.51-1.8-1.6-1.34-1.51,1.8,1.6,1.34ZM85.17,353.62l1.33-1.59-1.59-1.33-1.33,1.59,1.59,1.33ZM87.36,343.25l-.6.72.93.78c-.1-.5-.21-1-.33-1.5ZM86.78,340.93l-.55-.46-1.51,1.8,1.53,1.28.92-1.1c-.12-.5-.25-1.01-.39-1.52ZM85.51,336.65l-1.16,1.38,1.8,1.51.18-.22c-.26-.89-.53-1.78-.83-2.67ZM84.52,333.87l-.48.57,1,.84c-.06-.18-.12-.36-.19-.54-.11-.29-.22-.58-.33-.88ZM81.49,328.51l-.13.15.8.67c-.21-.29-.44-.56-.67-.83ZM78.85,326.51s-.09-.04-.14-.06l.11.09.03-.03ZM75.44,325.89l-1.45.12.8.67.66-.78ZM71.73,326.37s-.09.02-.13.03c-.31.06-.62.13-.93.19l.52.43.55-.65ZM68.38,327.13s0,.02-.02.03l-.7.83,1.59,1.33,1.51-1.8-.91-.76c-.5.11-.99.24-1.47.37ZM67.21,327.52s-.05.02-.08.03l.03.03.05-.06ZM61.76,334.03h0l1.33-1.59-.69-.57c-.3.67-.51,1.4-.65,2.17ZM61.68,340.95l.02.27.54.45,1.51-1.8-1.45-1.21-.71.85c.03.49.06.98.1,1.45ZM74.77,360.26l-.96-.8-.62.74c.52.05,1.05.07,1.58.06ZM83.66,357.49c.21-.14.41-.3.61-.45l-.65-.54-1.51,1.8.06.05c.51-.27,1.02-.55,1.49-.86ZM87.63,352.98l-.62-.52-1.33,1.59.91.76c.14-.19.29-.37.42-.56.25-.36.45-.8.62-1.27ZM88.08,351.17l-.65.78.42.35c.1-.36.17-.74.23-1.13ZM77.68,309.27c-1.07,2.03-1.99,3.95-2.81,6.21l-.23.68c-.53,1.56-.98,2.9-1.59,5.7-.04.18-.19.32-.38.34-.18.02-.36-.07-.44-.24-.85-1.7-1.89-3.35-2.91-4.95-.35-.56-.71-1.13-1.07-1.7.03.11.05.22.08.33.16.67.3,1.25.49,1.89.14.43.26.8.37,1.16.21.69.4,1.29.72,2.1.08.19.01.41-.16.53h0c-.17.11-.4.09-.55-.05-1.12-1.08-2.39-2.06-3.61-3.02-.64-.5-1.28-1-1.9-1.51-.87-.71-1.7-1.44-2.53-2.15-1.09-.95-2.15-1.86-3.26-2.74,1.91,2.66,4.03,5.53,6.18,8.2.12.14.13.34.03.5-.1.16-.28.24-.46.2-1.54-.31-3.11-.5-4.64-.57h0c-.49-.02-.97-.04-1.46-.03,3.17,1.72,4.57,3.08,6.33,4.97.28.29.82,1.02,1.63,2.19,1.77-.95,3.79-1.36,5.91-1.79.5-.1,1.02-.21,1.53-.32l2.88-.23c.24,0,.47.03.7.04-.05-3.08.08-5.01.41-8.2.16-1.27.25-2.31.35-3.52.09-1.07.2-2.33.39-4.04ZM74.67,304.84c.09-.67.17-1.35.25-2.02-2.13,3.08-4.04,7.83-4.49,9.38-.05.18-.21.3-.39.32-.18.01-.36-.09-.43-.26-.94-2.09-1.5-3.75-1.99-5.95-.33-1.45-.56-2.79-.79-4.09-.1-.58-.2-1.14-.3-1.68-.87,3.69-1.66,7.52-1.35,11.71.01.17-.08.34-.23.42-.15.08-.34.06-.48-.04-.56-.45-1.1-.9-1.64-1.35-1.02-.85-1.98-1.65-3.05-2.42-.63-.46-1.28-.92-1.93-1.38-.58-.41-1.16-.82-1.74-1.24,1.79,2.45,3.2,4.57,4.4,6.64.41.35.82.7,1.22,1.05.82.71,1.65,1.43,2.52,2.14.61.5,1.24,1,1.88,1.49.79.62,1.61,1.25,2.39,1.92-.06-.18-.11-.35-.16-.53-.11-.35-.22-.73-.37-1.15-.2-.67-.35-1.26-.51-1.95-.23-.96-.49-2.06-1.01-3.68-.07-.22.04-.45.25-.54.21-.09.45,0,.56.21.81,1.6,1.81,3.18,2.78,4.71.81,1.29,1.65,2.61,2.4,3.97.49-2.09.9-3.28,1.36-4.63l.13-.39s-.03-.09-.04-.13c-.02-.31-.03-.57-.03-.75-.03-3.28.39-6.58.8-9.77Z"/>
          <path class="cls-2" d="M123.44,293.06c13.85-3.51,34.47,4.04,40.19,16.13,7.77,16.43-6.84,25.89-12.86,17.01-8.36-12.34,5.84-22.85,12.27-25.19,15.09-5.49,30.28-1.79,44.88-9.55,8.5-4.52,18.46-11.99,20.71-21.92,3.12-13.76-12.66-30.13-26.47-28.68-7.14.75-15.2,5.82-15.55,13.67-.36,8.02,2.93,15.26,11.52,16.21,11,1.22,21.27-5.21,27.9-13.57,6.35-8.02,10.96-19.85,10.4-30.68"/>
        </g>
        <g>
          <g>
            <path class="cls-3" d="M355.04,39.73c.04.15,0,.3-.11.41l-7.61,8.08c-.1.1-.23.15-.37.13l-13.24-1.55c-6.07,10.39-14.11,21.09-23.9,31.82l.07.07,40.93,36.12c.09.08.14.19.15.31,0,.12-.04.24-.12.32l-5.46,5.7c-.07.07-.16.12-.26.13-.07.01-.14,0-.21-.02l-14.73-5.55c-.53,1-1.2,2.06-2,3.15-.07.09-.16.15-.27.17,0,0-.02,0-.05,0-.48.07-4.54.53-6.8-3.27-.05-.08-.07-.18-.06-.27,0-.06.17-1.4.69-2.99l-11.04-4.16c-.57,1.36-1.43,2.84-2.59,4.41-.07.09-.16.15-.27.17,0,0-.02,0-.05,0-.48.07-4.54.53-6.8-3.26-.05-.08-.07-.18-.06-.27,0-.1.26-2.21,1.18-4.28l-12.96-4.88s-.06-.03-.08-.04l-1.86,1.97c-3.86,4.1-7.85,8.33-11.73,12.2-.23.22-.5.47-.8.77-3.17,3.06-10.61,10.21-17.11,11.16-3.66.53-6.5-.96-8.44-4.41-4.29-7.65,18.45-31.03,22.82-35.01.51-.48,1.03-.96,1.56-1.44l.34-.32-.12-.12s-.08-.09-.1-.15l-4.8-11.91c-1.59.6-3.01.83-3.24.86-.02,0-.03,0-.03,0-.09.01-.19,0-.28-.05-4.07-2.31-3.41-6.73-3.41-6.77.02-.11.08-.21.16-.28,1.18-.91,2.31-1.65,3.39-2.22l-4.47-11.08c-.72.22-1.27.33-1.59.38-.25.04-.38.04-.39.04-.08,0-.16-.02-.23-.06-4.07-2.31-3.41-6.73-3.4-6.77.02-.11.08-.21.16-.28.98-.76,1.48-1.12,2.14-1.52l-5.69-14.11c-.06-.16-.03-.35.1-.47l5.56-5.6c.08-.08.2-.13.32-.13.12,0,.23.05.31.14l22.1,23.6h0s14.81,15.82,14.81,15.82l.51.49c2.26-2.2,4.24-4.16,6.02-6.01,3.77-4.06,15.81-13.71,24.42-19.59l-.4-16.07c0-.13.05-.25.15-.34l6.14-5.41c.11-.1.26-.13.4-.1.14.04.25.14.3.28l5.73,16.44,16.36,5.32c.14.04.25.16.29.31ZM270.04,38.91l-.97.9,6.94,12.28,3.35-3.21-9.33-9.96ZM260.58,52.54l-2.65-6.56c-.54.33-.99.65-1.8,1.28-.07.76-.16,3.84,2.87,5.64.22-.02.76-.11,1.57-.35ZM268.45,72.09l-2.75-6.83c-.96.52-1.98,1.18-3.04,1.98-.07.76-.16,3.83,2.86,5.63.41-.07,1.61-.29,2.92-.79ZM309.83,108.02l-6.94-2.61c-.75,1.67-1.05,3.42-1.12,3.92,1.85,2.95,4.95,2.82,5.69,2.74,1.06-1.45,1.84-2.8,2.37-4.05ZM329.35,115.37l-6.84-2.58c-.39,1.2-.57,2.26-.62,2.63,1.85,2.95,4.95,2.82,5.69,2.74.71-.97,1.3-1.9,1.77-2.79ZM326.29,94.32l-3.61,3.95,12.44,6.65,1.39-1.58-10.23-9.02ZM353.82,40.04l-15.91-5.17c-.13-.04-.23-.14-.28-.27l-5.59-16.03-5.49,4.85.4,16.1c0,.15-.07.29-.19.37-8.58,5.84-20.7,15.54-24.47,19.6-1.87,1.95-3.95,4.02-6.35,6.34-.17.16-.44.16-.61,0l-.83-.8-14.52-15.51-3.75,3.6c-.07.06-.15.11-.24.12-.04,0-.08,0-.13,0-.13-.02-.25-.1-.32-.22l-7.39-13.08c-.1-.18-.06-.4.08-.54l1.22-1.13-11.57-12.36-5.04,5.07,13.34,33.1c.17,0,.33.09.41.25.08.18.03.38-.11.51l2.83,7.01c.12.03.23.12.29.24.06.13.04.28-.03.39l4.8,11.92.38.38c.09.08.13.2.13.32,0,.12-.05.23-.14.31l-.68.63c-.52.48-1.04.96-1.56,1.44-6.08,5.55-26.38,27.27-22.65,33.94,1.77,3.15,4.24,4.45,7.55,3.97,6.22-.9,13.51-7.92,16.62-10.92.31-.29.57-.55.8-.76,3.87-3.85,7.85-8.08,11.71-12.17l2.16-2.29c.08-.09.2-.13.31-.14.12,0,.23.04.32.13l.19.19,55.45,20.89,4.94-5.16-12.73-11.23-1.62,1.84c-.07.08-.17.13-.27.14-.09.01-.18,0-.27-.05l-13.25-7.08c-.12-.06-.2-.18-.22-.31-.02-.13.02-.27.11-.37l3.98-4.36-16.34-14.41-.4-.38c-.17-.16-.18-.44-.02-.61,9.96-10.87,18.11-21.72,24.22-32.23.06-.11.18-.19.3-.21.06,0,.12,0,.18,0l13.26,1.56,6.98-7.41Z"/>
            <path class="cls-3" d="M304.53,78.96c-.51.48-.76,1.02-.58,1.21.19.19.75-.05,1.26-.53.51-.48.77-1.02.58-1.21-.19-.19-.75.04-1.26.52Z"/>
            <path class="cls-3" d="M301.77,81.59c-.5.49-.76,1.04-.58,1.22.18.19.75-.06,1.25-.54.51-.48.77-1.03.58-1.22-.19-.19-.75.05-1.26.54Z"/>
            <path class="cls-3" d="M299.02,84.27c-.5.49-.76,1.05-.58,1.23.19.18.75-.07,1.25-.56.5-.49.76-1.04.58-1.23-.19-.19-.75.06-1.25.56Z"/>
            <path class="cls-3" d="M296.27,86.99c-.5.5-.77,1.06-.58,1.24.19.18.75-.08,1.25-.58.5-.5.76-1.05.58-1.24-.18-.19-.75.07-1.25.58Z"/>
            <path class="cls-3" d="M293.53,89.75c-.51.51-.76,1.07-.58,1.25.19.18.75-.09,1.25-.6.5-.51.76-1.07.58-1.25-.19-.18-.75.08-1.25.6Z"/>
            <path class="cls-3" d="M290.79,92.55c-.5.52-.76,1.08-.57,1.26.18.18.74-.1,1.25-.61.5-.52.76-1.08.57-1.26-.18-.18-.74.09-1.24.61Z"/>
            <path class="cls-3" d="M288.06,95.39c-.5.53-.76,1.1-.57,1.27.18.18.74-.11,1.24-.63.5-.52.75-1.09.57-1.27-.18-.18-.74.1-1.24.63Z"/>
            <path class="cls-3" d="M285.33,98.27c-.5.53-.76,1.11-.57,1.28.19.17.74-.12,1.24-.65.5-.53.76-1.1.57-1.28-.18-.18-.74.11-1.24.65Z"/>
            <path class="cls-3" d="M282.61,101.2c-.5.54-.75,1.12-.57,1.29.18.17.74-.12,1.24-.66.5-.54.75-1.12.57-1.29-.18-.17-.74.12-1.24.67Z"/>
            <path class="cls-3" d="M279.9,104.17c-.5.55-.75,1.13-.57,1.3.18.17.74-.14,1.24-.69.5-.55.75-1.13.57-1.3-.18-.17-.74.13-1.23.68Z"/>
            <path class="cls-3" d="M277.19,107.17c-.5.56-.75,1.15-.56,1.32.18.16.73-.15,1.23-.7.5-.55.75-1.14.57-1.31-.18-.17-.73.14-1.23.7Z"/>
            <path class="cls-3" d="M274.49,110.22c-.49.56-.75,1.16-.56,1.32.18.16.73-.16,1.22-.72.5-.56.75-1.15.56-1.32-.18-.17-.73.15-1.23.72Z"/>
            <path class="cls-3" d="M263.43,99.65c.53-.45.82-.99.64-1.18-.18-.2-.75.01-1.28.47-.53.45-.82.98-.64,1.17.18.2.75,0,1.29-.46Z"/>
            <path class="cls-3" d="M265.68,96.46c-.53.46-.81.99-.64,1.19.18.19.75-.02,1.28-.48.53-.46.82-.99.64-1.19-.18-.19-.75.03-1.28.49Z"/>
            <path class="cls-3" d="M268.57,93.92c-.53.47-.81,1-.64,1.2.17.19.75-.03,1.28-.5.53-.47.82-1.01.64-1.2-.18-.19-.75.03-1.28.5Z"/>
            <path class="cls-3" d="M272.73,90.83c-.18-.19-.75.04-1.28.52-.53.48-.81,1.02-.64,1.21.18.19.75-.04,1.28-.51.53-.48.82-1.02.64-1.21Z"/>
            <path class="cls-3" d="M275.61,88.2c-.18-.19-.75.05-1.28.54-.53.48-.82,1.03-.64,1.22.18.19.75-.05,1.28-.53.53-.48.81-1.03.64-1.22Z"/>
            <path class="cls-3" d="M277.84,86.76c.53-.49.81-1.05.63-1.23-.18-.19-.74.06-1.27.55-.53.49-.81,1.04-.63,1.23.18.19.75-.06,1.27-.55Z"/>
            <path class="cls-3" d="M280.07,83.38c-.53.5-.81,1.05-.63,1.24.17.19.74-.07,1.27-.57.53-.5.81-1.06.63-1.25-.18-.18-.74.07-1.27.58Z"/>
            <path class="cls-3" d="M282.93,80.64c-.53.5-.81,1.07-.63,1.25.18.18.75-.08,1.27-.59.52-.51.81-1.07.63-1.25-.18-.18-.74.08-1.27.59Z"/>
            <path class="cls-3" d="M285.78,77.85c-.52.52-.8,1.08-.63,1.26.17.18.74-.09,1.27-.6.52-.52.8-1.08.63-1.27-.17-.18-.74.09-1.27.61Z"/>
            <path class="cls-3" d="M288.63,75.02c-.52.52-.8,1.09-.63,1.27.17.18.74-.09,1.26-.62.52-.52.8-1.1.62-1.28-.17-.18-.74.1-1.26.62Z"/>
            <path class="cls-3" d="M291.47,72.15c-.52.53-.8,1.1-.62,1.29.17.18.74-.11,1.26-.64.52-.53.8-1.11.63-1.29-.18-.18-.74.11-1.26.64Z"/>
            <path class="cls-3" d="M294.3,69.23c-.52.54-.8,1.12-.62,1.29.17.18.74-.11,1.26-.66.52-.54.79-1.12.62-1.3-.18-.17-.74.12-1.26.66Z"/>
            <path class="cls-3" d="M267.29,117.81c.06.18,0,.38-.15.49l-2.85,2.2c-.06.05-.13.08-.2.09h0c-.07.01-7.24.93-10.17-7.67-.04-.12-.03-.25.03-.35l1.75-3.14c.08-.15.25-.24.42-.22.17.02.32.14.37.3.03.08,2.74,8.09,10.37,8.02.19,0,.36.12.42.29ZM265.67,118.34c-5.85-.57-8.71-5.62-9.63-7.69l-1.21,2.17c2.54,7.17,8.19,6.98,9.04,6.91l1.8-1.4Z"/>
            <path class="cls-3" d="M335.99,36.04c.29.3.46.69.46,1.07,0,.32-.12.61-.34.82l-8.51,8.47c-.17.17-.39.28-.64.31-.44.06-.9-.1-1.25-.45-.56-.56-.62-1.41-.13-1.89l8.52-8.47c.46-.47,1.34-.41,1.89.14ZM335.57,37.1c0-.15-.07-.32-.2-.45-.15-.15-.34-.23-.5-.2-.06,0-.11.03-.15.07l-8.52,8.47c-.12.12-.1.42.13.65.2.2.52.26.65.13l8.51-8.47c.06-.06.07-.14.07-.2Z"/>
          </g>
          <g>
            <path class="cls-3" d="M249.27,12.25c-.29.93-.92,1.7-1.79,2.16l-33.91,18c-.53.28-1.12.43-1.71.43-1.36,0-2.6-.75-3.24-1.95l-9.44-17.94c-.95-1.78-.26-4,1.52-4.95l1.38-.73-.37-.69c-.38-.72-.1-1.61.61-1.99l2.66-1.41c.35-.18.75-.22,1.12-.11.38.12.68.37.87.72l.37.7,2.96-1.57-1-5.66c-.03-.19.06-.37.22-.46l10.59-5.8c.16-.09.37-.07.51.06l4.43,4.04,9.57-5.08c.53-.28,1.12-.43,1.71-.43,1.36,0,2.6.75,3.24,1.95l3.06,5.81h0l6.38,12.12c.46.86.55,1.85.27,2.79ZM211.11,2.48l13.11-6.96-3.96-3.61-10.04,5.5.89,5.07ZM202.85,6.87l3.71-1.97-.37-.7c-.07-.14-.2-.24-.35-.29-.15-.05-.31-.03-.45.04l-2.66,1.41c-.29.15-.4.52-.25.81l.37.69ZM199.95,12.55l2.81,5.34,11.56-6.1c-.12-1.27.01-2.56.4-3.81.77-2.53,2.48-4.6,4.82-5.84,1.42-.76,3.03-1.16,4.63-1.16,2.35,0,4.56.83,6.31,2.28l11.17-5.9-2.85-5.42c-.49-.91-1.43-1.48-2.46-1.48-.46,0-.9.11-1.3.32l-27.66,14.68s0,0,0,0h0l-4.48,2.38s0,0,0,0h0l-1.76.94c-1.36.72-1.88,2.41-1.16,3.77ZM216.21,15.1c1.57,2.95,4.62,4.79,7.97,4.79,1.46,0,2.92-.37,4.22-1.05,2.13-1.13,3.69-3.02,4.39-5.32s.47-4.74-.66-6.87c-1.57-2.95-4.62-4.79-7.97-4.79-1.46,0-2.92.36-4.22,1.05-2.13,1.13-3.69,3.02-4.39,5.32-.71,2.3-.47,4.74.66,6.87ZM248.22,9.87l-6.17-11.73-10.89,5.75c.68.68,1.28,1.47,1.75,2.35,1.24,2.33,1.49,5.01.72,7.54-.77,2.52-2.49,4.6-4.82,5.84-1.42.76-3.02,1.16-4.63,1.16-3.67,0-7.02-2.01-8.74-5.26-.47-.89-.8-1.83-.99-2.8l-11.28,5.96,6.22,11.82c.48.91,1.43,1.48,2.46,1.48.45,0,.9-.11,1.3-.33l33.91-18c.66-.35,1.14-.93,1.36-1.64.22-.71.15-1.47-.2-2.12Z"/>
            <path class="cls-3" d="M229.57-2.76c-.2-.37-.24-.8-.12-1.2.12-.4.4-.73.77-.93l4.05-2.15c.74-.4,1.74-.09,2.13.65l1.16,2.18c.41.77.11,1.72-.65,2.13l-4.05,2.15c-.23.12-.48.18-.74.18-.59,0-1.12-.32-1.39-.84l-1.16-2.18ZM230.35-3.17l1.16,2.19c.17.33.61.47.95.29l4.04-2.15c.34-.18.47-.61.29-.95l-1.16-2.18c-.12-.23-.36-.37-.62-.37-.11,0-.22.03-.33.08l-4.05,2.15c-.16.09-.29.23-.34.41-.05.18-.04.37.05.53Z"/>
            <path class="cls-3" d="M217.15,14.29c-.91-1.87-1.04-4-.36-5.97.68-1.97,2.09-3.56,3.97-4.48,1.08-.53,2.23-.79,3.42-.79,3.02,0,5.71,1.68,7.03,4.39.92,1.87,1.04,3.99.36,5.97-.68,1.97-2.09,3.56-3.96,4.48-1.08.52-2.23.79-3.42.79-3.02,0-5.71-1.68-7.03-4.39ZM217.94,13.91c1.17,2.41,3.56,3.9,6.24,3.9,1.05,0,2.08-.24,3.03-.7,1.66-.81,2.91-2.22,3.52-3.97.6-1.75.49-3.63-.32-5.3-1.17-2.41-3.56-3.9-6.24-3.9-1.06,0-2.08.24-3.03.7-1.67.81-2.92,2.22-3.52,3.97-.6,1.75-.49,3.63.32,5.3Z"/>
          </g>
          <g>
            <g>
              <path class="cls-3" d="M92.61,193.16s.07-.06.07-.06l.25-.23c.27-.25.53-.5.79-.75l.28-.28c.24-.24.47-.48.7-.73l.33-.36c.2-.22.4-.45.6-.69l.37-.44c.09-.11.12-.27.08-.41-1.44-4.48-5.93-9.59-10.01-11.39-.2-.09-.5.08-.61.27-.08.14-.17.27-.25.4l-.15.23c-.08.12-.16.23-.25.36-.06.09-.12.17-.18.26l-.22.29c-.08.11-.16.21-.24.3l-.66.76c-.11.12-.23.24-.36.37l-.08.08c-.1.09-.14.23-.13.36.02.13.09.25.21.33,4.84,2.94,6.66,6.5,8.71,11.21.06.13.2.19.33.22.02,0,.05,0,.08,0,.12,0,.25-.05.34-.12ZM84.19,181.26l.67-.77c.09-.11.17-.22.25-.32l.23-.31c.07-.09.13-.18.2-.28.09-.12.18-.25.26-.37l.16-.24c.04-.06.08-.12.12-.19,3.71,1.81,7.69,6.38,9.1,10.47l-.21.25c-.19.22-.38.45-.58.66l-.32.35c-.22.24-.45.48-.68.71l-.28.27c-.23.22-.45.44-.68.65-1.9-4.3-3.84-7.87-8.35-10.77.04-.04.07-.08.11-.12Z"/>
              <path class="cls-3" d="M83.06,158.87c3.31-2.99,5.98-9.24,5.95-13.94,0-.15-.15-.33-.27-.41-.27-.17-.54-.34-.82-.51l-.39-.22c-.3-.17-.61-.34-.92-.51l-.34-.17c-.33-.17-.65-.33-.99-.49l-.32-.15c-.15-.07-.3-.13-.45-.2l-.1-.04c-.13-.06-.28-.04-.4.03-.12.07-.2.2-.21.34-.48,5.11-1.1,9.07-4.78,13.37-.09.1-.05.27-.02.4.03.13.18.28.3.34l.17.09c.15.08.31.17.47.26l.19.11c.14.08.28.17.46.29l.53.35,1.36,1.07c.08.07.19.11.29.11s.21-.04.29-.11ZM84.62,143.28l.3.14c.32.15.64.31.99.49l.29.15c.3.16.6.33.89.5l.37.21c.23.13.45.27.66.41-.06,4.32-2.42,9.91-5.39,12.79l-1.74-1.28c-.14-.09-.29-.18-.43-.27l-.2-.12c-.1-.06-.21-.12-.33-.18,3.4-4.16,4.1-8.01,4.58-12.83Z"/>
              <path class="cls-3" d="M96.03,189.6c.17-.2.33-.41.49-.62l.07-.1c.12-.16.25-.32.37-.48.11-.15.21-.29.31-.44l.07-.1c.16-.23.32-.46.48-.7.08-.12.15-.24.23-.36l.07-.11c.17-.27.34-.54.5-.81.07-.12.14-.23.23-.4.17-.3.34-.6.5-.9l.18-.36c.16-.32.33-.65.48-.97l.15-.34c.15-.33.3-.67.44-1.01l.15-.37c.13-.33.26-.66.38-1l.15-.43c.11-.31.21-.63.31-.94.05-.17.1-.34.16-.55.08-.28.16-.56.23-.84.06-.24.11-.49.17-.72.05-.23.11-.46.15-.69.06-.31.12-.62.18-1.01.03-.14.05-.28.07-.43.06-.38.11-.77.15-1.16l.04-.3c.05-.46.08-.92.11-1.38,0,0,0-.12,0-.12.03-.5.04-1.01.04-1.53,0-.5,0-1.01-.03-1.58-.02-.43-.05-.86-.09-1.28l-.03-.34c-.02-.2-.04-.4-.07-.59l-.06-.48c-.02-.18-.05-.37-.07-.55l-.07-.4c-.07-.4-.14-.8-.22-1.2l-.43.09.4-.21c-.1-.48-.21-.95-.36-1.49-.13-.48-.26-.94-.41-1.4l-.06-.17c-.14-.42-.28-.84-.43-1.25l-.13-.33c-.13-.35-.27-.7-.42-1.04-.05-.12-.1-.23-.15-.34l-.14-.3c-.1-.23-.21-.46-.32-.68-.11-.22-.22-.43-.34-.67l-.08-.15c-.08-.16-.16-.31-.25-.47-.15-.27-.3-.53-.46-.8l-.27-.45c-.18-.3-.37-.59-.56-.88l-.22-.34c-.21-.31-.43-.61-.7-.98l-.15-.2c-.23-.31-.47-.61-.71-.91l-.2-.25c-.24-.29-.49-.58-.74-.86l-.23-.25c-.24-.27-.49-.53-.74-.78l-.06-.07c-.08-.08-.15-.16-.23-.23-.24-.24-.48-.46-.73-.69l-.37-.34c-.21-.19-.43-.38-.68-.59l-.12-.1c-.12-.1-.23-.2-.35-.29-.2-.16-.4-.32-.63-.5-.19-.15-.38-.29-.57-.43-.18-.13-.35-.25-.53-.38-.23-.16-.47-.33-.71-.49l-.38-.25c-.13-.09-.31-.09-.45-.02-.14.08-.23.23-.23.39.02,4.48-2.52,10.45-5.67,13.29-.09.08-.11.24-.1.36,0,.12.09.28.18.36l.19.18c.12.11.24.22.35.34l.15.16c.12.13.25.25.36.38l.12.14c.12.14.24.28.41.47l.06.08c.12.14.23.29.35.45l.1.14c.11.14.21.29.31.44l.13.19c.09.14.18.28.27.42l.11.19s.05.09.05.09c.07.11.13.22.19.34.06.11.12.22.17.33l.16.31c.07.14.13.28.22.49l.08.18c.08.18.15.36.24.59l.04.09c.08.22.16.43.24.71.15.46.27.93.39,1.45,0,.02,0,.04,0,.05.04.21.08.42.13.71l.02.09c.02.12.03.24.06.42v.1c.02.09.04.19.05.29v.11s.02.09.02.09c.02.2.03.4.05.66,0,.25.02.49.02.76,0,.25,0,.49-.03.81-.01.23-.03.45-.05.67l-.02.17c-.02.19-.05.38-.07.57l-.04.26c-.03.15-.05.3-.08.46l-.35,1.4c-.05.16-.1.32-.15.47l-.07.22c-.06.17-.12.34-.19.5l-.07.18c-.07.17-.14.34-.24.56l-.05.12c-.08.17-.16.33-.24.5l-.09.17c-.08.15-.16.3-.25.45l.37.22h0s-.42-.11-.42-.11c-.06.11-.08.24-.04.36.04.12.13.22.24.27,3.88,1.72,8.15,6.59,9.53,10.86.05.15.19.26.34.29.02,0,.05,0,.07,0,.13,0,.27-.07.36-.17ZM86.61,177.85l.1-.19c.09-.17.17-.34.25-.51l.08-.18c.08-.18.16-.36.23-.54l.07-.18c.07-.18.14-.36.2-.53l.08-.22c.06-.17.11-.34.16-.5l.37-1.49c.03-.16.06-.32.09-.49l.05-.27c.03-.2.06-.4.09-.65v-.12c.04-.24.06-.47.08-.79.01-.26.02-.52.02-.81,0-.26,0-.52-.02-.84-.01-.22-.03-.43-.05-.72v-.13c-.02-.11-.03-.21-.05-.32l-.02-.16c-.02-.13-.03-.26-.05-.38l-.03-.17c-.03-.21-.07-.42-.12-.63,0-.02,0-.03-.01-.06-.11-.53-.25-1.06-.43-1.62-.07-.24-.16-.47-.24-.7l-.06-.15c-.07-.19-.15-.39-.23-.57l-.11-.25c-.07-.15-.14-.31-.21-.46l-.17-.33c-.06-.12-.12-.23-.18-.35-.07-.12-.14-.24-.21-.36l-.38.22.32-.31-.12-.21c-.09-.15-.19-.3-.33-.51l-.09-.14c-.11-.16-.22-.31-.36-.51l-.08-.11c-.12-.16-.24-.31-.37-.47l-.11-.14c-.12-.15-.25-.3-.41-.48l-.1-.11c-.13-.14-.26-.27-.38-.4l-.16-.16c-.1-.1-.2-.2-.31-.29,2.96-2.92,5.34-8.4,5.59-12.81.14.09.27.19.41.28.17.12.35.24.52.37.19.14.37.28.57.43.2.15.4.31.59.47.11.09.23.19.34.28l.15.13c.21.18.42.36.63.55l.36.33c.24.22.47.44.7.67.07.07.14.14.21.21l.07.07c.25.25.49.5.72.76l.22.25c.24.27.49.55.72.84l.2.24c.23.29.47.58.69.88l.14.19s.05.07.05.07c.21.29.42.59.63.89l.22.33c.19.28.37.57.54.85l.26.44c.15.26.3.51.44.77.08.15.16.3.24.45l.09.17c.11.21.22.42.32.63.11.22.21.44.31.66l.14.3c.05.11.1.21.14.33.14.33.28.67.41,1.01l.12.31c.15.4.29.81.42,1.21,0,0,.05.16.05.16.14.45.28.9.42,1.43.12.46.23.92.33,1.39l.43-.09-.4.2c.08.39.15.78.22,1.17l.07.39c.03.18.05.35.07.53l.06.48c.02.19.05.38.07.57l.03.33c.04.41.07.83.09,1.3.02.5.03.99.03,1.49,0,.5-.02.99-.04,1.47l.44.02-.45.09c-.03.45-.06.89-.11,1.34l-.04.29c-.04.38-.09.75-.15,1.13-.02.14-.04.27-.08.49-.05.3-.1.61-.16.91-.05.22-.1.44-.15.67-.05.23-.11.47-.16.7-.07.27-.14.54-.24.86-.05.16-.09.33-.14.49-.09.31-.19.61-.3.92l-.14.42c-.12.33-.24.65-.37.97l-.14.36c-.14.33-.28.66-.43.98l-.15.33c-.15.32-.31.64-.47.95l-.18.34c-.16.3-.32.59-.52.93-.06.11-.13.22-.19.33-.16.27-.32.53-.49.78l-.07.11c-.07.12-.14.23-.22.34-.15.23-.31.45-.46.67l-.37.53c-.12.16-.23.31-.35.47l-.07.09s0,0,0,0c-1.61-4.12-5.58-8.58-9.3-10.43.03-.06.06-.11.09-.17Z"/>
              <path class="cls-3" d="M59.65,161.79l.2-.28c.06-.08.11-.16.17-.24.08-.1.15-.2.24-.31.07-.1.15-.19.22-.28l.21-.25c.09-.11.18-.22.28-.32l.19-.21c.11-.12.22-.23.32-.34l.17-.16c.12-.12.25-.24.37-.35l.15-.13s.12-.11.12-.11c.1-.09.16-.22.15-.35,0-.14-.08-.26-.19-.34-4.64-3.24-6.24-6.91-7.99-11.74-.05-.13-.16-.23-.29-.27-.13-.04-.28,0-.39.08l-.14.11c-.12.09-.24.18-.35.28l-.25.2c-.29.24-.57.49-.91.78l-.21.19c-.27.24-.53.49-.78.75l-.29.29c-.23.24-.46.48-.74.78-.09.11-.12.25-.09.39,1.16,4.55,5.32,9.94,9.27,12,.06.03.13.05.2.05.14,0,.28-.07.36-.19ZM51.27,149.38l.29-.28c.25-.25.5-.49.76-.72l.25-.23c.27-.24.55-.48.83-.72l.25-.2s0,0,0,0c1.67,4.55,3.33,8.1,7.66,11.27-.09.08-.18.17-.27.26l-.17.17c-.12.12-.23.24-.34.36l-.2.22c-.1.11-.19.22-.33.38l-.19.22c-.08.1-.16.2-.25.31-.08.11-.16.21-.24.32-.06.08-.11.16-.17.23-3.59-2.04-7.28-6.86-8.43-11.02.18-.19.36-.38.55-.57Z"/>
              <path class="cls-3" d="M62.3,158.79c.1-.08.19-.17.29-.25l.15-.12c.14-.12.29-.23.43-.34l.16-.12c.14-.1.29-.21.43-.31l.2-.13c.14-.09.27-.18.41-.26l.25-.15c.12-.07.25-.14.38-.21.09-.05.18-.1.27-.14l-.2-.39.31.33.27-.13c.14-.07.29-.14.43-.2l.23-.1c.18-.08.36-.15.55-.22l-.16-.41.29.36c.22-.08.44-.16.71-.24.48-.16.98-.29,1.49-.39,0,0,0,0,.01,0,0,0,0,0,0,0,.21-.04.42-.08.71-.13h.09c.12-.04.25-.05.42-.07l.59-.06c.2-.02.41-.04.66-.05.22,0,.45-.01.67-.01v-.44l.09.44c.25,0,.5,0,.81.03.23.01.45.03.68.06l.16.02c.19.02.38.05.57.08l.26.04c.15.03.31.05.46.08l.4.09c.1.02.2.05.3.07.14.04.29.08.43.12l.27.08c.16.05.32.11.48.16l.21.07c.17.06.34.12.5.19l.18.07c.17.07.34.15.58.25l.1.04c.12.05.23.11.35.17.18.09.4.05.53-.1,3.85-4.5,4.5-8.58,4.99-13.85.02-.19-.09-.37-.26-.44l-.82-.34c-.34-.13-.67-.27-1.01-.38l-.42-.14c-.32-.11-.64-.21-.96-.31-.14-.04-.28-.08-.42-.12l-.12-.03c-.28-.08-.57-.16-.85-.23-.2-.05-.4-.1-.6-.14l-.2-.05c-.2-.05-.4-.09-.6-.13-.31-.06-.62-.12-.92-.17l-.51-.09c-.38-.06-.76-.11-1.15-.15l-.31-.04c-.45-.05-.9-.08-1.4-.11,0,0-.09,0-.1,0-.5-.03-1.01-.04-1.53-.04h-.12c-.46,0-.93.01-1.46.04-.43.02-.85.05-1.27.09l-.35.03c-.2.02-.39.05-.59.07l-.44.06c-.2.03-.4.05-.6.08l-.39.07c-.4.07-.8.14-1.2.22,0,0-.12.03-.12.03-.48.1-.95.21-1.49.36-.47.13-.94.26-1.49.44l-.08.03c-.42.14-.84.28-1.25.43l-.33.13c-.35.13-.69.27-1.03.42-.15.06-.3.13-.52.23-.27.12-.54.25-.81.38-.19.09-.38.19-.56.29l-.31.16c-.14.07-.28.14-.41.22-.27.15-.53.3-.8.46l-.45.27c-.3.18-.59.37-.88.56l-.34.22c-.31.21-.61.43-.92.65l-.68.52c-.15.12-.21.32-.15.5,1.81,4.98,3.46,8.77,8.31,12.15.08.05.16.08.25.08.1,0,.21-.04.29-.11ZM54.79,146.35c.29-.21.59-.42.89-.63l.33-.22c.28-.19.57-.37.85-.55l.44-.26c.26-.15.52-.3.78-.44l.7-.37c.18-.09.36-.19.55-.28.26-.12.52-.25.86-.4.14-.06.28-.13.43-.19.33-.14.66-.28,1-.41l.33-.13c.4-.15.8-.29,1.21-.42l.17-.05c.45-.14.9-.28,1.43-.42.46-.12.92-.23,1.37-.33l.12-.03c.39-.08.78-.15,1.17-.21l.38-.07c.19-.03.38-.05.57-.08l.44-.06c.19-.02.37-.05.56-.07l.33-.03c.41-.04.82-.07,1.3-.09.45-.02.91-.03,1.36-.03h.14c.49,0,.98.02,1.47.04l.02-.44.1.45c.44.03.88.06,1.32.11l.3.04c.37.04.75.09,1.12.15l.5.09c.3.05.6.1.9.16.2.04.39.08.58.13l.2.04c.2.04.39.09.59.14.28.07.55.15.83.23l.12.03c.13.04.27.08.4.12.31.09.62.2.93.3l.4.14c.33.12.66.24,1.03.39l.45.19c-.47,4.86-1.12,8.68-4.54,12.79-.02,0-.04-.02-.05-.02l-.17-.08c-.18-.08-.36-.16-.54-.23l-.18-.07c-.18-.07-.36-.14-.54-.21l-.22-.07c-.17-.06-.33-.11-.51-.17l-.29-.08c-.15-.04-.3-.08-.45-.12-.11-.03-.22-.05-.38-.09l-.37-.08c-.16-.03-.32-.06-.55-.1l-.21-.04c-.2-.03-.4-.06-.62-.08l-.15-.02c-.24-.03-.47-.04-.7-.06,0,0-.09,0-.09,0-.26-.01-.52-.02-.78-.02h-.1c-.24,0-.48,0-.74.02-.01,0-.03,0-.04,0-.21.01-.43.03-.7.05h-.15c-.1.02-.2.04-.3.05l-.16.02c-.13.01-.27.03-.39.05l-.18.03c-.23.04-.45.08-.67.13,0,0,0,0-.01,0,0,0,0,0-.01,0-.53.11-1.06.25-1.62.43-.23.08-.47.15-.69.24l-.15.06c-.19.08-.39.15-.58.24l-.24.11c-.15.07-.31.14-.46.21l-.28.14s-.11.06-.11.06c-.1.05-.19.1-.29.15-.13.07-.26.15-.46.26l-.2.12c-.15.09-.29.19-.49.31l-.15.1c-.16.11-.31.21-.46.33l-.17.12c-.15.12-.3.23-.45.35l-.16.13s-.03.03-.05.04c-4.34-3.12-5.93-6.65-7.61-11.24l.42-.31Z"/>
              <path class="cls-3" d="M54.73,194.99c.14-.07.23-.21.24-.37,0-.14.02-.28.03-.42.05-.54.14-1.12.26-1.71.89-4.15,3.43-8.58,6.19-10.78.1-.08.12-.23.13-.36,0-.12-.07-.28-.16-.37-.13-.13-.25-.26-.4-.42l-.09-.1c-.13-.14-.25-.28-.37-.43l-.1-.13c-.12-.15-.24-.3-.39-.5l-.06-.08c-.11-.15-.22-.3-.32-.45l-.12-.18c-.09-.14-.19-.29-.28-.43l-.14-.23c-.08-.13-.15-.26-.22-.39l-.33-.64c-.07-.14-.13-.27-.19-.41l-.11-.25c-.08-.17-.14-.35-.24-.6l-.03-.08c-.08-.21-.15-.42-.24-.71-.08-.24-.15-.48-.21-.73-.06-.23-.12-.47-.18-.75,0,0,0-.01,0-.02-.04-.21-.08-.41-.12-.63l-.1-.7c-.01-.09-.02-.19-.03-.29v-.1s-.02-.09-.02-.09c-.02-.2-.03-.41-.05-.67-.01-.25-.02-.49-.01-.77,0-.24,0-.49.03-.82.01-.22.03-.44.06-.74v-.1c.03-.19.06-.37.08-.55l.06-.35c.02-.13.04-.25.07-.37.02-.11.05-.22.08-.37l.08-.34c.03-.13.07-.27.12-.45l.07-.25c.05-.17.11-.33.16-.49l.07-.19c.06-.18.13-.35.23-.6l.03-.08c.07-.18.15-.35.25-.57l.05-.1c.08-.17.16-.34.25-.51l.08-.15c.08-.16.17-.32.3-.54l.06-.11c.09-.14.18-.29.27-.43l.13-.2-.36-.24h0s.41.15.41.15c.07-.1.09-.23.06-.36-.03-.12-.11-.22-.22-.28-3.76-1.96-7.72-7.09-8.82-11.43-.04-.15-.19-.25-.34-.29-.15-.04-.34.04-.45.15-.09.09-.17.18-.25.27-.2.22-.39.44-.58.67l-.4.48c-.14.18-.28.36-.47.6-.15.2-.31.39-.45.6-.13.17-.25.35-.37.52-.17.24-.33.48-.5.72l-.28.44c-.18.28-.35.55-.52.83l-.22.37c-.18.31-.35.62-.52.93l-.16.32c-.17.33-.34.67-.5,1l-.14.3c-.16.34-.31.69-.45,1.04l-.13.33c-.14.34-.27.69-.39,1.03l-.14.4c-.11.33-.22.65-.32.99l-.15.51c-.08.29-.16.58-.24.88-.05.19-.09.39-.14.58l-.05.23c-.05.2-.09.4-.13.6-.06.29-.11.59-.16.88l-.02.1c-.03.15-.05.3-.08.46-.06.36-.1.73-.14,1.1l-.04.36c-.04.43-.08.87-.11,1.4v.09c-.03.48-.05.97-.05,1.53,0,.48,0,.97.03,1.45,0,0,0,.13,0,.13.02.4.05.8.09,1.21l.04.42c.02.18.04.37.07.55l.05.38c.03.23.06.47.09.7l.05.31c.07.43.15.86.24,1.32.21,1,.48,2,.79,2.98,0,0,.03.1.03.1.14.44.3.88.46,1.32l.11.27c.14.37.29.73.44,1.09l.21.46c.13.29.26.58.4.86.09.17.17.35.26.52l.09.18c.1.2.2.39.31.59.14.26.29.51.45.78.09.16.18.32.28.47.17.29.35.56.54.84l.25.37c.2.3.41.59.62.88l.22.3c.22.3.45.59.73.93l.18.22c.23.28.47.56.72.83l.25.28c.24.26.48.51.72.76l.31.32c.23.23.46.45.7.67l.08.08c.11.1.21.2.31.29.21.19.43.38.69.6l.1.08c.12.1.24.2.35.3.16.13.33.26.5.39l.74.56.25-.36-.24.36c.07.05.16.07.24.07.07,0,.13-.02.2-.05ZM43.67,179.57l.38-.23c-.3-.95-.56-1.92-.77-2.92-.09-.42-.16-.84-.23-1.25l-.05-.3c-.04-.22-.06-.45-.09-.67l-.05-.38c-.02-.17-.05-.35-.06-.52l-.03-.41c-.03-.39-.06-.78-.08-1.17l-.44.02.43-.15c-.02-.47-.03-.94-.03-1.48,0-.47.02-.95.05-1.5,0,0,0-.09,0-.09.03-.43.06-.85.1-1.28l.04-.35c.04-.36.09-.72.14-1.07.02-.15.05-.29.07-.43l.02-.1c.05-.29.1-.57.15-.85.04-.19.08-.39.13-.58l.05-.23c.04-.19.08-.37.13-.56.07-.29.15-.57.26-.94l.12-.41c.1-.32.2-.64.31-.96l.13-.38c.12-.34.25-.67.38-1l.13-.32c.14-.34.29-.68.44-1.01l.13-.29c.15-.33.31-.65.48-.97l.16-.32c.16-.3.33-.61.5-.9l.21-.36c.16-.27.33-.54.5-.81l.28-.43c.16-.24.32-.47.48-.7.12-.17.24-.34.36-.51.14-.19.29-.39.49-.64.14-.18.27-.35.41-.52l.39-.47c.11-.13.22-.26.33-.39,1.35,4.21,5.03,8.92,8.63,11-.08.12-.15.24-.23.37l-.11.18c-.09.16-.19.33-.27.5l-.09.16c-.09.18-.18.36-.26.53l-.07.16c-.09.19-.17.37-.24.55l-.07.17c-.07.18-.14.37-.21.56l-.07.2c-.06.17-.12.35-.17.53l-.09.31c-.04.14-.08.28-.11.42l-.09.4c-.03.12-.05.23-.08.35-.03.13-.05.27-.09.47l-.05.29c-.03.2-.05.39-.09.67v.1c-.04.23-.05.46-.07.69,0,0,0,.1,0,.1-.01.26-.02.52-.02.81,0,.26,0,.51.02.83.01.22.03.43.05.72v.13c.02.1.03.21.05.31l.1.73c.04.22.08.45.11.58,0,.03,0,.09.02.12.05.26.12.52.19.79.07.26.14.51.25.84.07.23.15.45.23.67l.06.17c.07.19.15.37.22.56l.12.26c.07.15.13.29.2.44.06.12.12.23.2.39l.15.29c.08.14.16.28.24.42l.14.24c.1.16.2.31.29.45l.13.19c.11.16.22.32.34.47l.11.15c.12.16.25.32.4.51l.08.09c.13.15.26.3.4.46l.11.13s.09.1.14.15c-2.76,2.39-5.25,6.82-6.13,10.97-.11.5-.19.99-.24,1.46l-.09-.07c-.16-.12-.32-.25-.48-.38-.12-.09-.23-.19-.34-.28l-.14-.12c-.21-.18-.42-.36-.63-.55-.1-.09-.2-.18-.3-.27l-.08-.07c-.23-.21-.46-.43-.68-.65l-.31-.31c-.24-.24-.47-.49-.7-.74l-.25-.28c-.24-.27-.47-.54-.7-.81l-.22-.27c-.23-.28-.45-.56-.67-.85l-.22-.29c-.21-.28-.41-.57-.61-.86l-.24-.36c-.18-.27-.35-.54-.52-.82-.09-.15-.18-.3-.28-.48-.14-.24-.29-.49-.42-.74-.1-.19-.2-.38-.33-.63l-.06-.11c-.09-.17-.17-.33-.25-.5-.13-.28-.26-.56-.39-.84l-.2-.45c-.15-.35-.29-.7-.45-1.1l-.09-.22c-.16-.42-.31-.85-.44-1.28l-.42.13Z"/>
              <path class="cls-3" d="M58.91,197.55c.13-.06.21-.18.24-.32.06-.36.11-.71.17-1.06.13-.79.27-1.55.43-2.28.9-4.15,2.35-6.95,5.01-9.69.09-.1.08-.27.06-.4-.02-.13-.16-.29-.27-.35-.14-.08-.27-.16-.41-.25l-.23-.15c-.12-.08-.24-.16-.36-.25-.09-.06-.17-.12-.26-.18l-.6-.46c-.08-.07-.16-.13-.26-.22-.1-.09-.21-.18-.31-.27l-.19-.17c-.12-.11-.24-.23-.36-.34l-.31.31.24-.37c-.16-.16-.42-.18-.59-.04-2.9,2.31-5.58,6.95-6.5,11.28-.13.63-.23,1.24-.28,1.81-.01.15-.03.3-.04.45,0,.15.06.29.18.38.16.12.32.23.48.34.24.17.49.34.74.5.14.09.29.18.42.27.28.18.56.36.85.53.12.07.24.14.36.21.31.18.63.36.94.52l.45.23c.06.03.13.05.2.05s.13-.02.2-.05ZM55.01,194.21c.05-.54.14-1.12.26-1.71.86-4,3.25-8.27,5.89-10.53.06.05.11.11.17.16l.2.19c.11.1.22.19.35.31.08.07.17.14.25.21l.63.49c.09.07.19.14.28.2.12.09.25.17.38.26l.24.15s.06.04.09.06c-2.55,2.74-3.97,5.6-4.86,9.72-.16.75-.31,1.52-.44,2.32-.03.16-.05.32-.08.48-.28-.15-.55-.3-.82-.46-.11-.07-.23-.13-.35-.2-.28-.16-.55-.34-.83-.51-.14-.09-.27-.17-.41-.26-.24-.16-.48-.33-.72-.49-.09-.06-.18-.12-.26-.19,0-.06.01-.12.02-.18Z"/>
              <path class="cls-3" d="M73.68,200.83l-.02-.44.12.44c.42-.02.83-.05,1.25-.09l.37-.03c.22-.02.43-.05.64-.08l.36-.05c.21-.03.41-.05.62-.08l.36-.06c.41-.07.82-.14,1.23-.23,0,0,.08-.02.09-.02.49-.11.97-.22,1.5-.36.48-.13.96-.27,1.42-.41l.15-.05c.43-.14.85-.28,1.27-.44l.32-.12c.35-.13.7-.28,1.05-.42.13-.05.26-.11.38-.17l.12-.06c.28-.12.55-.25.82-.38.21-.1.42-.21.67-.34l.1-.05c.17-.09.34-.18.51-.27.27-.15.53-.3.83-.48l.42-.25c.3-.18.59-.37.95-.6l.27-.18c.31-.21.62-.43.92-.65l.27-.2c.31-.23.61-.47.91-.71l.24-.2c.25-.21.5-.42.74-.64.14-.13.19-.33.11-.5-2.05-4.7-4.01-8.54-9.06-11.61-.17-.1-.45-.03-.59.11-.13.12-.26.25-.4.38l-.13.11c-.14.13-.28.25-.43.37,0,0-.12.1-.12.1-.15.12-.3.24-.45.35l-.14.1c-.15.11-.3.22-.46.33l-.16.11c-.14.1-.29.19-.44.28l-.23.13c-.13.08-.26.16-.4.23l-.3.16c-.11.06-.22.12-.34.17-.11.05-.23.11-.4.18l-.26.12c-.17.07-.34.14-.53.22l-.15.06c-.21.08-.41.15-.62.22l.13.42-.22-.39c-.23.07-.46.14-.74.21-.23.06-.47.12-.68.17-.03,0-.06,0-.09.01-.2.04-.39.08-.67.12l-.12.02c-.12.02-.24.03-.45.06-.12.02-.24.03-.36.04,0,0-.16.01-.17.01-.21.02-.43.04-.63.05-.02,0-.04,0-.06,0-.22,0-.44.01-.66.01h-.1c-.25,0-.51,0-.82-.03-.23-.01-.46-.03-.68-.05,0,0-.15-.02-.15-.02-.19-.02-.38-.05-.58-.08l-.25-.04c-.16-.03-.31-.05-.46-.08l-.7-.16c-.14-.04-.29-.08-.43-.12,0,0-.08-.02-.08-.02l-.18-.05c-.16-.05-.32-.1-.55-.18l-.14-.05c-.17-.06-.34-.12-.51-.19l-.17-.07c-.17-.07-.34-.15-.52-.23l-.15-.07c-.17-.08-.33-.16-.57-.28l-.09-.05c-.16-.08-.31-.17-.52-.29-.17-.11-.4-.08-.55.07-2.78,2.87-4.3,5.8-5.23,10.12-.16.75-.31,1.52-.44,2.32-.06.35-.12.71-.18,1.07-.03.19.07.37.24.46l.46.23c.14.07.28.14.41.2l.3.13c.25.11.5.22.75.33l.3.13c.11.04.22.09.32.13.34.14.69.27,1.04.4l.39.13c.33.11.66.22.99.32.17.05.34.1.51.15.29.08.59.16.88.24.23.06.46.11.68.16.25.06.49.11.73.16.26.05.53.1.8.15l.64.11c.37.05.74.1,1.12.15h.11c.08.02.16.03.23.04.44.05.89.08,1.33.11,0,0,.16.01.16.01.49.03.98.04,1.53.04h.11c.45,0,.91,0,1.37-.03ZM59.32,196.17c.13-.79.27-1.55.43-2.28.87-4.02,2.26-6.79,4.77-9.45.09.05.17.1.26.14l.18.09c.17.09.35.17.52.26l.17.08c.18.08.36.16.55.24l.18.07c.18.07.36.14.53.2l.23.08c.17.06.34.11.5.16l.28.08c.15.04.3.08.46.12l.37.09c.12.03.25.05.37.08.16.03.32.06.56.1l.2.03c.2.03.41.06.67.09h.1c.24.04.48.06.79.07.26.01.53.02.81.02h.09c.24,0,.47,0,.72-.02.01,0,.02,0,.04,0,.22,0,.45-.03.73-.05h.12c.13-.02.26-.04.47-.07.13-.02.26-.03.38-.05l.22-.04c.21-.04.42-.07.63-.12h0s.05,0,.07-.01c.25-.05.5-.11.79-.19.25-.07.49-.14.74-.21l-.13-.42.22.39c.22-.07.44-.15.66-.23l.18-.07c.18-.07.36-.14.54-.22l.33-.15c.12-.06.25-.11.37-.17.12-.06.24-.12.36-.18l.32-.17c.15-.08.29-.16.43-.24l.24-.14c.16-.1.31-.2.53-.34l.11-.07c.16-.11.33-.23.48-.34l.14-.11c.16-.12.32-.25.52-.41l.09-.07c.15-.13.31-.26.45-.39l.14-.12c.08-.07.15-.14.23-.21,4.52,2.84,6.34,6.27,8.3,10.74-.16.14-.32.28-.48.41l-.23.19c-.29.24-.58.47-.88.69l-.26.19c-.29.21-.59.43-.89.63l-.33.21c-.28.19-.56.37-.85.54l-.44.26c-.26.15-.51.3-.77.44-.16.09-.33.17-.49.26l-.15.08c-.2.11-.4.21-.6.31-.26.13-.53.25-.79.37l-.13.06c-.12.06-.24.11-.36.16-.33.14-.67.28-1.02.41l-.31.12c-.4.15-.82.29-1.27.44l-.11.04c-.46.15-.92.28-1.43.41-.47.12-.94.24-1.49.35-.4.08-.8.15-1.21.22l-.35.06c-.2.03-.4.05-.59.08l-.37.05c-.2.03-.41.05-.61.07l-.37.03c-.4.04-.8.07-1.2.09h-.1c-.44.02-.89.03-1.33.03h-.16c-.48,0-.96-.01-1.5-.05h-.1c-.43-.03-.86-.06-1.3-.11l-.32-.04c-.36-.04-.73-.09-1.08-.14l-.62-.11c-.26-.05-.52-.09-.77-.14-.24-.05-.47-.1-.71-.16-.22-.05-.44-.1-.66-.15-.29-.07-.57-.15-.86-.24-.16-.04-.33-.09-.49-.14-.32-.1-.64-.2-1.05-.34l-.29-.1c-.34-.12-.68-.25-1.02-.39l-.59-.25c-.25-.11-.49-.21-.73-.32l-.29-.14c-.13-.06-.26-.12-.39-.19l-.17-.09c.04-.25.08-.5.12-.75Z"/>
            </g>
            <g>
              <path class="cls-1" d="M54.53,146c.3-.22.6-.43.9-.64.11-.07.22-.15.33-.22.29-.19.57-.38.87-.55.15-.09.3-.17.44-.26.26-.15.52-.31.79-.45.2-.11.4-.21.6-.32.22-.11.44-.23.67-.34.26-.13.53-.25.8-.37.17-.08.34-.16.51-.23.33-.14.67-.28,1.02-.41.11-.04.22-.09.33-.13.4-.15.82-.29,1.23-.43.05-.02.11-.04.16-.05.45-.15.92-.28,1.38-.4.02,0,.05-.01.07-.02.46-.12.93-.23,1.4-.33.04,0,.08-.02.12-.03.4-.08.79-.15,1.19-.22.13-.02.26-.05.39-.07.26-.04.52-.07.77-.1.28-.03.55-.07.83-.1.11-.01.23-.02.34-.03.42-.04.83-.07,1.26-.09.02,0,.04,0,.06,0,.5-.02,1-.03,1.5-.03,0,0,.01,0,.02,0,.5,0,1,.02,1.49.04.04,0,.09,0,.13,0,.45.03.9.06,1.34.11.1.01.21.02.31.04.38.04.76.09,1.13.15.17.03.34.06.5.08.3.05.61.1.91.17.23.05.46.1.69.15.23.05.47.1.7.16.28.07.56.15.84.23.18.05.35.1.53.15.32.1.63.2.95.31.14.05.27.09.41.14.34.12.67.25,1,.38.11.04.23.09.34.14.16.07.31.14.46.2.06.02.12.05.18.08-1.56-1.88-2.79-4.04-4.37-5.92-4.61-5.5-14.37-5.98-19.79-1.48-3.54,2.94-4.62,7.1-6.33,11.13,0,0,0,.02-.01.03.12-.09.23-.18.35-.27.09-.07.18-.13.27-.2Z"/>
              <path class="cls-1" d="M90.4,194.41c-.09.06-.18.13-.26.19-.3.22-.6.43-.9.64-.11.07-.22.14-.33.22-.29.19-.57.37-.87.55-.15.09-.3.18-.45.26-.26.15-.52.3-.79.45-.2.11-.4.21-.61.32-.22.12-.44.23-.66.34-.27.13-.53.25-.81.37-.17.08-.33.15-.5.22-.34.14-.68.28-1.03.42-.1.04-.21.08-.31.12-.41.16-.83.3-1.25.43-.05.02-.1.03-.14.05-.46.15-.93.28-1.41.41-.01,0-.03,0-.04.01-.47.12-.95.24-1.43.34-.03,0-.06.01-.08.02-.41.08-.81.15-1.22.22-.12.02-.24.04-.36.06-.27.04-.54.07-.81.11-.26.03-.53.07-.79.1-.12.01-.25.02-.38.03-.41.04-.81.07-1.22.09-.03,0-.07,0-.1,0-.49.02-.98.03-1.46.03h-.06c-.49,0-.97-.02-1.45-.04-.05,0-.11,0-.16-.01-.44-.03-.88-.06-1.31-.11-.11,0-.22-.03-.34-.04-.37-.04-.74-.09-1.1-.14-.18-.03-.36-.06-.54-.09-.29-.05-.59-.1-.88-.16-.24-.05-.48-.1-.72-.16-.22-.05-.45-.1-.67-.16-.29-.07-.58-.15-.87-.24-.17-.05-.34-.09-.5-.14-.33-.1-.65-.21-.97-.32-.13-.04-.26-.09-.38-.13-.34-.12-.69-.25-1.03-.39-.1-.04-.21-.08-.31-.12-.1-.04-.19-.08-.29-.13-.25-.1-.5-.21-.74-.32-.1-.04-.19-.09-.29-.13-.17-.08-.34-.17-.51-.25-.12-.06-.23-.11-.35-.17-.05-.02-.09-.04-.14-.07-.1-.05-.21-.1-.31-.16-.31-.17-.62-.34-.93-.52-.12-.07-.24-.13-.35-.2-.28-.17-.56-.34-.84-.52-.14-.09-.28-.18-.42-.27-.24-.16-.49-.33-.73-.5-.16-.11-.31-.22-.47-.34,0,0-.02-.01-.03-.02-.1-.08-.2-.16-.3-.23-.1-.08-.2-.16-.31-.23-.19-.15-.38-.3-.57-.45-.15-.12-.3-.25-.45-.37-.02,0-.03-.02-.04-.04-.22-.18-.43-.37-.64-.56-.13-.12-.26-.24-.39-.36-.23-.22-.46-.43-.69-.66-.1-.1-.2-.21-.31-.31-.24-.24-.48-.49-.71-.75-.08-.09-.17-.19-.25-.28-.24-.27-.48-.54-.71-.82-.07-.09-.15-.18-.22-.27-.23-.28-.46-.57-.67-.86-.08-.1-.15-.2-.22-.3-.21-.29-.41-.58-.61-.87-.08-.12-.16-.25-.25-.37-.18-.27-.36-.55-.53-.83-.1-.16-.19-.32-.29-.48-.14-.25-.29-.49-.43-.75-.12-.21-.23-.43-.34-.64-.11-.21-.21-.41-.32-.62-.14-.28-.27-.56-.39-.85-.07-.15-.14-.3-.2-.46-.15-.35-.3-.71-.43-1.08-.04-.09-.07-.18-.1-.27-.16-.43-.31-.86-.45-1.3-.01-.03-.02-.07-.03-.1-.3-.96-.56-1.93-.77-2.94,0,0,0-.02,0-.03-.09-.42-.16-.85-.23-1.27-.02-.1-.04-.2-.05-.31-.05-.28-.08-.57-.11-.85-.03-.25-.07-.5-.09-.75-.01-.14-.02-.28-.04-.41-.03-.39-.06-.79-.08-1.19,0-.04,0-.09,0-.13-.02-.48-.03-.95-.03-1.43,0-.03,0-.05,0-.08,0-.48.02-.96.04-1.43,0-.06,0-.12.01-.17.03-.44.06-.87.1-1.3.01-.12.03-.24.04-.35.04-.37.09-.73.14-1.09.03-.18.06-.37.09-.55.05-.29.1-.58.16-.87.05-.24.11-.48.16-.72.05-.22.1-.45.16-.67.07-.29.15-.58.24-.87.05-.17.1-.34.14-.51.1-.33.21-.65.32-.97.04-.13.09-.26.13-.39.12-.34.25-.68.39-1.02.04-.1.08-.21.13-.32.14-.35.29-.69.45-1.03.05-.1.09-.2.14-.3.16-.33.32-.66.49-.99.05-.1.11-.21.16-.32.16-.31.34-.62.51-.92.07-.12.14-.24.21-.37,0,0,0-.01.01-.02-.82.51-1.66,1-2.56,1.47-2.75,1.4-5.36,3-7.42,5.33-2.14,2.42-3.58,5.45-3.65,8.71-.06,3.21.64,6.94,2.31,9.7,2.2,3.63,5.76,6.16,9.2,8.51,2.94,2.01,6.15,3.39,9.18,5.35,1.62,1.05,3.13,2.31,4.43,3.74,2.72,2.98,5.87,5.52,9.07,7.91,3.46,2.59,8.27,2.8,12.35,1.88,5.59-1.26,10.05-7.74,11.74-12.87.12-.36.24-.73.36-1.09-.05.04-.1.08-.16.13-.29.24-.59.47-.9.7Z"/>
              <path class="cls-1" d="M93.85,149.22c.25.25.5.51.73.77.08.08.15.17.23.26.25.28.49.56.73.85.07.08.13.16.2.25.24.29.47.59.7.89.07.09.13.18.2.27.22.3.43.6.64.9.08.11.15.22.22.33.19.29.37.57.55.87.09.15.18.3.26.45.15.26.3.52.45.79.11.2.21.4.32.6.11.22.23.44.34.66.13.27.25.54.37.8.07.17.15.33.22.5.14.33.28.68.41,1.02.04.11.09.21.13.32.15.41.29.82.43,1.23.02.05.04.11.05.16.15.46.28.92.4,1.38,0,.02.01.04.02.06.12.46.23.93.33,1.41,0,.04.02.07.02.11.08.4.15.79.22,1.18.02.13.05.26.07.39.04.26.07.51.1.77.03.28.07.55.1.83.01.11.02.22.03.34.04.42.07.84.09,1.26,0,.02,0,.04,0,.06.02.5.03,1,.03,1.5,0,0,0,.01,0,.02,0,.5-.02,1-.04,1.5,0,.04,0,.08,0,.12-.03.45-.06.91-.11,1.36-.01.1-.02.2-.04.29-.04.38-.09.77-.15,1.15-.03.16-.06.33-.08.49-.05.31-.1.62-.17.92-.05.23-.1.45-.15.68-.05.24-.11.48-.17.71-.07.28-.15.55-.22.83-.05.18-.1.37-.16.55-.1.31-.2.62-.3.93-.05.14-.1.29-.15.43-.12.33-.24.66-.37.98-.05.12-.09.24-.14.36-.14.33-.28.66-.43.99-.05.11-.1.22-.15.33-.08.16-.16.32-.24.47.36-.3.72-.6,1.06-.92,5.79-5.32,10.4-14.37,6.74-22.02-1.88-3.94-4.93-7.76-8.96-9.66-1.59-.75-3.21-1.43-4.8-2.15.04.04.09.08.13.13.1.1.19.19.29.29Z"/>
              <path class="cls-3" d="M109.46,159.99c-2-4.19-5.24-8.24-9.52-10.26-4.43-2.09-9.13-3.68-12.8-6.8-2.67-2.33-4.25-5.55-6.51-8.23-4.9-5.84-15.27-6.35-21.03-1.58-3.76,3.12-4.91,7.54-6.72,11.83-1.03,2.44-2.43,4.41-4.13,6.07-1.85,1.8-4.06,3.23-6.55,4.5-2.92,1.49-5.69,3.19-7.88,5.67-2.27,2.57-3.81,5.79-3.88,9.26-.07,3.41.68,7.37,2.45,10.31,2.33,3.86,6.12,6.54,9.78,9.04,3.12,2.13,6.54,3.6,9.75,5.68,1.73,1.12,3.32,2.45,4.71,3.97,2.89,3.16,6.24,5.87,9.64,8.41,3.67,2.75,8.79,2.97,13.12,2,5.94-1.34,10.68-8.22,12.48-13.67.73-2.2,1.44-4.33,2.79-6.22-.14.17-.28.33-.43.49-.11.12-.22.24-.33.36-.23.24-.45.48-.69.72-.09.09-.19.18-.28.28-.26.25-.52.5-.78.74-.08.08-.17.15-.25.22-.04.04-.08.07-.12.11-.24.21-.48.42-.73.63-.03.02-.06.05-.08.07-.12.36-.24.72-.36,1.09-1.7,5.12-6.16,11.6-11.74,12.87-4.08.92-8.89.71-12.35-1.88-3.2-2.39-6.35-4.93-9.07-7.91-1.3-1.43-2.81-2.69-4.43-3.74-3.03-1.96-6.24-3.34-9.18-5.35-3.44-2.35-7.01-4.87-9.2-8.51-1.67-2.76-2.37-6.49-2.31-9.7.06-3.27,1.51-6.29,3.65-8.71,2.06-2.33,4.67-3.93,7.42-5.33.9-.46,1.75-.95,2.56-1.47.16-.27.33-.54.5-.8.09-.14.18-.29.28-.43.16-.24.32-.47.49-.71.12-.17.24-.34.37-.51.15-.2.3-.39.45-.59.15-.2.31-.4.47-.59.13-.16.26-.32.4-.47.19-.22.38-.44.57-.66.1-.11.2-.22.3-.32.01-.02.03-.03.04-.05.22-.24.45-.48.68-.71.1-.1.19-.19.29-.29.25-.25.51-.5.77-.73.08-.08.17-.15.26-.23.28-.25.56-.49.84-.73.08-.07.16-.13.25-.2.16-.13.32-.25.48-.38.02-.01.04-.03.06-.05,0,0,0-.02.01-.03,1.71-4.04,2.79-8.2,6.33-11.13,5.42-4.49,15.18-4.01,19.79,1.48,1.58,1.88,2.81,4.04,4.37,5.92.12.05.25.1.37.16.11.05.21.09.32.14.33.15.65.32.97.48.11.06.22.11.33.17.31.16.61.33.91.5.13.07.25.14.38.22.27.16.54.33.81.5.02.02.04.03.07.04.13.08.25.16.38.24.24.16.47.32.7.48.18.12.35.25.52.37.2.14.39.29.58.44.2.16.4.31.6.47.16.13.31.26.47.39.22.19.45.38.67.58.12.11.24.22.36.34.2.18.39.37.58.55,1.59.72,3.21,1.4,4.8,2.15,4.03,1.9,7.08,5.72,8.96,9.66,3.66,7.65-.95,16.7-6.74,22.02-.34.32-.7.62-1.06.92-.08.16-.16.33-.24.49-.06.12-.12.23-.18.35-.16.3-.33.6-.49.89-.07.13-.15.26-.23.39-.16.27-.33.53-.49.8-.1.15-.19.31-.3.46-.15.23-.31.46-.47.69-.13.18-.25.36-.38.54-.12.16-.25.33-.37.49,1.82-1.97,4.08-3.42,6.06-5.23,6.15-5.66,11.05-15.27,7.16-23.4Z"/>
              <path class="cls-3" d="M95.15,190.4c-.09,0-.19-.03-.27-.09-.19-.15-.22-.41-.08-.6l.09-.13c.06-.09.13-.18.2-.27.26-.34.54-.66.83-.97.16-.17.42-.19.6-.04.18.15.21.41.07.6,0,0-.07.09-.07.09-.16.21-.32.41-.49.62l-.55.65c-.09.1-.21.15-.33.15Z"/>
            </g>
            <path class="cls-3" d="M51.82,148.24c-.59-1.02-1.72-1.68-2.98-1.62-1.8.09-3.19,1.61-3.11,3.41.06,1.36.95,2.49,2.16,2.92l-1.04,1.3c-1.54-.76-2.63-2.31-2.72-4.15-.12-2.69,1.95-4.96,4.64-5.09,1.72-.08,3.28.75,4.2,2.05l-1.15,1.18Z"/>
            <path class="cls-3" d="M91.34,193.48c.47,1.08,1.51,1.87,2.77,1.95,1.8.12,3.35-1.24,3.48-3.03.09-1.36-.66-2.58-1.81-3.15l1.19-1.17c1.44.93,2.35,2.59,2.23,4.43-.18,2.68-2.51,4.71-5.19,4.53-1.72-.12-3.17-1.11-3.94-2.52l1.28-1.04Z"/>
            <path class="cls-3" d="M89.62,145.84c.87-.8,1.27-2.04.94-3.26-.47-1.74-2.26-2.77-4-2.3-1.31.36-2.22,1.47-2.39,2.74l-1.49-.74c.41-1.67,1.69-3.07,3.46-3.55,2.6-.7,5.27.83,5.97,3.43.45,1.66-.02,3.36-1.1,4.55l-1.4-.87Z"/>
            <path class="cls-3" d="M53.84,194.28c-.92.74-1.4,1.96-1.15,3.19.36,1.77,2.08,2.91,3.85,2.55,1.33-.27,2.31-1.33,2.56-2.58l1.45.83c-.51,1.64-1.88,2.95-3.68,3.32-2.64.54-5.21-1.16-5.74-3.8-.34-1.69.23-3.35,1.38-4.47l1.34.96Z"/>
          </g>
          <g>
            <path class="cls-3" d="M220.35,216.57c.07.15.04.33-.06.45-.76.94-5.08,4.38-6.72,5.53-2.72,1.73-6.28,3-8.78,3.75-1.38.42-2.82.79-4.15,1.08-3.25.81-6.98.91-7.14.91-.16,0-.31-.08-.39-.21-.73-1.24-2.17-3.71-3.54-6.33.25.96.48,1.92.7,2.87.09.04.16.1.21.19.08.16.06.35-.05.48.25,1.07.48,2.13.69,3.19.03.16-.03.33-.16.43-.02.02-.6.46-2.39,1.67-2.04,1.37-4.47,2.47-7.44,3.36h0c-2.07.62-4.19,1.09-5.98,1.46-2.73.56-5.48.48-8.66-.28-.59-.14-1.18-.28-1.77-.41l-.9-.21c-.17-.04-.31-.18-.33-.36-1.35-8.43-6.35-35.94-7.34-41.37l-.09-.5-1.74-5.76c-.04-.12-.02-.24.04-.35.06-.11.16-.18.28-.21,3.08-.71,6.29-1.51,9.63-2.4.02-.01.04-.03.07-.04.04-.01.08,0,.11-.01,1.53-.41,3.08-.84,4.66-1.28.05-.11.14-.19.27-.23.13-.04.25-.01.36.05,1.45-.41,2.91-.84,4.39-1.28.04-.14.14-.25.29-.3.15-.04.29,0,.41.09.37-.11.73-.22,1.1-.33,1.11-.33,2.19-.67,3.24-.99.04-.13.14-.24.28-.29.14-.04.28,0,.39.08,1.53-.48,3-.95,4.4-1.4.05-.09.14-.16.25-.2.1-.03.21-.02.3.02,8.29-2.7,13.89-4.79,13.96-4.82.11-.04.24-.03.34.02.11.05.19.15.23.26l2.01,6.12c.21.46.48.97.75,1.46.13.25.27.5.4.74.74,1.42,1.49,2.84,2.23,4.25l.18.34c1.1,2.07,2.21,4.18,3.31,6.3.01.02.03.04.04.06,0,0,0,.02,0,.03,1.74,3.34,3.48,6.71,5.13,10.1.9,1.84,1.8,3.61,2.67,5.34,1.55,3.08,3.02,5.98,4.33,8.9ZM212.56,202.73c-1.61-3.28-3.29-6.55-4.98-9.8-.34.13-.68.27-1.02.37-9.75,2.94-15.73-7.97-16.8-10.13-.99.37-1.97.72-2.93,1.06-.05.1-.14.18-.26.22-.1.03-.21.02-.3-.02-2.51.88-4.93,1.69-7.23,2.42l9.18,29.93,6.13-1.53c.23-.06.47.08.53.32.06.23-.07.46-.3.52,0,0-.01,0-.02,0l-6.08,1.51c.99,2.17,2.31,4.64,3.45,6.67,2-.24,14.77-2.08,25.91-10.99-.83-1.71-1.7-3.44-2.61-5.23-.87-1.73-1.77-3.5-2.67-5.35ZM163.61,229.72c1.61.45,11.32,2.63,25.8-4.85-.54-2.3-1.15-4.62-1.86-7.03l-5.71,1.42c-.23.06-.47-.08-.53-.32-.06-.24.06-.48.32-.53l5.72-1.42-9.16-29.88c-.68.21-1.36.43-2.02.62-3.58,1.08-6.8,1.96-9.55,2.66-.05.06-.12.12-.2.14-.04.01-.08,0-.12.01.49,2.31,1.99,12.17-6.64,16.87,1.37,7.64,2.94,16.41,3.95,22.31ZM174.28,181.67c-1.42.42-2.82.83-4.21,1.22l1.58,5.25c1.34-.37,2.74-.78,4.21-1.22l-1.58-5.25ZM169.22,183.13c-1.43.4-2.84.79-4.23,1.16l1.57,5.21c1.31-.33,2.73-.71,4.24-1.13l-1.58-5.25ZM164.15,184.52c-1.44.38-2.85.75-4.25,1.1l1.55,5.12c1.23-.28,2.66-.62,4.27-1.02l-1.57-5.2ZM195.73,179.93l-1.43-4.74c-1.19.42-2.59.9-4.15,1.43l1.49,4.92c1.34-.51,2.71-1.05,4.09-1.61ZM189.32,176.9c-1.29.43-2.69.9-4.16,1.38l1.53,5.08c1.35-.48,2.72-.98,4.12-1.51l-1.49-4.95ZM184.33,178.55c-1.33.43-2.73.88-4.18,1.33l1.57,5.19c1.35-.44,2.73-.92,4.15-1.41l-1.54-5.1ZM201.67,181.67c-.13-.24-.26-.49-.39-.73-.27-.5-.55-1.03-.8-1.56l-.14-.43c-1.2.51-2.39,1.01-3.57,1.49,0,.18-.12.35-.31.41-.16.05-.32,0-.43-.11-1.85.75-3.67,1.46-5.45,2.12.51,1.03,2.01,3.8,4.38,6.16,3.75,3.76,7.86,4.8,12.21,3.13-1.04-1.98-2.07-3.95-3.1-5.89l-.18-.34c-.75-1.42-1.49-2.84-2.24-4.26ZM198.6,173.66c-.59.22-1.8.65-3.47,1.24l1.42,4.7c1.16-.48,2.34-.96,3.52-1.47l-1.47-4.47ZM176.15,181.11c-.34.1-.69.2-1.03.31l1.58,5.24c1.35-.41,2.74-.85,4.18-1.32l-1.57-5.2c-1.03.32-2.08.64-3.16.97ZM155.27,186.73l1.5,4.98c.6-.11,1.91-.37,3.82-.79l-1.54-5.11c-1.28.32-2.54.62-3.78.91ZM159.5,206.5c7.98-4.55,6.41-13.75,5.94-15.81-4.39,1.09-7.4,1.68-8.46,1.88v.06c.39,2.1,1.38,7.53,2.52,13.87ZM190.2,228.39c-.18-.88-.37-1.77-.57-2.65-3.34,1.71-6.44,2.94-9.22,3.78-8.82,2.66-14.69,1.64-16.63,1.15.2,1.16.37,2.2.51,3.05l.61.14c.59.14,1.19.27,1.78.41,3.05.72,5.69.81,8.28.27,1.78-.37,3.87-.83,5.91-1.44,2.88-.87,5.24-1.93,7.2-3.25,1.17-.79,1.82-1.25,2.13-1.47ZM219.43,216.67c-.39-.85-.79-1.71-1.2-2.57-6.21,4.92-12.9,7.7-18.01,9.24-3.71,1.12-6.59,1.59-7.83,1.76.52.92.99,1.72,1.33,2.31.9-.03,4.02-.2,6.71-.87,1.33-.29,2.74-.66,4.1-1.07,2.45-.74,5.92-1.97,8.55-3.64,1.62-1.14,5.34-4.12,6.35-5.16Z"/>
            <path class="cls-3" d="M189.04,195.3c-.51-1.24-1.04-2.52-1.62-3.76-1.25-2.72-2.67-4.43-4.36-5.25-.44-.21-.96-.03-1.17.41-.21.44-.03.96.41,1.17,1.31.63,2.46,2.07,3.53,4.41.57,1.21,1.09,2.47,1.59,3.69.82,2,1.67,4.06,2.78,5.98.21.36.63.52,1.01.4.06-.02.13-.05.19-.08.42-.24.56-.78.32-1.2-1.05-1.82-1.84-3.74-2.67-5.77Z"/>
            <path class="cls-3" d="M175.58,208.29c.13.02.26,0,.38-.03.32-.1.57-.37.62-.72.38-2.7-.54-5.39-1.44-8-1.14-3.3-2.21-6.41-.66-9.31.23-.43.07-.96-.36-1.19-.42-.23-.96-.07-1.19.36-1.91,3.58-.66,7.21.55,10.71.87,2.52,1.69,4.9,1.36,7.18-.07.48.26.92.74.99Z"/>
          </g>
          <g>
            <path class="cls-3" d="M84.5,282.4c-1.11.47-2.25.45-2.9-.05-.19-.15-.33-.33-.42-.54-.21-.49-.09-1.09.33-1.63.36-.47.92-.88,1.57-1.16,1.44-.6,2.93-.33,3.32.6.21.49.09,1.09-.33,1.63-.36.47-.92.88-1.57,1.16ZM85.27,280.63c.19-.24.26-.48.2-.62-.02-.05-.06-.09-.11-.13-.29-.22-1.06-.27-1.89.08-.49.2-.91.51-1.16.84-.19.24-.26.48-.2.62.14.32,1.01.46,2,.05.49-.2.91-.51,1.16-.84Z"/>
            <path class="cls-3" d="M113.02,275.67c-.12.16-.32.23-.51.19-.17-.04-.31-.13-.62-.36-.77,1.2-2.39,3.53-4.3,5.21-2.71,4.44-6.44,10.13-8.8,12.82-2.42,2.75-6.37,2.84-9.73.26-.11-.09-.23-.18-.34-.27-4.07-3.39-6.24-6.55-7.18-8.14-1.23.03-2.33-.24-3.07-.81-.38-.29-.65-.64-.82-1.05-.42-1-.16-2.19.73-3.35.83-1.08,2.13-2.03,3.65-2.67,2.51-1.06,5.15-1.04,6.55.03.37.29.65.64.82,1.05.42,1,.16,2.19-.73,3.35-.37.49-.85.94-1.39,1.36.5.99,1.09,1.92,1.71,2.7,1.13,1.41,3.09,2.95,4.74,2.97.77.01,1.41-.29,1.95-.94.8-.94,1.59-2,2.58-3.43.63-.92,1.25-1.86,1.86-2.8-.42-.23-.84-.49-1.23-.79h0c-.8-.61-1.43-1.32-1.83-2.04-.8-1.35-1.03-3.1-1.25-4.78-.26-1.98-.51-3.85-1.6-5.13-.37-.41-.78-.79-1.2-1.11-1.91-1.47-4.17-1.83-6.52-1.05-.52.18-1.08.39-1.68.62-2.9,1.11-6.52,2.5-9.23,1.1-.5-.25-.93-.51-1.31-.81-1.8-1.38-2.17-3.19-2.29-4.78-.11-1.9.72-5.63,2.22-9.25-.55-.18-.94-.3-.94-.3-.06-.02-.12-.05-.16-.08-.14-.1-.21-.27-.2-.45.13-1.3,1.32-4.82,1.95-6.43.09-.23.34-.37.59-.31,0,0,1.68.4,2.85.72.38-.42.76-.8,1.17-1.13,1.68-1.36,3.41-1.82,5.15-1.34.13.04,13.27,3.78,25.1,12.87.91.7,1.8,1.42,2.65,2.15l.12.11c.16.14.33.29.5.44l8.5-14.72c-.49-.64-.57-1.52-.15-2.24.2-.35.49-.62.84-.79-.02-.39.07-.78.27-1.13.2-.34.49-.62.84-.79-.02-.39.07-.78.27-1.13.2-.34.49-.62.84-.79-.02-.39.07-.78.27-1.13.27-.47.71-.8,1.23-.94.52-.14,1.07-.07,1.54.2l3.61,2.08c.98.56,1.29,1.81.74,2.77-.2.35-.49.62-.84.79.02.39-.07.78-.26,1.12-.2.34-.49.62-.84.79.02.39-.07.78-.27,1.13-.2.35-.49.62-.84.79.03.39-.07.78-.26,1.12-.27.47-.71.8-1.23.94-.26.07-.53.09-.79.05l-9.74,16.87c.06.35.09.71.04,1.07-.05.54-.23,1.16-.48,1.82.16.12.33.26.51.4.26.21.5.4.68.52.23.13.29.47.13.71-.93,1.35-4.37,5.95-4.52,6.14ZM115.82,268.86c-.93,2.02-2.37,4.26-3.37,5.79.01.01.03.02.04.03.77-1.04,2.95-3.96,3.94-5.34-.1-.08-.21-.17-.33-.26-.09-.08-.19-.15-.28-.22ZM128.16,245.12c.21-.08.39-.21.5-.41.11-.19.13-.41.1-.63l-4.97-2.87c-.21.08-.39.21-.5.41-.11.19-.13.42-.1.63l4.97,2.87ZM124.9,239.29c-.21.08-.39.21-.5.41-.11.2-.13.41-.1.64l4.97,2.87c.21-.08.39-.21.5-.41.11-.2.13-.41.1-.63l-4.97-2.87ZM125.51,237.78c-.11.19-.13.42-.1.64l4.97,2.87c.21-.08.39-.21.5-.41.25-.44.14-1-.26-1.31-.03-.03-.07-.05-.11-.07l-3.61-2.09c-.23-.13-.51-.17-.77-.1-.26.07-.48.24-.61.47ZM122.56,244.92l3.47,2c.15-.09.34-.1.51,0,.09.05.14.13.19.21.07,0,.15,0,.22-.01.26-.07.48-.24.62-.47.11-.19.13-.41.1-.63l-4.97-2.87c-.21.08-.39.21-.5.41-.28.48-.12,1.1.37,1.38ZM113.73,260.68c.97.89,1.92,1.93,2.49,3.07l9.23-15.99-3.2-1.84-8.53,14.77ZM74.58,252.83c.83-1.85,1.83-3.62,2.96-5.07-.7-.18-1.46-.37-1.93-.48-.61,1.63-1.42,4.1-1.66,5.34.17.05.39.12.63.2ZM103.76,281.65c2.43-.22,5.45-3.76,7.48-7l.15-.24c1.33-2.02,4.09-6.22,4.31-8.44.26-2.08-2.24-4.22-3.9-5.64l-.12-.11c-.83-.71-1.71-1.42-2.61-2.11-11.68-8.98-24.63-12.66-24.76-12.7-1.4-.38-2.83,0-4.24,1.15-4.45,3.62-7.28,13.37-7.1,16.38.19,2.49,1.02,3.74,3.05,4.76,2.31,1.2,5.69-.1,8.41-1.14.61-.23,1.19-.45,1.72-.64,3.27-1.08,6.38-.21,8.81,2.45,1.3,1.52,1.58,3.62,1.85,5.66.22,1.66.42,3.22,1.13,4.41.33.6.89,1.22,1.57,1.74,1.34,1.03,2.97,1.58,4.26,1.45ZM79.1,283.76c1.1.85,3.38.81,5.54-.1,1.37-.57,2.52-1.41,3.24-2.35.66-.86.88-1.69.6-2.34-.1-.25-.27-.46-.51-.64-1.1-.85-3.38-.81-5.54.09-1.37.57-2.52,1.41-3.24,2.35-.66.86-.88,1.69-.6,2.34.1.24.27.46.51.64ZM105.51,282.15c-.55.27-1.1.46-1.65.51-.87.09-1.85-.07-2.81-.44-.64.99-1.29,1.98-1.96,2.96-1.01,1.46-1.82,2.54-2.64,3.51-.74.88-1.66,1.31-2.74,1.3-1.21-.02-2.51-.65-3.64-1.52-.72-.55-1.36-1.2-1.88-1.84-.64-.8-1.24-1.75-1.76-2.76-.45.27-.91.53-1.41.74-.79.33-1.58.54-2.35.66,1.01,1.63,3.07,4.44,6.71,7.47,3.02,2.54,6.51,2.57,8.66.12,1.98-2.26,4.97-6.71,7.48-10.71Z"/>
            <path class="cls-3" d="M108.94,274.96c-.43.52-.85,1.04-1.24,1.55-1.98,2.58-4.26,3.45-6.42,2.46-1.51-.69-2.29-3.56-2.86-5.81-.16-.65-.31-1.21-.44-1.62-1.05-3.33-1.97-5.11-4.64-6.96-2.32-1.58-4.49-1.12-7.1-.37-.46.12-.94.28-1.43.44-1.03.34-2.09.69-3.08.77-.39.03-.83.12-1.28.22-.97.2-2.07.43-3.09.14-.31-.09-.59-.23-.84-.42h0c-1.74-1.34-1.25-4.59-.95-6.54.24-1.52.69-3.08,1.38-4.81l.26-.66c1.05-2.66,2.49-6.3,6.1-6.14l.36.02c2.14.17,4.3.98,6.21,1.7l.44.16c2.53.94,5.14,1.92,7.49,3.23,3.11,1.73,5.98,3.59,8.3,5.37,2.58,1.98,4.5,3.88,5.71,5.64,3.01,4.37-.12,8.22-2.88,11.61ZM110.98,263.92c-1.15-1.67-3-3.49-5.5-5.41-2.28-1.75-5.11-3.58-8.17-5.29-2.28-1.27-4.86-2.23-7.35-3.16l-.44-.17c-1.94-.73-3.94-1.48-5.93-1.63l-.33-.02c-2.88-.13-4.06,2.86-5.1,5.5l-.27.67c-.67,1.65-1.1,3.14-1.31,4.54-.25,1.65-.71,4.65.56,5.62.15.11.31.19.5.25.78.22,1.71.03,2.6-.16.47-.1.95-.2,1.41-.24.88-.08,1.88-.41,2.85-.73.51-.16,1-.33,1.47-.45,2.75-.8,5.26-1.32,7.94.51,2.96,2.05,3.91,3.94,5.03,7.47.15.43.29,1.01.46,1.69.45,1.79,1.07,4.23,2.07,5,.07.06.15.1.23.14,2.16,1,4.02-.62,5.19-2.15.4-.52.83-1.05,1.26-1.58,2.78-3.42,5.41-6.65,2.83-10.4Z"/>
          </g>
          <path class="cls-3" d="M75.54-5.05c-.35,2.74-.69,5.56-.76,8.35.93-2.23,1.98-4.21,3.21-6.46.1-.18.32-.27.52-.21.2.06.33.26.3.47-.35,2.93-.51,4.79-.64,6.28-.11,1.22-.2,2.27-.36,3.54-.33,3.18-.46,5.1-.4,8.22,4.56.88,6.81,5.34,8.27,9.29,1.44,4.06,2.55,8.18,3.22,11.92.41,2.52.35,6.22-1.17,8.38-.87,1.3-2.08,2.48-3.58,3.48-2.57,1.71-5.83,2.77-8.92,2.92-3.34.1-6.53-.74-8.98-2.39-2.25-1.44-2.9-4.21-3.46-6.66l-.08-.35c-.78-3.49-1.5-6.74-1.84-10.14l-.04-.58c-.22-3.16-.5-7.1.99-9.96.75-1.39,1.71-2.46,2.94-3.27,0,0,.01,0,.02,0-.76-1.09-1.27-1.78-1.51-2.04-1.95-2.08-3.35-3.46-7.57-5.55-.18-.09-.27-.28-.23-.48.04-.19.2-.34.4-.35.64-.04,1.29-.06,1.95-.05-2.25-1.88-4.63-3.83-5.43-4.32-.18-.11-.25-.33-.19-.52.07-.2.27-.32.47-.29,3,.4,5.12,1.06,7.11,1.73-1.49-2.01-2.91-3.99-4.2-5.81-.12-.17-.1-.41.05-.56.15-.16.39-.17.56-.05.79.55,1.54,1.12,2.27,1.7-1.36-2.13-2.99-4.41-5.08-7.13-.14-.18-.12-.43.05-.59.16-.16.42-.16.59,0,1.33,1.18,2.87,2.27,4.36,3.31.66.46,1.31.92,1.94,1.39,1.09.78,2.11,1.63,3.1,2.46.29.24.57.48.86.72-.15-4.4.8-8.37,1.72-12.21l.16-.68c.05-.2.22-.34.43-.34.2,0,.38.14.43.34.27,1.17.49,2.37.71,3.65.23,1.29.46,2.62.78,4.05.39,1.75.83,3.16,1.48,4.74.92-2.52,3.07-7.34,5.25-9.85.13-.14.33-.19.51-.11.18.08.28.26.26.45-.13,1.2-.28,2.4-.44,3.61ZM59.2,9.32c1.15.06,2.31.18,3.47.37-.67-.85-1.33-1.71-1.98-2.57l-.7-.23c-1.68-.57-3.42-1.15-5.67-1.57,1.07.84,2.65,2.14,4.88,4ZM65.23,18.51c-.2.13-.38.28-.57.43l.8.67,1.28-1.53-.29-.24c-.43.2-.84.41-1.23.67ZM79.45,16.81l-.12.15,1.53,1.28.18-.21c-.48-.47-1.01-.88-1.59-1.21ZM88.09,36.91l-.8.96.94.79c-.02-.6-.07-1.19-.14-1.75ZM88.23,39.52l-1.37-1.15-1.53,1.83,1.59,1.33,1.28-1.53c.01-.16.03-.32.03-.48ZM86.17,45.31l-.91-.77-1.21,1.45.76.64c.51-.41.96-.85,1.37-1.32ZM84.75,44.12l-1.6-1.33-1.21,1.44,1.6,1.34,1.21-1.45ZM81.19,48.38l-1.6-1.34-1.28,1.53,1.1.92c.41-.13.81-.27,1.21-.43l.57-.68ZM76.09,50.18l1.29-1.53-1.71-1.43-1.44,1.72,1.51,1.27c.12,0,.23-.02.35-.03ZM72.41,50.1l.9-1.07-1.53-1.28-1.33,1.59.61.51c.44.1.89.19,1.35.25ZM66.76,48.04l.46-.55-1.45-1.21-.37.44c.36.51.79.95,1.32,1.29.01,0,.03.02.04.02ZM62.41,36.15h.01s-.02-.03-.02-.03c0,0,0,.02,0,.03ZM61.81,32.18h0s-.01-.02-.01-.02c0,0,0,.01,0,.02ZM62.23,35.12l.61.51,1.28-1.53-1.8-1.51-.4.48c.09.68.2,1.37.31,2.05ZM61.54,28.54l.26-.31-.27-.23c0,.18,0,.36.01.54ZM62.22,27.73l1.21-1.45-1.58-1.33-.25.3c-.06.62-.08,1.25-.09,1.88l.71.59ZM63.52,21.93l1.52-1.82-.88-.74c-.56.53-1.04,1.16-1.46,1.88l.81.68ZM64.02,22.36l1.59,1.33,1.52-1.82-1.59-1.33-1.52,1.82ZM72.77,16.15l-1.08,1.29,1.45,1.21,1.23-1.47-1.31-1.09c-.09.02-.2.04-.29.06ZM75.29,17.1l1.8,1.51,1.31-1.57-1.27-1.06c-.27-.04-.54-.08-.83-.09l-1.01,1.21ZM83.27,21.12l-1.31,1.57,1.59,1.33.7-.84c-.3-.7-.62-1.39-.97-2.06ZM87.9,35.78l-1.56-1.31-1.28,1.53,1.72,1.44,1.17-1.39c-.02-.09-.03-.18-.05-.27ZM64.2,44.11l1.48,1.24,1.33-1.59-1.58-1.33-1.27,1.52c.02.05.03.1.05.15ZM71.25,42.67l1.28-1.53-1.45-1.21-1.28,1.53,1.45,1.21ZM69.38,41.96l-1.44,1.72,1.45,1.21,1.44-1.72-1.45-1.21ZM75.12,25.09l-1.53-1.28-1.28,1.53,1.53,1.28,1.28-1.53ZM74.34,27.04l1.83,1.53,1.28-1.53-1.83-1.53-1.28,1.53ZM71.89,25.84l-1.53,1.82,1.53,1.28,1.53-1.82-1.53-1.28ZM72.4,29.37l1.83,1.53,1.53-1.82-1.83-1.53-1.53,1.82ZM73.43,37.12l1.45,1.21,1.21-1.45-1.45-1.21-1.21,1.45ZM74.14,35.25l-1.58-1.33-1.21,1.45,1.59,1.33,1.21-1.45ZM75.38,38.75l1.8,1.51,1.21-1.45-1.8-1.51-1.21,1.45ZM78.82,38.31l1.33-1.59-1.8-1.51-1.33,1.59,1.8,1.51ZM77.84,34.79l-1.45-1.21-1.33,1.59,1.45,1.21,1.33-1.59ZM75.89,33.15l-1.59-1.33-1.33,1.59,1.58,1.33,1.33-1.59ZM76.31,32.65l1.53-1.83-1.59-1.33-1.53,1.83,1.59,1.33ZM71.98,29.87l-1.33,1.59,1.83,1.53,1.33-1.59-1.83-1.53ZM70.22,31.97l-1.21,1.45,1.83,1.53,1.21-1.45-1.83-1.53ZM68.59,33.92l-1.51,1.8,1.83,1.53,1.51-1.8-1.83-1.53ZM69.41,37.67l1.59,1.33,1.51-1.8-1.59-1.33-1.51,1.8ZM68.99,38.18l-1.28,1.53,1.58,1.33,1.28-1.53-1.59-1.33ZM72.95,40.63l1.51-1.8-1.45-1.21-1.51,1.8,1.45,1.21ZM73.45,41.06l1.8,1.51,1.51-1.8-1.8-1.51-1.51,1.8ZM75.76,42.99l1.53,1.28,1.51-1.8-1.53-1.28-1.51,1.8ZM79.22,41.96l1.21-1.45-1.53-1.28-1.21,1.45,1.53,1.28ZM80.85,40.01l1.33-1.59-1.53-1.28-1.33,1.59,1.53,1.28ZM82.6,37.92l1.53-1.83-1.53-1.28-1.53,1.83,1.53,1.28ZM82.1,34.39l-1.8-1.51-1.53,1.83,1.8,1.51,1.53-1.83ZM79.79,32.46l-1.45-1.21-1.53,1.83,1.45,1.21,1.53-1.82ZM80.21,31.95l1.28-1.53-1.45-1.21-1.28,1.53,1.45,1.21ZM79.54,28.79l-1.59-1.33-1.28,1.53,1.59,1.33,1.28-1.53ZM79.97,28.29l1.51-1.8-1.58-1.33-1.51,1.8,1.59,1.33ZM79.38,24.74l-1.83-1.53-1.51,1.8,1.83,1.53,1.51-1.8ZM79.81,24.23l1.23-1.46-1.83-1.53-1.23,1.47,1.83,1.53ZM78.7,20.81l-1.53-1.28-1.23,1.47,1.53,1.28,1.23-1.47ZM75.52,21.5l-1.51,1.8,1.53,1.28,1.51-1.8-1.53-1.28ZM75.02,21.08l-1.8-1.51-1.51,1.8,1.8,1.51,1.51-1.8ZM71.29,21.88l-1.28,1.53,1.8,1.51,1.28-1.53-1.8-1.51ZM69.58,23.91l-1.53,1.82,1.8,1.51,1.53-1.82-1.8-1.51ZM69.08,23.49l-1.45-1.21-1.53,1.82,1.45,1.21,1.53-1.82ZM65.69,24.61l-1.33,1.59,1.45,1.21,1.33-1.59-1.45-1.21ZM66.3,27.83l1.8,1.51,1.33-1.59-1.8-1.51-1.33,1.59ZM68.61,29.76l1.53,1.28,1.33-1.59-1.53-1.28-1.33,1.59ZM68.19,30.27l-1.21,1.45,1.53,1.28,1.21-1.45-1.53-1.28ZM66.56,32.22l-1.51,1.8,1.53,1.28,1.51-1.8-1.53-1.28ZM64.63,34.52l-1.28,1.53,1.53,1.28,1.28-1.53-1.53-1.28ZM65.38,37.75l1.83,1.53,1.28-1.53-1.83-1.53-1.28,1.53ZM64.96,38.26l-1.44,1.72,1.83,1.53,1.44-1.73-1.83-1.53ZM65.85,41.93l1.59,1.33,1.44-1.72-1.58-1.33-1.44,1.72ZM66.19,45.77l1.45,1.21,1.33-1.58-1.45-1.21-1.33,1.59ZM68.14,47.41l1.8,1.51,1.33-1.59-1.8-1.51-1.33,1.59ZM71.69,46.82l1.44-1.72-1.8-1.51-1.44,1.72,1.8,1.51ZM73.56,44.6l1.28-1.53-1.8-1.51-1.28,1.53,1.8,1.51ZM74.06,45.02l1.53,1.28,1.28-1.53-1.53-1.28-1.28,1.53ZM76.09,46.72l1.71,1.43,1.28-1.53-1.71-1.43-1.28,1.53ZM79.5,46.12l1.51-1.8-1.71-1.43-1.51,1.8,1.71,1.43ZM81.44,43.81l1.21-1.45-1.71-1.43-1.21,1.45,1.71,1.43ZM83.07,41.87l1.33-1.59-1.72-1.44-1.33,1.59,1.72,1.44ZM84.83,39.78l1.53-1.83-1.72-1.44-1.53,1.83,1.72,1.44ZM85.83,34.06l-1.53-1.28-1.28,1.53,1.53,1.28,1.28-1.53ZM83.8,32.35l-1.8-1.51-1.28,1.53,1.8,1.51,1.28-1.53ZM84.22,31.85l1.51-1.8-1.8-1.51-1.51,1.8,1.8,1.51ZM83.42,28.12l-1.45-1.21-1.51,1.8,1.45,1.21,1.51-1.8ZM83.85,27.62l1.22-1.46-1.45-1.21-1.22,1.46,1.45,1.21ZM83.12,24.52l-1.58-1.33-1.22,1.46,1.58,1.33,1.22-1.46ZM82.76,20.7l-1.83-1.53-1.31,1.57,1.83,1.53,1.31-1.57ZM80.43,18.74l-1.53-1.28-1.31,1.56,1.53,1.28,1.31-1.57ZM74.87,17.6l-1.23,1.47,1.8,1.51,1.23-1.47-1.8-1.51ZM71.26,17.94l-1.51,1.8,1.45,1.21,1.51-1.8-1.45-1.21ZM69.33,20.25l-1.28,1.53,1.45,1.21,1.28-1.53-1.45-1.21ZM68.83,19.83l-1.59-1.33-1.28,1.53,1.59,1.33,1.28-1.53ZM63.6,22.86l-1.33,1.59,1.58,1.33,1.33-1.59-1.59-1.33ZM62.72,28.15l1.45,1.21,1.21-1.45-1.45-1.21-1.21,1.45ZM64.67,29.79l1.8,1.51,1.21-1.45-1.8-1.51-1.21,1.45ZM64.25,30.29l-1.51,1.8,1.8,1.51,1.51-1.8-1.8-1.51ZM63.09,39.47l1.37-1.63-1.53-1.28-.36.42c.16.82.34,1.65.52,2.49ZM63.94,43.19l.98-1.17-1.56-1.3c.06.26.12.52.17.79l.09.39c.1.43.2.86.32,1.3ZM65.03,46.14l.24-.29-.63-.53c.12.28.25.56.4.82ZM67.32,48.38c.68.4,1.4.74,2.17,1.01l-1.77-1.48-.39.47ZM73.72,48.53l1.44-1.72-1.53-1.28-1.44,1.72,1.53,1.28ZM77.06,50.05c.53-.09,1.06-.2,1.58-.34l-.76-.64-.82.98ZM81.61,47.88l1.51-1.8-1.6-1.34-1.51,1.8,1.6,1.34ZM85.17,43.62l1.33-1.59-1.59-1.33-1.33,1.59,1.59,1.33ZM87.36,33.25l-.6.72.93.78c-.1-.5-.21-1-.33-1.5ZM86.78,30.93l-.55-.46-1.51,1.8,1.53,1.28.92-1.1c-.12-.5-.25-1.01-.39-1.52ZM85.51,26.65l-1.16,1.38,1.8,1.51.18-.22c-.26-.89-.53-1.78-.83-2.67ZM84.52,23.87l-.48.57,1,.84c-.06-.18-.12-.36-.19-.54-.11-.29-.22-.58-.33-.87ZM81.49,18.51l-.13.15.8.67c-.21-.29-.44-.56-.67-.83ZM78.85,16.51s-.09-.04-.14-.06l.11.09.03-.03ZM75.44,15.89l-1.45.12.8.67.66-.78ZM71.73,16.37s-.09.02-.13.03c-.31.06-.62.13-.93.19l.52.43.55-.65ZM68.38,17.13s0,.02-.02.03l-.7.83,1.59,1.33,1.51-1.8-.91-.76c-.5.11-.99.24-1.47.37ZM67.21,17.52s-.05.02-.08.03l.03.03.05-.06ZM61.76,24.03h0l1.33-1.59-.69-.57c-.3.67-.51,1.4-.65,2.17ZM61.68,30.95l.02.27.54.45,1.51-1.8-1.45-1.21-.71.85c.03.49.06.98.1,1.45ZM74.77,50.26l-.96-.8-.62.74c.52.05,1.05.07,1.58.06ZM83.66,47.49c.21-.14.41-.3.61-.45l-.65-.54-1.51,1.8.06.05c.51-.27,1.02-.55,1.49-.86ZM87.63,42.98l-.62-.52-1.33,1.59.91.76c.14-.19.29-.37.42-.56.25-.36.45-.8.62-1.27ZM88.08,41.17l-.65.78.42.35c.1-.36.17-.74.23-1.13ZM77.68-.73c-1.07,2.03-1.99,3.95-2.81,6.21l-.23.68c-.53,1.56-.98,2.9-1.59,5.7-.04.18-.19.32-.38.34-.18.02-.36-.07-.44-.24-.85-1.7-1.89-3.35-2.91-4.95-.35-.56-.71-1.13-1.07-1.7.03.11.05.22.08.33.16.67.3,1.25.49,1.89.14.43.26.8.37,1.16.21.69.4,1.29.72,2.1.08.19.01.41-.16.53h0c-.17.11-.4.09-.55-.05-1.12-1.08-2.39-2.06-3.61-3.02-.64-.5-1.28-1-1.9-1.51-.87-.71-1.7-1.44-2.53-2.15-1.09-.95-2.15-1.86-3.26-2.74,1.91,2.66,4.03,5.53,6.18,8.2.12.14.13.34.03.5-.1.16-.28.24-.46.2-1.54-.31-3.11-.5-4.64-.57h0c-.49-.02-.97-.04-1.46-.03,3.17,1.72,4.57,3.08,6.33,4.97.28.29.82,1.02,1.63,2.19,1.77-.95,3.79-1.36,5.91-1.79.5-.1,1.02-.21,1.53-.32l2.88-.23c.24,0,.47.03.7.04-.05-3.08.08-5.01.41-8.2.16-1.27.25-2.31.35-3.52.09-1.07.2-2.33.39-4.04ZM74.67-5.16c.09-.67.17-1.35.25-2.02-2.13,3.08-4.04,7.83-4.49,9.38-.05.18-.21.3-.39.32-.18.01-.36-.09-.43-.26-.94-2.09-1.5-3.75-1.99-5.95-.33-1.45-.56-2.79-.79-4.09-.1-.58-.2-1.14-.3-1.68-.87,3.69-1.66,7.52-1.35,11.71.01.17-.08.34-.23.42-.15.08-.34.06-.48-.04-.56-.45-1.1-.9-1.64-1.35-1.02-.85-1.98-1.65-3.05-2.42-.63-.46-1.28-.92-1.93-1.38-.58-.41-1.16-.82-1.74-1.24,1.79,2.45,3.2,4.57,4.4,6.64.41.35.82.7,1.22,1.05.82.71,1.65,1.43,2.52,2.14.61.5,1.24,1,1.88,1.49.79.62,1.61,1.25,2.39,1.92-.06-.18-.11-.35-.16-.53-.11-.35-.22-.73-.37-1.15-.2-.67-.35-1.26-.51-1.95-.23-.96-.49-2.06-1.01-3.68-.07-.22.04-.45.25-.54.21-.09.45,0,.56.21.81,1.6,1.81,3.18,2.78,4.71.81,1.29,1.65,2.61,2.4,3.97.49-2.09.9-3.28,1.36-4.63l.13-.39s-.03-.09-.04-.13c-.02-.31-.03-.57-.03-.75-.03-3.28.39-6.58.8-9.77Z"/>
          <g>
            <path class="cls-3" d="M196,73.24l-12.12,35.81c-1.44,4.24-5.7,6.93-10.14,6.4-.65-.08-1.29-.22-1.92-.44l-15.02-5.08h0s-16.7-5.65-16.7-5.65h0s0,0,0,0l-28.44-9.62c-2.41-.81-4.35-2.52-5.48-4.79-1.13-2.28-1.3-4.86-.48-7.27l12.11-35.8c.99-2.92,3.31-5.1,6.12-6.01.11-.14.3-.21.48-.15,0,0,.01,0,.01,0,1.13-.3,2.32-.4,3.53-.25.65.08,1.3.22,1.92.44l17.07,5.78c.34-1.27.74-2.3,1.24-3.19,1.41-2.35,4.18-3.34,8.04-2.87.29.03.58.08.86.12,3.76.66,6.96,1.66,9.51,2.99,2.89,1.52,6.5,3.41,7.17,7.53.22,1.28-.25,2.71-.67,3.97-.03.09-.06.18-.09.27l17.03,5.76c2.41.81,4.35,2.52,5.48,4.79,1.13,2.28,1.3,4.86.48,7.27ZM147.77,46.87l4.7,1.59c.16-.67.4-1.44.79-2.13.84-1.39,2.47-1.98,4.73-1.71.16.02.32.04.48.07,2.15.37,3.96.95,5.41,1.7,1.67.87,3.74,1.96,4.14,4.38.13.77-.14,1.6-.39,2.33-.05.15-.1.3-.14.45l2.93.99,1.75.59c.03-.09.06-.18.09-.27.38-1.16.82-2.48.63-3.55-.61-3.7-3.85-5.4-6.71-6.9-2.46-1.28-5.58-2.26-9.25-2.9-.27-.05-.54-.09-.82-.12-3.54-.43-5.95.4-7.18,2.44-.47.83-.84,1.8-1.17,3.03ZM167.16,50.92c-.3-1.85-1.78-2.75-3.68-3.75-1.37-.71-3.1-1.26-5.15-1.61-.14-.02-.29-.04-.44-.06-1.91-.23-3.21.2-3.86,1.28-.36.63-.57,1.35-.72,1.97l13.36,4.52c.05-.15.09-.3.14-.44.21-.63.45-1.35.35-1.91ZM140.82,45.45l-2.24,6.62.72.24,2.24-6.62-.72-.24ZM122.81,46.72l11.85,4.01,2.24-6.61-7.31-2.47c-.57-.19-1.16-.33-1.75-.4-1.12-.13-2.23-.04-3.27.25l-1.77,5.22ZM119.23,96.28l4.61-13.6c-4.47-3.42-6.32-8.4-4.21-11.46,1.56-2.26,4.94-2.93,8.68-1.76l6.06-17.9-12.26-4.15c-.23-.08-.35-.33-.27-.55l1.69-5.01c-2.24.93-4.07,2.79-4.89,5.21l-12.11,35.8c-.74,2.19-.58,4.53.44,6.6,1.02,2.07,2.79,3.61,4.97,4.35l7.3,2.47ZM120.35,71.72c-1.81,2.62-.14,6.96,3.79,10.08l3.89-11.49c-3.36-1.05-6.34-.52-7.68,1.41ZM122.33,97.33l17.66-52.16-2.26-.77-2.38,7.02s0,0,0,0c0,0,0,0,0,0l-6.33,18.7s0,.02,0,.02c0,0,0,.01-.01.02l-4.21,12.44s-.01.04-.02.07l-4.7,13.89,2.26.77ZM127.78,83.96c3.76,1.57,7.37,1.18,8.87-.99.92-1.33.96-3.16.13-5.16-.87-2.06-2.56-4.04-4.76-5.56-.07-.05-.15-.1-.22-.15l-4.01,11.85ZM158.82,102.58l-15.87-5.37-2.15,6.37,15.87,5.37,2.16-6.37ZM161.31,110.52l17.65-52.17-6.65-2.25h0l-5.51-1.86s0,0,0,0l-14.15-4.79s0,0,0,0l-5.55-1.88s0,0,0,0l-4.73-1.6-2.38,7.03c-.04.11-.12.2-.22.25-.08.04-.16.05-.25.04-.03,0-.06-.01-.09-.02l-1.13-.38-6.21,18.36c.14.09.29.19.43.28,2.34,1.62,4.14,3.73,5.07,5.94.96,2.28.88,4.41-.21,5.99-1.25,1.8-3.67,2.58-6.47,2.24-1.09-.13-2.25-.44-3.41-.92l-4.34,12.82,16.81,5.69,2.29-6.79c.04-.11.12-.2.22-.25.11-.05.22-.06.33-.02l16.7,5.65c.11.04.2.12.25.22.05.1.06.22.02.33l-2.29,6.78,3.81,1.29ZM163.78,111.36l17.65-52.17-1.64-.56-17.65,52.17,1.64.56ZM187.45,95.76l-5.44-3.41-6.64,10.55,7.99,4.92,4.08-12.06ZM195.16,73l-7.66-.7s-.06,0-.1,0c-1.81-.22-3.14-1.84-2.97-3.67l.66-7.35c.03-.32.06-.48.17-.77l-3-1.01-17.65,52.17,7.5,2.54c.57.19,1.15.32,1.74.4,4.03.48,7.9-1.96,9.2-5.81l.03-.09-8.54-5.26c-.1-.06-.17-.16-.2-.27-.03-.11,0-.23.06-.33l7.11-11.29c.13-.2.4-.27.6-.14l5.63,3.53,7.41-21.91ZM194.73,66.36c-1.02-2.07-2.79-3.61-4.98-4.35l-3.66-1.24c-.1.25-.1.33-.13.57l-.66,7.35c-.13,1.38.92,2.62,2.28,2.73l7.82.72c.45-1.94.22-3.97-.67-5.78Z"/>
            <path class="cls-3" d="M170.55,77.29c-.07.09-.17.15-.29.17l-20.48,2.9s-.08,0-.11,0c-.19-.02-.35-.17-.38-.37l-1.76-12.43c-.02-.11.01-.23.08-.33.07-.09.17-.15.29-.17l20.48-2.9c.24-.03.46.13.5.37l1.76,12.44c.02.12-.01.23-.08.33ZM169.7,76.66l-1.64-11.57-19.61,2.78,1.64,11.57,19.61-2.78Z"/>
          </g>
          <g>
            <path class="cls-3" d="M316.73,183.04c.04.16,0,.33-.13.44-.12.11-.29.15-.45.09-4.72-1.77-13.31-5.37-15.07-6.11-1.27,1.73-7.73,10.54-8.72,11.52,0,0-.02,0-.02.02-.02.02-.05.03-.07.05-.03.01-.05.03-.08.04-.01,0-.02.01-.03.01-.03,0-.06.01-.09.01,0,0-.01,0-.02,0-.24,0-.28,0-4.11-2.8-2.16-1.57-4.81-3.51-7.06-5.05-1.95,2.27-4.71,6.26-6.55,8.94q-2.02,2.93-2.34,2.93c-.11,0-.21-.04-.29-.11-1.57-1.36-3.68-2.95-5.72-4.49-1.9-1.43-3.86-2.91-5.41-4.22-1.6,2.36-9.59,14.05-10.26,14.05-.2,0-.37-.14-.43-.33-.1-.37-9.7-36.99-9.64-37.37.02-.11,6.96-10.14,8.82-12.14.03-.15.13-.28.29-.33.04-.01.07,0,.11-.01,0,0,.02,0,.02,0,0,0,.01,0,.02,0,.08,0,.15.03.22.07,0,0,.01,0,.02,0l11.57,8.14,9.27-11.06s.02-.01.03-.02c.03-.03.06-.05.09-.07.02-.01.04-.02.06-.03.01,0,.02-.01.03-.02.02,0,.04,0,.06,0,.02,0,.04-.01.07-.01,0,0,.02,0,.03,0,.01,0,.02,0,.04,0,.01,0,.03,0,.04.01.04.01.08.02.11.04,1.61.73,10.38,6.71,12.24,7.98l8.54-11.12s.02-.01.03-.02c.03-.04.07-.07.12-.09.02,0,.03-.02.04-.02.02,0,.03-.02.05-.02.02,0,.04,0,.06,0,.02,0,.05-.02.07-.02.83,0,14.29,4.66,14.43,4.71.14.05.24.16.28.3l9.74,36.11ZM300.46,176.82l-.65-2.59-8.29,10.42.76,3.08c1.6-1.96,5.81-7.67,8.18-10.91ZM250.28,149.71l.59,1.89,10.53,7-.41-1.34-10.71-7.54ZM261.86,157.08l.5,1.64,8.74-10.79-.4-1.41-8.84,10.55ZM271.6,146.48l.36,1.29,11.64,8.45-.53-2.13c-3.52-2.44-9.33-6.29-11.48-7.6ZM283.94,153.91l.48,1.93,8.18-10.34-.54-2.16-8.11,10.57ZM299.54,173.16l-6.2-24.66c-.74.54-1.44,1.17-2,1.93-1.37,1.88-.39,2.79,1.32,4.13,1.17.91,2.38,1.86,2.18,3.34-.09.56-.74,1.07-1.7,1.64.21.39.37.86.48,1.43.41,2.13-1,5.33-1.58,6.52.21-.08.43-.16.66-.25,1.44-.56,3.07-1.19,4.33-.19,1.02.79.65,2.38.3,3.92-.26,1.14-.54,2.32-.1,2.79.24.26.75.33,1.5.2.05,0,.11,0,.15.02l.66-.82ZM290.9,159.09c-.3,0-.65.04-1.1.13-1.82.35-2.67.89-2.29,2.88.35,1.83,2.79,4.1,3.78,4.96.55-1.16,1.83-4.1,1.48-5.92-.33-1.7-.98-2.04-1.87-2.04ZM289.03,166.1c.17.83.44,1.36.84,1.6.27.16.6.18.98.13-.39-.33-1.09-.95-1.82-1.73ZM293.18,147.82l-.31-1.24-8.18,10.34,6.57,26.65,7.1-8.92c-.09,0-.19.02-.27.02-.6,0-1.04-.16-1.33-.47-.67-.72-.37-2.01-.06-3.38.31-1.34.63-2.72-.06-3.26-.96-.77-2.35-.23-3.68.29-1.27.49-2.47.95-3.41.41-.64-.37-1.04-1.16-1.23-2.42-.03-.22-.04-.42-.05-.62-.76-.94-1.42-1.98-1.61-2.96-.54-2.82,1.11-3.54,2.98-3.9.51-.1.91-.14,1.27-.14.81,0,1.42.26,1.88.78.9-.53,1.37-.93,1.42-1.19.14-1.1-.87-1.89-1.94-2.73-1.45-1.13-3.26-2.55-1.45-5.04.65-.9,1.48-1.63,2.36-2.23ZM267.43,172.13c1-.46,2.34.66,3.76,1.85.81.68,1.8,1.5,2.38,1.63-.05-3.03-2.75-4.1-5.37-5.13-.57-.22-1.11-.44-1.61-.67-.38-.17-.72-.36-1.02-.58l1.15,3.75c.16-.43.4-.71.72-.85ZM260.81,173.7c.81-.83,2.59-.23,4.17.3.45.15.88.29,1.25.39l-1.94-6.37c-.37-.44-.7-.91-1.04-1.4-.35-.5-.71-1.01-1.12-1.5-1.48-1.75-2.88-.98-4.65-.02-.65.35-1.33.73-2.06.97l3.29,10.48c.24.13.49.23.73.24.27.02.49-.06.68-.24.26-.23.25-.69.24-1.18-.01-.59-.03-1.26.46-1.68ZM263.7,166.13l-1.9-6.22-10.51-6.99,3.93,12.53c.66-.23,1.31-.58,1.94-.93,1.79-.97,3.64-1.98,5.46.17.4.47.74.96,1.08,1.44ZM250.33,152.8l-7.53,9.55,1.3,4.97c1.73-2.01,2.98-3.16,3.69-3.41,1.41-.53,2.44.15,3.43.8.59.39,1.2.79,1.89.92.42.09.84.09,1.25.02l-4.04-12.86ZM244.3,168.07l4.41,16.86c.23-.2.46-.39.67-.58l.42-.37c1.22-1.01,1.47-1.9,1.75-2.92.19-.69.39-1.41.9-2.22.05-.08.12-.13.21-.15.09-.02.18,0,.25.05l.36.25c.98.68,1.35.89,2.08.33.56-.43,1.72-2.56,1.93-3.31.03-.12.13-.21.25-.23,0,0,0,0,0,0l-2.97-9.47c-.51.09-1.03.11-1.58-.01-.81-.16-1.48-.59-2.12-1.01-.93-.61-1.74-1.14-2.85-.73-.62.21-1.94,1.48-3.65,3.48-.02.03-.05.04-.07.06ZM248.89,185.63l1.68,6.41,8.29-12.05-1.01-3.21s-.08-.06-.12-.09c-.43,1.01-1.38,2.69-1.98,3.15-1.15.88-1.94.33-2.86-.31l-.06-.04c-.33.62-.49,1.19-.65,1.75-.28,1.03-.58,2.1-1.95,3.25l-.41.36c-.29.26-.58.52-.9.78,0,0-.02,0-.03.01ZM259.72,179.79l10.66,8.2-3.93-12.89c-.47-.08-1.03-.27-1.68-.49-1.25-.42-2.96-1-3.5-.44-.28.24-.26.7-.25,1.19.01.59.03,1.26-.46,1.69-.31.29-.71.43-1.15.41-.15,0-.29-.04-.44-.08l.76,2.42ZM271.36,188.21l8.04-10.9-2.16-7.65c-.12-.16-.24-.33-.34-.51-.56-.97-.78-2.12-.69-3.15l-.19-.66c-.41.13-.84.36-1.25.58-.89.48-1.88.93-2.69.57-1.52-.49-2.28-2.64-1.97-5.75.21-2.21,1.05-4.91,2.39-5.63.2-.11.39-.19.58-.24l-1.67-5.91-8.72,10.77,2.54,8.32c.46.46.98.87,1.65,1.16.49.23,1.03.44,1.58.65,2.65,1.04,5.94,2.33,5.78,6.07,0,.14-.11.27-.25.31-.84.21-1.94-.7-3.21-1.76-1.08-.91-2.43-2.04-3.06-1.75-.31.14-.51.7-.59,1.58l4.24,13.91ZM279.18,166.88c.37-.39.79-.77,1.24-1.17,1.42-1.25,2.89-2.54,2.43-4.48-.45-1.98-1.84-2.13-3.59-2.32-.82-.09-1.67-.18-2.44-.49-.92-.39-1.47-1.1-1.96-1.72-.22-.28-.4-.5-.58-.67l2.35,8.33c.13,0,.25,0,.38.03.14.03.25.11.32.24.06.12.06.27,0,.39-.13.25-.22.55-.26.87l.95,3.36c.36.43.91.87,1.67.91.09,0,.19,0,.28,0,.9,0,1.03-.2,1.03-.2.11-.26-.78-1.26-1.12-1.64-.3-.34-.58-.65-.75-.92-.11-.17-.09-.39.05-.53ZM273.3,155.73c-.12.03-.25.08-.4.16-.86.47-1.71,2.64-1.93,4.95-.19,1.96.07,4.41,1.42,4.85.15.06.26.09.38.09.45,0,1-.3,1.58-.61.46-.25.94-.5,1.44-.65l-2.48-8.78ZM280.25,177.12l10.11,6.46-6.44-26.1c-.05-.01-.11-.04-.16-.07l-11.41-8.28,1.61,5.71c.69.15,1.16.75,1.61,1.32.44.57.9,1.16,1.61,1.45.65.26,1.44.35,2.2.43,1.76.19,3.75.41,4.35,2.99.58,2.44-1.25,4.04-2.71,5.33-.33.29-.65.57-.93.84.13.16.3.35.47.54.79.89,1.61,1.81,1.26,2.59-.29.64-1.18.71-1.83.71-.1,0-.21,0-.32,0-.43-.02-.84-.14-1.21-.33l1.81,6.41ZM300.38,172.9l11.55,4.85-7.71-28.39-8.1-2.39c-.62.27-1.31.6-2,1.02l6.26,24.91ZM295.15,146.68l-1.47-.43.27,1.07c.41-.24.81-.45,1.2-.64ZM259.99,183.58l-.79-2.54-8.45,12.28c-.08.12-.22.19-.36.19-.03,0-.05,0-.08,0-.17-.03-.3-.16-.35-.32l-8.07-30.83c-.04-.13,0-.27.08-.38l8.04-10.19-.72-2.29c-1.7,2.19-7.45,10.21-8.17,11.3.53,2.31,7.96,30.78,9.38,36.2,1.62-2.11,6.74-9.27,9.48-13.41ZM266.49,187.82c1.75,1.32,3.54,2.67,5.02,3.9l-.7-2.29-10.64-8.18.67,2.15c1.56,1.35,3.63,2.91,5.64,4.42ZM280.31,180.57l-.62-2.18-8.02,10.87.68,2.22c.34-.49.78-1.12,1.24-1.79,1.89-2.74,4.72-6.84,6.72-9.12ZM288.45,185.59c1.12.82,2.21,1.61,2.92,2.11l-.71-2.89-10.05-6.43.57,2.01c2.3,1.57,5.06,3.57,7.28,5.19ZM315.66,182.44l-9.46-35.06c-4.66-1.62-11.3-3.85-13.35-4.44l.58,2.32,11.27,3.33c.15.04.26.16.3.31l8.01,29.5c.04.16,0,.33-.13.44-.13.11-.3.14-.46.07l-11.77-4.94.66,2.63c1.36.57,9.4,3.95,14.35,5.85Z"/>
            <path class="cls-3" d="M292.21,161.85c.21,1.07-.5,2.11-1.57,2.32-.12.02-.25.04-.37.04-.95,0-1.76-.67-1.94-1.61-.1-.52,0-1.05.31-1.48.3-.44.75-.73,1.27-.83,1.08-.21,2.11.52,2.32,1.57ZM291.34,162.02c-.1-.52-.55-.89-1.08-.89-.07,0-.14,0-.21.02-.29.06-.54.22-.71.46-.16.24-.23.54-.17.83.11.59.68.99,1.29.87.6-.11.99-.69.87-1.29Z"/>
          </g>
          <path class="cls-3" d="M279.29,267.54c-2.32,1.77-5.2,2.48-8.35,2.04-.07,0-.14-.03-.21-.04-.72.46-1.33,1.05-1.91,1.87-1.27,1.78-1.44,3.64-.45,4.97.07.09.45.36.75.59,1.44,1.06,2.54,1.94,2.43,2.82-.03.26-.19.63-.75.87-.16.07-.61.25-5.46-1.77-.48-.2-1-.42-1.58-.67-6.49-2.8-6.69-3.35-6.76-3.53-.21-.58-.06-.94.12-1.14.57-.68,2.02-.48,3.73-.16.37.07.83.15.95.14,2.37-.27,3.45-2.91,3.45-5.24,0-.29-.03-.57-.06-.85-.07-.05-.16-.09-.23-.14-.39-.26-.74-.51-1.06-.77-2.47-1.99-3.93-4.58-4.23-7.47-.5-5.76,2.81-9.84,6.01-13.78.69-.84,1.37-1.69,2.03-2.56l.24-.31c1.41-1.81,3.17-4.07,3.91-6.1.45-1.3.5-2.47.54-3.51.03-.65.05-1.21.17-1.7.03-.13.13-.24.26-.3.13-.05.27-.04.39.03.15.08,1.81.85,4.05,1.88l.1-.35c1.46-5.1,2.7-9.4,3.28-11.4l-6.78-4.78c-.19-.14-.24-.4-.11-.6l.83-1.26c.07-.1.17-.17.29-.19.12-.02.24,0,.34.08l7.72,5.64c.15.11.21.3.16.48l-3.84,13.3c4.44,2.03,9.89,4.51,11.05,4.99h0c.07.03.12.05.14.06.11.05.23.14.28.27.05.13.04.27-.04.38-.44.7-1,1.23-1.53,1.75-.63.61-1.22,1.19-1.65,2-.97,1.92-1.41,4.74-1.76,7l-.07.4c-.18,1.08-.33,2.16-.47,3.24-.68,5.03-1.38,10.24-5.92,13.81ZM278.08,233.09c.12.06.24.11.37.17l3.72-12.88-7.1-5.19-.34.52,6.69,4.72c.15.11.22.3.17.48-.53,1.84-1.82,6.33-3.36,11.7l-.14.48ZM278.21,234.11c-.12-.06-.25-.11-.37-.17l-.08.29c-.49,1.71-1,3.49-1.51,5.28.12.05.24.1.36.16.5-1.73.99-3.44,1.47-5.09l.13-.47ZM270.94,262.45c-.07.23-.22.41-.43.51-.27.13-.64.12-.99-.02-.47-.2-.72-.58-.62-.95l.3-1.06c.87-3.03,3.45-12.08,5.99-20.91-.47-.21-.94-.41-1.41-.61l-.16-.06c-.99,1.76-2.3,3.45-3.37,4.83l-.23.3c-.68.9-1.39,1.78-2.09,2.63-3.1,3.82-5.78,7.11-5.38,11.67.22,2.14,1.28,3.99,3.16,5.51.84.68,1.78,1.23,2.79,1.66h0c.92.38,1.87.65,2.83.78,2.39.33,4.47-.15,6.16-1.45,3.61-2.85,4.18-7.06,4.84-11.93.15-1.09.3-2.21.48-3.3l.06-.39c.33-2.12.72-3.86,1.21-5.44l-.84-.41c-2-.97-4.05-1.96-6.1-2.9-3.05,10.55-6.14,21.27-6.22,21.55ZM276.35,240.52c-.12-.05-.24-.11-.35-.16-2.52,8.8-5.09,17.79-5.95,20.8l-.27.92s.04.03.07.04c.13.05.24.05.27.04.06-.26,3.17-11.05,6.23-21.65ZM269.57,269.31c-.07-.02-.14-.03-.21-.05-.69-.18-1.31-.35-1.92-.61-.13-.05-.25-.11-.37-.17-.34-.17-.66-.33-.97-.5,0,.1.02.2.02.31,0,2.71-1.33,5.77-4.24,6.11-.23.02-.57-.04-1.2-.15-.71-.13-2.61-.48-2.9-.14-.02.02-.02.1.02.22.91.86,11.45,5.42,12.7,5.49.11-.06.17-.11.18-.14.05-.45-1.5-1.59-2.08-2.02-.52-.38-.79-.59-.93-.77-1.23-1.65-1.06-3.9.44-6,.46-.64.94-1.16,1.46-1.59ZM284.34,253.61c.15-1.09.29-2.18.48-3.26l.06-.4c.37-2.32.82-5.21,1.85-7.26.5-.95,1.17-1.6,1.82-2.23.39-.38.77-.75,1.1-1.16-1.55-.67-6.5-2.92-10.64-4.81l-.1.34c-.49,1.69-1,3.45-1.51,5.22,2.11.96,4.2,1.97,6.24,2.97l1.18.57c.2.1.29.32.22.53-.53,1.62-.95,3.42-1.3,5.66l-.06.4c-.18,1.09-.34,2.2-.48,3.28-.68,5.06-1.27,9.43-5.17,12.51-1.89,1.45-4.19,1.99-6.82,1.62-1.03-.14-2.06-.42-3.05-.84h0c-1.09-.46-2.1-1.06-3.01-1.78-2.07-1.67-3.25-3.72-3.49-6.11-.43-4.92,2.35-8.35,5.58-12.31.68-.84,1.39-1.72,2.07-2.61l.24-.3c1.12-1.44,2.52-3.24,3.48-5.05.11-.2.34-.29.55-.2l.52.22c.44.18.87.38,1.31.57.5-1.76,1-3.5,1.48-5.17l.12-.42c-1.62-.75-2.97-1.37-3.69-1.71-.03.29-.04.62-.06.97-.04,1.04-.1,2.34-.59,3.77-.79,2.17-2.6,4.48-4.04,6.34l-.24.31c-.66.87-1.35,1.72-2.04,2.57-3.24,3.98-6.29,7.74-5.82,13.15.27,2.65,1.62,5.03,3.9,6.87.3.24.62.48.99.72.59.39,1.25.76,2.01,1.13.65.31,1.34.51,2.13.71.53.14,1.03.24,1.48.3,2.91.41,5.57-.24,7.69-1.86,4.25-3.36,4.9-8.16,5.59-13.24Z"/>
          <path class="cls-2" d="M233.23,94.01c-1.12,8.65-12.56,19.06-21.45,18.19-3.24-.32-7.04-1.67-8.56-4.83-3.17-6.58,4.48-14.93,11.17-10.35,14.38,9.87,1.11,33.91-6.96,41.98-14.03,14.02-30.86,18.24-51.78,17.66-19.22-.53-35.58-10.47-48.37-24.27-9.56-10.32-15.6-23.45-25.58-33.41-9.94-9.93-28.23-18.37-39.62-5.25-6.51,7.5-3.63,21.59,8.24,18.26,13.24-3.71,9.91-20.38,5.87-29.61-2.09-4.77-5.48-11.02-9.8-16.61"/>
          <path class="cls-2" d="M123.44-16.94c13.85-3.51,34.47,4.04,40.19,16.13,7.77,16.43-6.84,25.89-12.86,17.01-8.36-12.33,5.84-22.85,12.27-25.19,15.09-5.49,30.28-1.79,44.88-9.55,8.5-4.52,18.46-11.99,20.71-21.92,3.12-13.76-12.66-30.13-26.47-28.68-7.14.75-15.2,5.82-15.55,13.67-.36,8.02,2.93,15.26,11.52,16.21,11,1.22,21.27-5.21,27.9-13.57,6.35-8.02,10.96-19.85,10.4-30.68"/>
          <path class="cls-2" d="M346.93,198.62c-25.09-1.12-45.34,23.97-45.93,41.5-.46,13.9,1.83,29.48,12.61,39.39,5.76,5.3,15.11,8.38,22.48,4.61,11.52-5.9,5.2-15.06-5.58-15.62-7.52-.39-17.27,5.3-20.66,12.21-7.3,14.91-7.8,32.69-1.82,47.97"/>
          <path class="cls-2" d="M109.99,191.04c-6.43,16.95,21.62,35.65,35.06,21.62"/>
          <path class="cls-2" d="M219.86,42c17.53,4.68,21.62,29.81,1.17,34.48"/>
          <path class="cls-2" d="M30.5,229.61c12.27-4.09,26.3,15.78,17.53,27.47"/>
        </g>
        <g>
          <g>
            <path class="cls-3" d="M35.04,39.73c.04.15,0,.3-.11.41l-7.61,8.08c-.1.1-.23.15-.37.13l-13.24-1.55c-6.07,10.39-14.11,21.09-23.9,31.82l.07.07,40.93,36.12c.09.08.14.19.15.31,0,.12-.04.24-.12.32l-5.46,5.7c-.07.07-.16.12-.26.13-.07.01-.14,0-.21-.02l-14.73-5.55c-.53,1-1.2,2.06-2,3.15-.07.09-.16.15-.27.17,0,0-.02,0-.05,0-.48.07-4.54.53-6.8-3.27-.05-.08-.07-.18-.06-.27,0-.06.17-1.4.69-2.99l-11.04-4.16c-.57,1.36-1.43,2.84-2.59,4.41-.07.09-.16.15-.27.17,0,0-.02,0-.05,0-.48.07-4.54.53-6.8-3.26-.05-.08-.07-.18-.06-.27,0-.1.26-2.21,1.18-4.28l-12.96-4.88s-.06-.03-.08-.04l-1.86,1.97c-3.86,4.1-7.85,8.33-11.73,12.2-.23.22-.5.47-.8.77-3.17,3.06-10.61,10.21-17.11,11.16-3.66.53-6.5-.96-8.44-4.41-4.29-7.65,18.45-31.03,22.82-35.01.51-.48,1.03-.96,1.56-1.44l.34-.32-.12-.12s-.08-.09-.1-.15l-4.8-11.91c-1.59.6-3.01.83-3.24.86-.02,0-.03,0-.03,0-.09.01-.19,0-.28-.05-4.07-2.31-3.41-6.73-3.41-6.77.02-.11.08-.21.16-.28,1.18-.91,2.31-1.65,3.39-2.22l-4.47-11.08c-.72.22-1.27.33-1.59.38-.25.04-.38.04-.39.04-.08,0-.16-.02-.23-.06-4.07-2.31-3.41-6.73-3.4-6.77.02-.11.08-.21.16-.28.98-.76,1.48-1.12,2.14-1.52l-5.69-14.11c-.06-.16-.03-.35.1-.47l5.56-5.6c.08-.08.2-.13.32-.13.12,0,.23.05.31.14l22.1,23.6h0s14.81,15.82,14.81,15.82l.51.49c2.26-2.2,4.24-4.16,6.02-6.01,3.77-4.06,15.81-13.71,24.42-19.59l-.4-16.07c0-.13.05-.25.15-.34l6.14-5.41c.11-.1.26-.13.4-.1.14.04.25.14.3.28l5.73,16.44,16.36,5.32c.14.04.25.16.29.31ZM-49.96,38.91l-.97.9,6.94,12.28,3.35-3.21-9.33-9.96ZM-59.42,52.54l-2.65-6.56c-.54.33-.99.65-1.8,1.28-.07.76-.16,3.84,2.87,5.64.22-.02.76-.11,1.57-.35ZM-51.55,72.09l-2.75-6.83c-.96.52-1.98,1.18-3.04,1.98-.07.76-.16,3.83,2.86,5.63.41-.07,1.61-.29,2.92-.79ZM-10.17,108.02l-6.94-2.61c-.75,1.67-1.05,3.42-1.12,3.92,1.85,2.95,4.95,2.82,5.69,2.74,1.06-1.45,1.84-2.8,2.37-4.05ZM9.35,115.37l-6.84-2.58c-.39,1.2-.57,2.26-.62,2.63,1.85,2.95,4.95,2.82,5.69,2.74.71-.97,1.3-1.9,1.77-2.79ZM6.29,94.32l-3.61,3.95,12.44,6.65,1.39-1.58-10.23-9.02ZM33.82,40.04l-15.91-5.17c-.13-.04-.23-.14-.28-.27l-5.59-16.03-5.49,4.85.4,16.1c0,.15-.07.29-.19.37-8.58,5.84-20.7,15.54-24.47,19.6-1.87,1.95-3.95,4.02-6.35,6.34-.17.16-.44.16-.61,0l-.83-.8-14.52-15.51-3.75,3.6c-.07.06-.15.11-.24.12-.04,0-.08,0-.13,0-.13-.02-.25-.1-.32-.22l-7.39-13.08c-.1-.18-.06-.4.08-.54l1.22-1.13-11.57-12.36-5.04,5.07,13.34,33.1c.17,0,.33.09.41.25.08.18.03.38-.11.51l2.83,7.01c.12.03.23.12.29.24.06.13.04.28-.03.39l4.8,11.92.38.38c.09.08.13.2.13.32,0,.12-.05.23-.14.31l-.68.63c-.52.48-1.04.96-1.56,1.44-6.08,5.55-26.38,27.27-22.65,33.94,1.77,3.15,4.24,4.45,7.55,3.97,6.22-.9,13.51-7.92,16.62-10.92.31-.29.57-.55.8-.76,3.87-3.85,7.85-8.08,11.71-12.17l2.16-2.29c.08-.09.2-.13.31-.14.12,0,.23.04.32.13l.19.19,55.45,20.89,4.94-5.16-12.73-11.23-1.62,1.84c-.07.08-.17.13-.27.14-.09.01-.18,0-.27-.05l-13.25-7.08c-.12-.06-.2-.18-.22-.31-.02-.13.02-.27.11-.37l3.98-4.36-16.34-14.41-.4-.38c-.17-.16-.18-.44-.02-.61C-1.17,67.46,6.98,56.61,13.1,46.1c.06-.11.18-.19.3-.21.06,0,.12,0,.18,0l13.26,1.56,6.98-7.41Z"/>
            <path class="cls-3" d="M15.99,36.04c.29.3.46.69.46,1.07,0,.32-.12.61-.34.82l-8.51,8.47c-.17.17-.39.28-.64.31-.44.06-.9-.1-1.25-.45-.56-.56-.62-1.41-.13-1.89l8.52-8.47c.46-.47,1.34-.41,1.89.14ZM15.57,37.1c0-.15-.07-.32-.2-.45-.15-.15-.34-.23-.5-.2-.06,0-.11.03-.15.07l-8.52,8.47c-.12.12-.1.42.13.65.2.2.52.26.65.13l8.51-8.47c.06-.06.07-.14.07-.2Z"/>
          </g>
          <path class="cls-2" d="M26.93,198.62c-25.09-1.12-45.34,23.97-45.93,41.5-.46,13.9,1.83,29.48,12.61,39.39,5.76,5.3,15.11,8.38,22.48,4.61,11.52-5.9,5.2-15.06-5.58-15.62-7.52-.39-17.27,5.3-20.66,12.21-7.3,14.91-7.8,32.69-1.82,47.97"/>
        </g>
        <path class="cls-2" d="M346.93-111.37c-25.09-1.12-45.34,23.97-45.93,41.5-.46,13.9,1.83,29.48,12.61,39.39,5.76,5.3,15.11,8.38,22.48,4.61,11.52-5.9,5.2-15.06-5.58-15.62-7.52-.39-17.27,5.3-20.66,12.21-7.3,14.91-7.8,32.69-1.82,47.97"/>
        <path class="cls-2" d="M26.93-111.37c-25.09-1.12-45.34,23.97-45.93,41.5-.46,13.9,1.83,29.48,12.61,39.39,5.76,5.3,15.11,8.38,22.48,4.61,11.52-5.9,5.2-15.06-5.58-15.62-7.52-.39-17.27,5.3-20.66,12.21-7.3,14.91-7.8,32.69-1.82,47.97"/>
      </g>
    </pattern>
  </defs>
  <rect class="cls-4" width="456.27" height="401.64"/>
</svg>