<?xml version="1.0" encoding="UTF-8"?>
<svg id="katman_1" data-name="katman 1" xmlns="http://www.w3.org/2000/svg" viewBox="0 0 36.59 34.53">
  <defs>
    <style>
      .cls-1 {
        fill: #fff;
      }
    </style>
  </defs>
  <path class="cls-1" d="M0,34.53v-8.38l.6-.18c4.21-1.25,5.22-3.81,5.41-8.31H0V0h16.79v15c0,10.9-5.77,17.97-15.84,19.39l-.95.13ZM1.67,27.38v5.2c8.68-1.6,13.45-7.81,13.45-17.58V1.67H1.67v14.31h6.05l-.02.85c-.08,4.31-.63,8.66-6.03,10.55ZM19.42,34.53v-8.38l.6-.18c4.21-1.25,5.22-3.81,5.4-8.31h-6V0h16.79v15c0,10.91-5.77,17.98-15.84,19.39l-.95.13ZM21.1,27.38v5.2c8.68-1.59,13.45-7.8,13.45-17.58V1.67h-13.45v14.31h6.05l-.02.85c-.08,4.31-.63,8.66-6.03,10.55Z"/>
</svg>