<?xml version="1.0" encoding="UTF-8"?>
<svg id="katman_1" data-name="katman 1" xmlns="http://www.w3.org/2000/svg" viewBox="0 0 57.13 57.13">
  <defs>
    <style>
      .cls-1 {
        fill: #003e49;
      }
    </style>
  </defs>
  <path class="cls-1" d="M27,43.74c-.62,0-1.12.5-1.12,1.12s.5,1.12,1.12,1.12,1.12-.5,1.12-1.12-.5-1.12-1.12-1.12Z"/>
  <path class="cls-1" d="M20.09,31.36c.26,0,.52-.09.73-.27,5.84-4.99,10.43-7.85,10.43-12.82,0-3.99-2.94-7.11-6.7-7.11-2.25,0-3.65,1.07-4.47,1.86-.82-.78-2.27-1.86-4.46-1.86-3.75,0-6.7,3.12-6.7,7.11,0,4.86,4.58,7.79,10.43,12.82.21.18.47.27.73.27ZM11.16,18.27c0-2.74,1.96-4.88,4.46-4.88,1.74,0,2.73,1.03,3.32,1.64.18.18.31.33.47.44.4.3.95.3,1.34,0,.17-.13.33-.29.51-.48.61-.64,1.53-1.6,3.28-1.6,2.5,0,4.46,2.14,4.46,4.88,0,3.62-3.73,6.13-8.92,10.51-5.22-4.42-8.93-6.98-8.93-10.51Z"/>
  <path class="cls-1" d="M39.96,17.17C38.54,7.41,30.14,0,20.09,0,9.01,0,0,9.01,0,20.09c0,4.46,1.49,8.81,4.22,12.31-.41,1.89-1.33,3.68-2.74,5.32-.23.27-.32.65-.23,1,.09.35.34.64.68.77,3.18,1.24,6.8.78,9.57-1.24,1.8.85,3.7,1.43,5.68,1.71,1.42,9.76,9.82,17.17,19.88,17.17,2.97,0,5.92-.66,8.59-1.93,2.72,1.98,6.33,2.51,9.57,1.24.34-.13.59-.42.68-.77s0-.72-.23-1c-1.4-1.64-2.32-3.43-2.74-5.32,2.72-3.51,4.22-7.86,4.22-12.31,0-10.06-7.42-18.46-17.17-19.88ZM10.64,36.08c-1.77,1.51-4.13,2.14-6.42,1.74,1.19-1.72,1.96-3.57,2.29-5.53.05-.32-.03-.65-.24-.9-2.61-3.18-4.04-7.2-4.04-11.31C2.23,10.24,10.24,2.23,20.09,2.23s17.85,8,17.85,17.85c0,10.51-9.05,18.84-19.66,17.76,0,0,0,0,0,0-2.25-.22-4.41-.87-6.41-1.91-.4-.21-.89-.15-1.24.14ZM50.62,49.26c.33,1.95,1.1,3.8,2.29,5.53-2.28.4-4.64-.23-6.42-1.74-.35-.29-.83-.35-1.24-.14-2.55,1.33-5.32,2-8.21,2-8.77,0-16.11-6.25-17.59-14.74,2.25.07,4.46-.23,6.57-.88h18.83c.62,0,1.12-.5,1.12-1.12s-.5-1.12-1.12-1.12h-14.02c1.88-1.2,3.57-2.71,4.97-4.46h9.05c.62,0,1.12-.5,1.12-1.12s-.5-1.12-1.12-1.12h-7.5c1.85-3.09,2.82-6.6,2.82-10.27,0-.21,0-.42-.01-.62,8.49,1.48,14.74,8.82,14.74,17.59,0,4.12-1.44,8.14-4.04,11.31-.21.25-.29.58-.24.9Z"/>
  <path class="cls-1" d="M44.86,43.74h-13.39c-.62,0-1.12.5-1.12,1.12s.5,1.12,1.12,1.12h13.39c.62,0,1.12-.5,1.12-1.12s-.5-1.12-1.12-1.12Z"/>
</svg>