<?xml version="1.0" encoding="UTF-8"?>
<svg xmlns="http://www.w3.org/2000/svg" viewBox="0 0 30.51 30.51">

    <!-- MAIL (ZARF) İKONU – BEYAZ -->
    <path fill="#ffffff"
          d="M8.43,8.39h13.63c.19,0,.37.03.54.07-.02.02-.05.04-.07.07l-6.09,6.91c-.31.35-.73.54-1.2.54s-.89-.19-1.2-.54l-6.15-6.98c.17-.04.35-.07.53-.07ZM24.18,18.42c0,2.05-1.66,3.7-3.7,3.7h-10.44c-2.05,0-3.7-1.66-3.7-3.7v-7.93c0-.29.06-.57.17-.83l6.17,7c.65.74,1.6,1.17,2.58,1.17.99,0,1.93-.43,2.58-1.17l6.09-6.91s.05-.06.07-.1c.11.26.18.54.18.84v7.93Z"/>

</svg>
