<?xml version="1.0" encoding="UTF-8"?>
<svg xmlns="http://www.w3.org/2000/svg" viewBox="0 0 30.05 30.05">

    <!-- TELEFON İKONU (BEYAZ) -->
    <path fill="#ffffff"
          d="M22.41,20.87c-.15.16-.31.31-.47.48-.25.24-.51.49-.75.77-.41.44-.9.65-1.53.65-.06,0-.12,0-.19,0-1.17-.08-2.26-.53-3.08-.92-2.22-1.07-4.17-2.6-5.79-4.53-1.33-1.6-2.23-3.1-2.82-4.7-.37-.98-.51-1.77-.45-2.49.04-.48.23-.87.57-1.21l1.33-1.33c.21-.2.44-.3.66-.3s.44.1.64.31c.24.22.46.45.71.7.12.12.25.25.37.38l1.06,1.06c.22.22.34.45.34.67s-.11.45-.34.67c-.11.11-.22.23-.33.34-.33.34-.64.65-.99.96,0,0-.01.01-.02.02-.3.3-.25.58-.18.79,0,.01,0,.02.01.03.27.66.66,1.29,1.25,2.04,1.07,1.32,2.2,2.35,3.44,3.13.15.1.32.18.47.26.14.07.27.14.39.21.01,0,.02.01.04.02.12.06.23.09.35.09.29,0,.47-.18.53-.24l1.34-1.34c.21-.21.43-.32.65-.32.27,0,.49.17.63.32l2.15,2.15c.43.43.42.89-.01,1.35Z"/>

</svg>
