<?xml version="1.0" encoding="UTF-8"?>
<svg id="Layer_1" xmlns="http://www.w3.org/2000/svg" version="1.1" viewBox="0 0 15.62 15.7">
  <!-- Generator: Adobe Illustrator 30.0.0, SVG Export Plug-In . SVG Version: 2.1.1 Build 123)  -->
  <defs>
    <style>
      .st0 {
        fill: #fbfff4;
        fill-rule: evenodd;
      }
    </style>
  </defs>
  <path class="st0" d="M13.35,2.28C11.88.81,9.92,0,7.84,0,3.56,0,.07,3.49.07,7.78c0,1.37.36,2.71,1.04,3.89l-1.1,4.03,4.12-1.08c1.14.62,2.42.95,3.72.95h0c4.29,0,7.78-3.49,7.78-7.78,0-2.08-.81-4.03-2.28-5.5ZM7.84,14.25h0c-1.16,0-2.3-.31-3.29-.9l-.24-.14-2.45.64.65-2.39-.15-.24c-.65-1.03-.99-2.22-.99-3.44,0-3.56,2.9-6.46,6.47-6.46,1.73,0,3.35.67,4.57,1.9s1.89,2.85,1.89,4.57c0,3.56-2.9,6.47-6.47,6.47ZM11.39,9.41c-.19-.1-1.15-.57-1.33-.63-.18-.06-.31-.1-.44.1-.13.19-.5.63-.62.76-.11.13-.23.15-.42.05-.19-.1-.82-.3-1.56-.96-.58-.52-.97-1.15-1.08-1.35-.11-.19,0-.29.09-.4.21-.26.42-.54.49-.66.06-.13.03-.24-.02-.34-.05-.1-.44-1.05-.6-1.44-.16-.38-.32-.33-.44-.33-.11,0-.24,0-.37,0s-.34.05-.52.24c-.18.19-.68.66-.68,1.62s.7,1.88.79,2.01,1.37,2.09,3.32,2.93c.46.2.83.32,1.11.41.47.15.89.13,1.22.08.37-.06,1.15-.47,1.31-.92.16-.45.16-.84.11-.92-.05-.08-.18-.13-.37-.23Z"/>
</svg>