<?xml version="1.0" encoding="UTF-8"?>
<svg
        xmlns="http://www.w3.org/2000/svg"
        viewBox="0 0 30.5 30.5"
        fill="none">

    <!-- KONUŞMA BALONU (SADECE ÇERÇEVE – BEYAZ) -->
    <path
            d="M15.57,7.34
       c-4.05,0-7.35,3.29-7.35,7.35
       0,1.34.37,2.65,1.07,3.81
       l.19.31-.73,2.74
       2.75-.74.31.19
       c1.14.68,2.44,1.04,3.75,1.04
       4.05,0,7.35-3.29,7.35-7.35
       s-3.3-7.35-7.35-7.35Z"
            stroke="#ffffff"
            stroke-width="1.8"
            fill="none"
            stroke-linejoin="round"/>

    <!-- TELEFON (İÇİ DOLU – BEYAZ) -->
    <path
            d="M19.88,17.45
       c-.27.66-.95,1.09-1.64,1.22
       -.66.12-1.2-.08-1.81-.29
       -.54-.18-1.07-.44-1.55-.74
       -.97-.6-1.82-1.4-2.49-2.31
       -.21-.28-.4-.57-.57-.87
       -.23-.4-.44-.82-.55-1.27
       -.05-.19-.07-.38-.07-.57
       0-.68.25-1.37.79-1.81
       .31-.25.77-.37,1.12-.17
       .38.22.58.76.76,1.14
       .14.3.3.69.24,1.02
       -.06.33-.32.62-.53.86
       -.14.17-.16.31-.05.49
       .7,1.16,1.67,2.01,2.93,2.51
       .17.07.31.05.42-.09
       .22-.27.43-.8.77-.93
       .44-.18.92.07,1.3.29
       .35.21.93.46,1.02.89
       .05.21,0,.43-.08.62Z"
            fill="#ffffff"/>
</svg>
