<?xml version="1.0" encoding="UTF-8"?>
<svg id="Layer_1" data-name="Layer 1" xmlns="http://www.w3.org/2000/svg" width="150" height="150" xmlns:xlink="http://www.w3.org/1999/xlink" viewBox="0 0 150 150">
  <defs>
    <style>
      .cls-1 {
        clip-path: url(#clippath);
      }

      .cls-2 {
        fill: none;
      }

      .cls-2, .cls-3, .cls-4, .cls-5, .cls-6, .cls-7, .cls-8, .cls-9, .cls-10, .cls-11, .cls-12, .cls-13, .cls-14, .cls-15, .cls-16, .cls-17, .cls-18, .cls-19, .cls-20 {
        stroke-width: 0px;
      }

      .cls-3 {
        fill: #f7faf7;
      }

      .cls-4 {
        fill: #f8fbf8;
      }

      .cls-5 {
        fill: #f9fcf9;
      }

      .cls-6 {
        fill: #f9fbf9;
      }

      .cls-7 {
        fill: #94c590;
      }

      .cls-8 {
        fill: #3d9535;
      }

      .cls-9 {
        fill: #a4cea1;
      }

      .cls-10 {
        fill: #aad1a7;
      }

      .cls-11 {
        fill: #9dca9a;
      }

      .cls-12 {
        fill: #8ec189;
      }

      .cls-13 {
        fill: #fdfdfd;
      }

      .cls-14 {
        fill: #fdfdfc;
      }

      .cls-15 {
        fill: #fbfcfb;
      }

      .cls-16 {
        fill: #fefefe;
      }

      .cls-17 {
        fill: #fcfdfb;
      }

      .cls-18 {
        fill: #fcfdfc;
      }

      .cls-19 {
        fill: #fafcf9;
      }

      .cls-20 {
        fill: #fafcfa;
      }
    </style>
    <clipPath id="clippath">
      <circle class="cls-2" cx="75" cy="75" r="72.1"/>
    </clipPath>
  </defs>
  <g class="cls-1">
    <g id="Mtengn">
      <g>
        <path class="cls-8" d="m68.8.9h1.2c.2.2.4.2.6,0h1.4c.7.2,1.3.2,2,0h4.6c.2.2.4.1.6.1.3,0,.6,0,.8-.1h.9c2.1.3,4.3.3,6.4.5,5.4.6,10.5,2.2,15.5,4.3,8.7,3.5,16.5,8.6,23.3,15.1,6.3,6,11.5,12.8,15.4,20.6,3.3,6.6,5.9,13.6,6.8,21,.7,5.8.7,11.6.5,17.4-.2,4.1-.4,8.2-1.3,12.3-2.7,11.1-7.6,21.1-14.8,29.9-6.3,7.6-13.7,13.9-22.5,18.6-7.1,3.8-14.5,6.4-22.4,7.7-2.8.5-5.7.5-8.6.5-5.7.1-11.4.2-17.1-.6-6.2-.8-12.2-2.9-17.9-5.5-6.6-3-12.7-6.8-18.2-11.6-6.6-5.8-12.2-12.5-16.5-20.3-3.7-6.8-6.5-14.1-7.9-21.7-.5-2.6-.3-5.3-.7-8v-1.2c.2-.2.2-.4,0-.6v-.9c.2-.6.2-1.2,0-1.7v-4c.2-.6.2-1.2,0-1.7v-2.6c.3-1.9.3-3.9.5-5.8.5-5.5,2.2-10.6,4.2-15.7,3.5-8.6,8.4-16.3,14.9-23.1,5.8-6.1,12.3-11.1,19.7-15,6.4-3.4,13.2-5.8,20.3-7.1,2.4-.4,4.9-.4,7.3-.6.3,0,.7.1,1-.1Z"/>
        <path class="cls-8" d="m74,.9c-.7.4-1.3.4-2,0h2Z"/>
        <path class="cls-8" d="m.9,71.1c.5.6.3,1.2,0,1.7v-1.7Z"/>
        <path class="cls-8" d="m.9,76.9c.3.6.5,1.2,0,1.7v-1.7Z"/>
        <path class="cls-9" d="m80.1.9c-.2.4-.5.2-.8.2-.2,0-.2-.1,0-.2h.9Z"/>
        <path class="cls-10" d="m.9,79.5c.3.2.4.4,0,.6v-.6Z"/>
        <path class="cls-8" d="m79.2.9c0,0,0,.2,0,.2-.2,0-.5,0-.6-.2h.6Z"/>
        <path class="cls-11" d="m70.5.9c-.2.3-.4.4-.6,0h.6Z"/>
        <path class="cls-16" d="m54.9,66.2c0,1.2-.1,2.1-.2,3.3,2-1.7,3.8-3.2,4.9-5.4.8-1.7,0-3.3-1.3-4.6-1.2-1.2-1.3-2.6-.8-4.1.5-1.5,1.9-1.7,2.9-.5.6.7,1.1,1.6,1.4,2.5.4.9.3,1.5-1,1.2,1.8,3.4,1.7,6.6-.2,9.7-1.2,1.9-2.7,3.5-4.5,4.8-.4.3-1,.5-.8,1.2.2.7.6,1.2,1.4,1.3.8.1,1.6,0,2.3-.5,2.5-1.7,4.6-3.9,5.7-6.7,1-2.7.2-5.4-.6-8-.4-1.4-.9-2.8-1.4-4.2-.2-.5-.2-.9-.2-1.4,0-.9.4-1.8,1.2-2,.8-.2,1.1.8,1.4,1.5,1.3,2.8,2,5.8,2.3,8.9,0,.5,0,1,.5,1.3,1.8-2.9,4.6-4.2,7.8-4.8.7-.1,1-.5,1-1.2,0-.9,0-1.7,0-2.6.3-1.7,2-3.2,3.4-3.1,1.6,0,3.2,1.7,3.4,3.4.3,3-1.2,5.3-4.1,6.3-1.1.4-2.1.6-3.2.9,0,.1,0,.3,0,.4,1,0,1.9,0,2.9,0,2.4,0,4.7,0,7.1,0,.8,0,1.2.2.6,1.1-.4.7-.8,1.6-.9,2.4-.1,1.1-.7,1.5-1.6,1.8-2.4.6-4.8,1.2-7.3,1.5-1.1.1-1.9.7-2.2,1.7-.4,1.1.5,1.6,1.3,2.2.5.3,1,.6,1.5.9.7.4.7,1.1.5,1.8-.2.7-.6,1-1.4,1-3.8-.3-6.9-2-9-5.2-.9-1.3-1.1-1.3-1.9,0-1.5,2.4-3.5,4.4-5.9,5.8-2.6,1.5-5.4.7-6.6-2.1-.4-.9-.7-1-1.6-.6-1.9.9-4,1.7-6,2.5-.7.3-1.3.6-2.1.4-.2-.6.4-.8.7-1.1,2.4-2.2,5-4.3,7.9-6.1.8-.5,1.2-1.1,1.4-2,.3-1.2.6-2.4,1.7-3.7Z"/>
        <path class="cls-16" d="m101.9,71.4c.1,1.3.5,2.5,1.1,3.7.3.6.7.9,1.4.9.6,0,.9-.6,1-1.1.8-2.3,1.8-4.4,3.1-6.5.9-1.5,1.7-1.5,2.7,0,.5.8,1,1.6,1.5,2.3.8.9,1.4.9,2-.2.6-1.3,1-2.7.9-4.2-.2-4.8-.5-9.6-.7-14.4,0-.7-.3-1.4-.7-2-1.4-1.9-2.6-3.9-4.1-5.8-1.5-1.9-1.1-4.1-1.1-6.2,0-.7.4-.6.9-.3,1.2,1,2.2,2.1,3.1,3.4.2.1.4.3.4.5,0,0,0,0,0,0,0-.4.2-.9,0-1.3,0-.8,0-1.6.5-2.3.5-.6.9-.8,1.3,0,.9,1.8,1.7,3.5,2.6,5.3.2.5.6,1.2-.6,1.1-.6,0-.3.5-.3.7-.3,3.3,1.1,6,3.2,8.7.2-1.5-.2-2.8-.4-4.1-.4-3-.9-6.1-1.4-9.1-.2-1.1,0-2,.8-2.8.5-.5.9-.7,1.3.1,1.1,2.1,1.8,4.2,2.1,6.5,0,.2,0,.5,0,.5-1.4.6-.7,1.7-.6,2.6.2,2.4.7,4.7,2.3,6.7.4.6.7,1.2,1,1.9.2.3.3.6,0,.9-.3.3-1.2,0-1,.9.2,1.4.1,2.9.8,4.2.7,1.3,1.5,2.5,2.2,3.7.9,1.6,1.1,4.3.5,6.4-.8-1-1.2-2.1-1.8-3.1-.8.5-.3,1.2-.3,1.7.2,4.8.5,9.7,0,14.5-.2,2.6-.9,5-3.2,6.7-1.4,1-3,1.6-4.8,1.7-.5,0-1.1,0-1.4-.5-.3-.6.2-1.1.6-1.5.6-.5,1.2-.9,1.9-1.3,3.2-1.7,4.9-4.3,4.6-8.1-.2-3.4-.3-6.9-.7-10.3-.6.1-.7.9-1.4,1,0-4.4,0-8.9-.6-13.6-.8,1-.5,2.1-1.3,2.9-.6-1.1.2-2.4-.5-3.4-.7.2-.4.7-.4,1.1,0,2,.1,4.1-.1,6.1,0,1.6-.2,3.3-.3,4.9,0,1.9-1.2,3.1-2.7,3.9-1,.5-2,.4-2.8-.3-.7-.6-1.5-1.2-2.1-1.9-.7-.9-1.4-.7-1.9.3-.6,1.1-.6,2.3-.9,3.5-.4,1.3-.5,3-2.2,3.2-1.6.2-2.6-1.1-3.4-2.3-1.7-2.7-1.7-5.6-.5-8.5.8.1.3.7.4,1.1.1.5,0,1,.1,1.5Z"/>
        <path class="cls-16" d="m36.9,104.2c11.2.6,22.2.5,33.1.6,10.9,0,21.8,0,32.8,0,.2-.3-.2-.6-.3-.9-.1-.8,0-1.4.7-1.9.2-.2.6-.3.6-.2.2.8,1.6.9,1.3,1.8-.5,1.6.6,1.4,1.5,1.5,2.4,0,4.9.5,7.3,0,1.1-.2,2,.3,2.5,1.3.8,1.7,1.2,3.5.6,5.3-.5,1.6-2.2,2.1-3.4.9-.4-.4-.7-.4-1.2-.4-2.2,0-4.3,0-6.5,0-.3,0-.6,0-.8,0-1.4.6-1.8.4-2.2-1.1,0-.4-.2-.8-.1-1.1.5-1.6-.5-1.6-1.6-1.6-17.6,0-35.3,0-52.9,0-1.5,0-3,.3-4.5,0-2.8-.5-5-1.9-6.8-4.5Z"/>
        <path class="cls-16" d="m42.2,43.1c0-.9-.2-1.8-.3-2.7-.1-1,.3-1.7,1.2-2.1.6-.3,1.1-.3,1.4.4.9,1.8,1.6,3.6,2.1,5.5.2.6,0,1.2-.7,1-.9-.2-.8.3-.7.8.4,3.1.8,6.3,1.1,9.4,0,.6,0,1.2,1,.8.9-.4,1.1.3,1.2,1,0,.6,0,1.3.8,1.3.7,0,1.1-.4,1.4-1.1,0-.3.2-.5.4-.8.7-1.1,1.4-1,2,.1.2.3.1,1,.7.9.6,0,.4-.7.5-1.1.3-1.2.3-1.2,1.9-1.6,0,1.8-.2,3.5-.6,5.1-.3,1.4-1.8,2-3.1,1.4-.8-.4-1.3-.4-2,.2-1.1,1-2.3,1.3-3.8,0,0,1.9,0,3.5,0,5.2-.3,6.1-3.9,10.5-9.8,12.2-.7.2-1.5.4-2.3.4-3.5.3-6.1-1.6-6.8-5.1-.4-2-.3-4.1.3-6.1.1-.6.3-1.7,1.3-.6.6.8.4,1.8.6,2.8.6,3,2.4,4.8,5,4.6,2.7-.2,4.9-1.4,6.5-3.6,1.4-1.9,2.2-4.1,2.5-6.4,0-.2-.2-.2,0-.1,0,0,0,0,0,.1-.5,3.6-2.1,6.5-5.2,8.4-2.5,1.6-6.2,1.2-7.9-1-1.2-1.5-1.1-3.4-1.1-5.2.3-1.4.3-2.8.8-4.1.1-.3.2-.7.6-.7.4,0,.5.4.5.7.1,1.2.2,2.4.3,3.6.2,2.5,1.7,3.5,4,2.8,2.3-.7,4.2-2.1,5.3-4.3.3-.7.7-1.4.4-2.2-.7,0-1,.6-1.5.9-1.4.9-3.8.2-3.7-2,0-1.5,0-3.1.9-4.4,1.4-2.1,3.4-2.2,4.9-.2.4.4.6,1.3,1.4,1,.8-.3.7-1.2.6-1.9-.6-4-1.2-8.1-1.7-12.1-.5-.4-.2-1-.3-1.5Z"/>
        <path class="cls-16" d="m33.9,45.6c0-1.2,0-2.3.2-3.4.1-.4.2-.9.7-1,.6-.1.8.4,1.1.8,1,1.7,1.4,3.5,1.2,5.4-.1,1.4.9,3,2.1,3.5.7.3,1.3.1,1.2-.8,0-1-.3-1.9-.8-2.7-.9-1.4-1.3-2.9-1.4-4.5,0-.8.1-1.6.9-1.9.8-.4,1.3.3,1.8.8.5.5.8,1.1,1.1,1.7.4.3.5.7.2,1.2-.6.3-1,.5-.7,1.4.6,1.5.9,3.2.9,4.8,0,2.2-1.7,4.1-3.9,4.2-.9,0-1.4-.5-2-1-.4-.3-.8-.6-1.3-.4-.6.2-.5.8-.5,1.2,0,2.2.1,4.3.2,6.5,0,1.7,0,3.5-.7,5.1-.2.5-.5,1.2-1.2,1.1-.7,0-.4-.9-.4-1.3-.1-2.6-.3-5.3-.3-7.9,0-1.2-.3-1.9-1.7-2-1.3,0-2.2-1.2-2.2-2.7,0-1.7,0-3.4,0-5.1,0-.5.1-1.1-.3-1.6-1,.6-.8,1.6-.9,2.5-.2,1.3,0,2.7-.3,4-.2.8-.5,1.6-1.5,1.7-1,.1-1.6-.5-2-1.3-.4-.7-.6-1.5-.7-2.3-.4-2.5-.2-5-.1-7.8,1,.7.9,1.5,1.1,2.2.3,1.5.6,3.1,1,4.7,0,.3.2.7.6.7.5,0,.6-.5.7-.8.3-1.3.5-2.6.7-3.8.2-1.2.6-2.3,1.3-3.3.3-.5.8-.9,1.4-.8.7.1.8.8.9,1.3.3,1.7.3,3.3.1,5,0,1-.3,2.5.9,2.5,1.1,0,.5-1.6.5-2.5-.2-3.1-1.3-6-1.1-9.1,0-.7-.1-1.6.8-1.7.9,0,1.1.8,1.3,1.5.6,2.2.6,4.5.8,6.7.4.7.5,1.5.6,1.9-.2-.6-.4-1.6-.4-2.6Z"/>
        <path class="cls-16" d="m79.4,37.6c.5-1.2,1.3-.8,1.9-.3,1.2,1,2.4,2,3.5,3.5,0-1.1,0-2,.4-2.7.3-.6.6-1.1,1.3-.2,1.2,1.7,2.3,3.5,2.8,5.5.1.5,1.3,1.4-.3,1.7,0,0,0,.7,0,1.1.2,3.2.9,6.2,2.7,8.9,1.8,2.7,3.1,5.7,4.4,8.7.9,2.1.8,4.2.2,6.3-2.1-4-3.9-8.1-6.1-11.9,0,3,0,6.1,0,9.2,0,1.3,0,2.6-.1,3.9-.2,1.7-.8,3.1-2.4,4.1-.3-.6-.2-1.1-.1-1.6.3-6.8,0-13.6-.6-20.3,0-1-.3-1.9-.9-2.7-2.2-3.5-4.4-6.9-6.7-10.4,0,0-.1-.1-.2-.2-.2-.9.1-1.8.2-2.7Z"/>
        <path class="cls-16" d="m79.5,40.5c0,.7.1,1.4-.9,1.4-.6,0-.6.4-.5.8.3,1.4.6,2.9,1.1,4.3.4,1.1,1.4,1.3,2.6.6.4-.2.7-.7,1.1-.4.5.4.2.9,0,1.3-.4.9-.7,1.8-1.4,2.5-.3.2-.6.6-1,.3-.4-.2-.4-.6-.3-1,.1-.3.3-.7-.2-.8-.4,0-.6.2-.8.5-.3.5-.5.9-.8,1.4-.5,1.1-1.4,1.6-2.5,1.6-1.1,0-1.9-.5-2.4-1.5-.7-1.4-1.2-1.4-2.2-.3-.3.3-.6.7-1,1.1-2,2.2-4.6,1.5-5.5-1.3-.4-1.4-.3-2.8-.4-4.2,0-.3,0-.7-.3-1-.6.2-.6.9-.8,1.4-.3,1.2-.6,2.3-1,3.5-.2.7-.6,1.5-1.5,1.6-1,0-1.6-.5-2.1-1.2-1-1.6-1.5-3.4-1.6-5.3,0-1.7,0-3.3.7-5.1.9,1.5.8,3,1.1,4.4.2,1,.2,2.1.8,3.1.2.3.3.7.7.6.4,0,.5-.4.6-.7.2-.7.4-1.5.5-2.2.5-2,1.4-3.8,2.6-5.4.3-.4.7-.8,1.2-.7.6.1.8.6.9,1.2.2,1.3.2,2.7.2,4,0,.5,0,1,0,1.4,0,1.8.8,3,2.1,3.1,1.1,0,2.4-1.4,2.5-2.9.2-1.8,0-3.6-.6-5.4-.5-1.5-.2-2.8.6-4.1.2-.2.3-.6.6-.6.4,0,.5.4.6.7.7,2.4,1,4.8,1.1,7.2,0,1.3.1,2.5.6,3.7.3.7.7,1.3,1.6,1.1.8-.2,1.3-.7,1.3-1.6,0-1.8-.5-3.4-1.5-4.9-.8-1.2-.7-2.5-.4-3.8.2-.7.6-1.3,1.4-1.5.8-.1,1.4.3,1.8,1,.2.4.5.7.8,1.1.6.2.3.8.6,1.2h0Z"/>
        <path class="cls-16" d="m96.5,37.6c1.1,2,1.9,3.8,2.4,5.7.1.4.3,1-.1,1.2-1.4.7-.9,1.9-.7,2.9,1.1,6.9,1.7,13.9,1.6,21,0,3.9-1.8,7.1-4.3,9.9-.8.9-1.9,1.5-3.1,1.8-.8.2-1.5.1-2.2-.4-1.1-.9-1-1.4.2-2.1,2.4-1.4,4.5-3.1,6.3-5.2.8-1,1.1-2.1,1-3.3-.7-8.6-1.2-17.2-2.2-25.7-.2-1.9.2-3.7,1.3-5.6Z"/>
        <path class="cls-16" d="m101,37.4c1.2,2.3,2.2,4.3,3.2,6.3.2.5.7,1.1-.5,1.2-1.1,0-.6.9-.6,1.4.5,4.2,1.1,8.4,1.6,12.6.4,3.3.8,6.6.7,9.9,0,1.8-.6,3.5-2.2,5.2-.1-2.3-.2-4.3-.3-6.3-.4-7.7-1.4-15.2-2.9-22.7-.5-2.5-.3-5,.9-7.5Z"/>
        <path class="cls-8" d="m29.6,67.5c0,.5.2,1,.2,1.6.6,4.3,4.6,6.3,8.4,4.2,2.8-1.6,4.2-4.3,4.9-7.3.2-.9.4-1.8.6-2.7,0-.2.3-.4.5-.5.3,0,.3.3.4.5,1,5.2-3.6,11.7-8.8,12.5-3.5.6-5.7-1-6.2-4.5-.2-1.1-.2-2.3-.3-3.4.1-.1.2-.3.3-.4Z"/>
        <path class="cls-13" d="m47.6,48.7c.9-1.3,2-2,2.9-2.9.9-.9,1.8-1.7,2.7-2.6.7-.7,1.1-1.2,0-2.1-1-.8-.6-2.8.4-3.2.8-.4,1.6-.4,2.3.2.6.6.6,1.5.2,2.3-.3.6-1,1.1,0,1.8.4.3,0,.6-.2.8-1.4,1.9-3,3.7-4.7,5.3-1,1-2.3.4-3.7.4Z"/>
        <path class="cls-13" d="m109.3,49.6c0-.4.2-1.1,1.1-1.3.9-.2,1.3.5,1.5,1.2.1.7,1.1,1.8-.6,2-.4,0-.4.6-.4,1,0,1-.2,2-.2,3,0,.8-.3.8-.9.5-1.4-.9-2.5-2-3.2-3.4-.3-.6-.3-1.2,0-1.8.4-.8,1.2-1,1.8-.3.2.3.3.8.8.6.5-.2.3-.6.1-1.4Z"/>
        <path class="cls-14" d="m23,64.6c1.4-3.5,3.6-5.6,6.8-6.5.4-.1.9,0,1.3,0,.6.1.8.7.9,1.2.1.5-.4.6-.7.8-2.6,1.4-5.3,2.9-8.3,4.5Z"/>
        <path class="cls-18" d="m23.6,69.4c0,2.2-.5,4.4.2,6.5.1,0,.2,0,.3,0,.5-.2.4-1.3,1.2-.9.6.3.4,1.1.3,1.7,0,.5-.2.9-.4,1.4-.3.6-.6,1.2-1.5,1.1-.8,0-1.3-.5-1.5-1.3-.7-3-.4-5.9,1.3-8.6Z"/>
        <path class="cls-18" d="m114.1,57.4c0,.6-.2,1.1-.6,1.5-1.4,1.4-3,2.7-4.7,3.8-1,.6-1.1,0-1.1-.7,0-.7.3-1.2.8-1.6,1.5-1.2,3-2.4,4.5-3.6.2-.2.5-.6.8-.4.3.2.3.6.3.9Z"/>
        <path class="cls-15" d="m82.6,74.1s0,.2-.1.5c0,.4,0,.8.2,1.1.4.4.7,0,1-.2.1,0,.3-.2.4-.2.8-.2,1.8-.8,2.1.2.4,1.1-.8.9-1.4,1.2-.6.3-1.3.5-2,.9-.9.4-1.5.3-1.5-.9,0-.7.1-1.5-1-1.1,0,0-.2,0-.3,0-.2-.2-.4-.5-.2-.7.6-.7,1.1-1.6,2.2-1.7.5,0,.6.4.5,1.1Z"/>
        <path class="cls-20" d="m119.3,74.6c1.2,0,1.5.4,1.1,1.6-.3.8,0,1,.6,1,1,0,.9.6.4,1.1-.8.8-1.7,1.2-2.8,1.5-.4,0-.7,0-.9-.3-.2-.3,0-.6.1-.8.9-.9,1.8-1.6.3-2.9-.6-.6.3-1.1,1.1-1.1Z"/>
        <path class="cls-19" d="m112.7,68.4c.5-2.4-.4-4.2-.9-6.2-.1-.6,0-1.2.6-1.4.7-.2.9.4,1.1.8.7,1.7.9,3.4.4,5.2-.1.5-.4,1.1-1.3,1.5Z"/>
        <path class="cls-20" d="m71.5,55.5c.4-.2.2-.8.7-.9.6,0,.2.8.7.9.5-.2,0-1.1.8-1.1.3,0,.4.2.5.5,0,.8.5,1.7-.3,2.5-.8.7-1.8.7-2.7.4-.9-.3-1-1.1-1.1-1.9,0-.5,0-1.1.4-1.3.8-.3.4.7,1,.9Z"/>
        <path class="cls-6" d="m92,48.5c.4-1.3.9-1.2,1.2,0,.6-.2.3-1.3,1-1.1.7.2.5,1,.5,1.5,0,1.2-.8,1.9-2,1.9-1.3,0-2-.5-2.1-1.8,0-.6-.2-1.2.5-1.5.7-.3.4.8,1,.9Z"/>
        <path class="cls-17" d="m36.3,38.7q.7-1.1,1.4.2c.4-.2.2-.7.5-.9.3-.3.7-.3.8,0,.2.9.4,2-.5,2.7-.9.7-1.9.7-2.8,0-.9-.6-.7-1.6-.6-2.5,0-.3.2-.4.5-.4.5,0,.3.7.8.9Z"/>
        <path class="cls-20" d="m92.2,45c.4-2-.4-3.6-1.5-5.1-.4-.5-.4-1.2.2-1.7.7-.5,1.1,0,1.5.6,1.3,1.7,1.2,4.2-.3,6.2Z"/>
        <path class="cls-3" d="m55.7,50.1c.2.5-.2.9-.4,1.3-.4.8-1.1,1.1-1.9.9-.8-.1-1.1-.7-1.2-1.4-.2-.8,0-1.5.4-2.2.3-.4.6-1,1.2-.8.5.2.1.8,0,1.2,0,.5-.2,1.2.3,1.5.6.4.9-.6,1.5-.5Z"/>
        <path class="cls-4" d="m26.2,43.3c.3-1.9-.4-3.3-1.2-4.6-.3-.4-.2-1,.3-1.2.6-.3,1.1,0,1.5.5,1,1.3.8,3.6-.6,5.3Z"/>
        <path class="cls-5" d="m69.1,38.2c0,1.2-.3,2.3-.7,3.3-.1.3-.4.6-.7.5-.5,0-.5-.5-.5-.9.1-1,.2-2,.4-3,.1-.6.2-1.5,1-1.4.8.1.4,1,.5,1.5Z"/>
        <path class="cls-3" d="m51.3,69.4c.1-1.6,0-3-1.3-4.1-.3-.3-.3-.8.2-1.1.6-.4,1,0,1.4.4,1.1,1.3,1,3.4-.3,4.9Z"/>
        <path class="cls-3" d="m61.6,36.3c.5.1.4.5.3.8-.2.4-.5.7-.7,1.1-.2.5-.5,1.2.1,1.4.7.2.7.5.4.9-.3.5-.8.9-1.4.6-.9-.6-.7-1.5-.4-2.3.3-1,.8-1.9,1.8-2.4Z"/>
        <path class="cls-8" d="m33.9,45.6c.4,1.2.8,2.3,1.2,3.5.1.4.2.8-.3.9-.4.1-.6-.3-.7-.6-.3-1-.5-2.1-.5-3.2,0-.2.2-.4.3-.6Z"/>
        <path class="cls-8" d="m118.2,66.2v-7.9c.4.2.5.4.5.7-.5,1.3-.1,2.6-.2,4,0,1.1.2,2.2-.3,3.2Z"/>
        <path class="cls-7" d="m101.9,71.4c-.6-.8,0-1.8-.5-2.6.2-.4.4-.6.5,0,0,.9,0,1.7,0,2.6Z"/>
        <path class="cls-8" d="m79.5,40.5c-.2-.4-.4-.8-.6-1.2.2-.6.4-1.1.5-1.7,0,1,0,1.9,0,2.9Z"/>
        <path class="cls-8" d="m125.4,70.9c-.3-.6-.2-1.3-.3-1.9,0-.2,0-.5.2-.4.2,0,.2.4.3.6-.4.5,0,1.2-.3,1.7Z"/>
        <path class="cls-12" d="m113.3,40.2c.3.6.3,1.2.2,1.8,0,0-.2,0-.2,0,0-.3-.2-.6-.2-.9.3-.2.2-.6.3-.9Z"/>
        <path class="cls-8" d="m42.3,44.5c0-.4-.2-.8-.2-1.2,0,0,.1-.2.2-.3.3.4.3.9.3,1.5,0,0-.1,0-.2,0Z"/>
        <path class="cls-8" d="m68.2,68.2c0-1,.5-1.5,1.4-1.4,1.4.2,2.9.4,4.3.6.5,0,1,.2,1,.8,0,.6-.4.7-.8.9-1.5.5-2,1.5-1.8,3,0,.3.2.8-.2,1-.4.2-.7-.1-1-.3-1.6-1.2-2.5-2.7-2.8-4.6Z"/>
        <path class="cls-8" d="m80.3,57.9c0,.4-.2.5-.5.5-.6,0-1-.3-1.1-.9,0-.3,0-.6.4-.6.6,0,1,.4,1.2.9Z"/>
        <path class="cls-8" d="m113.2,41.9c0,0,.1,0,.2,0,0,.5,0,1,.1,1.6q-1.2-.9-.4-1.6Z"/>
        <path class="cls-8" d="m108.7,109.1c1.1,0,2.3,0,3.4,0,.5,0,.8.1.8.7,0,.6-.3.9-.9.8-.7,0-1.4.2-2-.5-.4-.4-1.1-.4-1.5,0-1,.9-2.1.4-3.1.4-.6,0-.8-.4-.7-1,0-.6.5-.6.9-.6,1,0,2,0,3,0v.2Z"/>
        <path class="cls-8" d="m40.4,60.4c0,.5-.2.9-.8.9-.5,0-.9-.1-.9-.6,0-.5.2-1,.9-1.1.6,0,.8.3.9.9Z"/>
        <path class="cls-8" d="m85.4,44.7c-.3-.5-.6-1-.9-1.5-.1-.2-.2-.5,0-.6.3-.2.6,0,.7.3.2.6.5,1.1.2,1.8Z"/>
        <path class="cls-8" d="m54.6,39.6c.4.2.6.5.6,1,0,.3-.2.6-.6.4-.5-.2-.6-.6-.6-1,0-.3.2-.4.5-.4Z"/>
      </g>
    </g>
  </g>
</svg>