<?xml version="1.0" encoding="UTF-8"?>
<svg id="Layer_1" data-name="Layer 1" xmlns="http://www.w3.org/2000/svg" width="150" height="150" xmlns:xlink="http://www.w3.org/1999/xlink" viewBox="0 0 150 150">
  <defs>
    <style>
      .cls-1 {
        clip-path: url(#clippath);
      }

      .cls-2 {
        fill: none;
      }

      .cls-2, .cls-3, .cls-4, .cls-5 {
        stroke-width: 0px;
      }

      .cls-4 {
        fill: #d70027;
      }

      .cls-5 {
        fill: #fed944;
      }
    </style>
    <clipPath id="clippath">
      <circle class="cls-2" cx="75" cy="75" r="72.9"/>
    </clipPath>
  </defs>
  <g class="cls-1">
    <g id="Thbbs6">
      <g>
        <path class="cls-4" d="m150.4,69.1v1.8c-.3.6,0,1.2-.2,1.7,0,.5-.2,1,.2,1.5v1.8c-.2.6-.2,1.2,0,1.8v1.5c-.2.2-.2.4,0,.6v1.5c-.4,1.8-.2,3.7-.5,5.5-.7,4.5-1.8,8.9-3.3,13.2-.2.6-.5,1.3-1.2,1.6-.8.2-1.6.2-2.3.2-45.3,0-90.6,0-135.9,0-.8,0-1.6,0-2.3-.2-.7-.3-1-.9-1.2-1.6C1.6,93.5,0,87.1-.1,80.3c-.1-4.9-.2-9.8.2-14.6.5-5.5,1.9-10.8,3.7-15.9.2-.5.4-1,1-1.2.8-.3,1.6-.2,2.3-.2,45.3,0,90.7,0,136,0,.7,0,1.5,0,2.2.2.9.3,1.1,1.2,1.4,2,1.9,5.9,3.5,11.9,3.5,18.2,0,.2,0,.3.1.4Z"/>
        <path class="cls-3" d="m4.6,48.8c3.9-10.9,10.2-20.3,18.6-28.2C34.5,9.9,47.8,3.2,63.1.8c21.4-3.3,40.8,1.6,58,14.7,11.3,8.6,19.3,19.6,24.4,32.9,0,.1,0,.3.1.4-5.9,0-11.8,0-17.8,0-40.4,0-80.8,0-121.2,0-.7,0-1.4,0-2.1,0Z"/>
        <path class="cls-5" d="m145.7,101.1c-3,8.3-7.4,15.7-13.1,22.4-10.7,12.5-23.9,20.9-40,24.5-24.5,5.5-46.7.2-66.1-15.8-10-8.2-17.1-18.6-21.7-30.7,0-.1,0-.3,0-.4,47,0,94,0,141,0Z"/>
      </g>
    </g>
  </g>
</svg>