<?xml version="1.0" encoding="UTF-8"?>
<svg id="katman_1" data-name="katman 1" xmlns="http://www.w3.org/2000/svg" viewBox="0 0 24.13 23.99">
  <defs>
    <style>
      .cls-1 {
        fill: #003e49;
      }
    </style>
  </defs>
  <path class="cls-1" d="M3.04,6.07c-1.67,0-3.04-1.36-3.04-3.04S1.36,0,3.04,0s3.04,1.36,3.04,3.04-1.36,3.04-3.04,3.04ZM3.04,1c-1.12,0-2.04.91-2.04,2.04s.91,2.04,2.04,2.04,2.04-.91,2.04-2.04-.91-2.04-2.04-2.04Z"/>
  <path class="cls-1" d="M12.07,6.07c-1.67,0-3.04-1.36-3.04-3.04s1.36-3.04,3.04-3.04,3.04,1.36,3.04,3.04-1.36,3.04-3.04,3.04ZM12.07,1c-1.12,0-2.04.91-2.04,2.04s.91,2.04,2.04,2.04,2.04-.91,2.04-2.04-.91-2.04-2.04-2.04Z"/>
  <path class="cls-1" d="M21.1,6.07c-1.67,0-3.04-1.36-3.04-3.04s1.36-3.04,3.04-3.04,3.04,1.36,3.04,3.04-1.36,3.04-3.04,3.04ZM21.1,1c-1.12,0-2.04.91-2.04,2.04s.91,2.04,2.04,2.04,2.04-.91,2.04-2.04-.91-2.04-2.04-2.04Z"/>
  <path class="cls-1" d="M3.04,15.03c-1.67,0-3.04-1.36-3.04-3.04s1.36-3.04,3.04-3.04,3.04,1.36,3.04,3.04-1.36,3.04-3.04,3.04ZM3.04,9.96c-1.12,0-2.04.91-2.04,2.04s.91,2.04,2.04,2.04,2.04-.91,2.04-2.04-.91-2.04-2.04-2.04Z"/>
  <path class="cls-1" d="M12.07,15.03c-1.67,0-3.04-1.36-3.04-3.04s1.36-3.04,3.04-3.04,3.04,1.36,3.04,3.04-1.36,3.04-3.04,3.04ZM12.07,9.96c-1.12,0-2.04.91-2.04,2.04s.91,2.04,2.04,2.04,2.04-.91,2.04-2.04-.91-2.04-2.04-2.04Z"/>
  <path class="cls-1" d="M21.1,15.03c-1.67,0-3.04-1.36-3.04-3.04s1.36-3.04,3.04-3.04,3.04,1.36,3.04,3.04-1.36,3.04-3.04,3.04ZM21.1,9.96c-1.12,0-2.04.91-2.04,2.04s.91,2.04,2.04,2.04,2.04-.91,2.04-2.04-.91-2.04-2.04-2.04Z"/>
  <path class="cls-1" d="M3.04,23.99c-1.67,0-3.04-1.36-3.04-3.04s1.36-3.04,3.04-3.04,3.04,1.36,3.04,3.04-1.36,3.04-3.04,3.04ZM3.04,18.92c-1.12,0-2.04.91-2.04,2.04s.91,2.04,2.04,2.04,2.04-.91,2.04-2.04-.91-2.04-2.04-2.04Z"/>
  <path class="cls-1" d="M12.07,23.99c-1.67,0-3.04-1.36-3.04-3.04s1.36-3.04,3.04-3.04,3.04,1.36,3.04,3.04-1.36,3.04-3.04,3.04ZM12.07,18.92c-1.12,0-2.04.91-2.04,2.04s.91,2.04,2.04,2.04,2.04-.91,2.04-2.04-.91-2.04-2.04-2.04Z"/>
  <path class="cls-1" d="M21.1,23.99c-1.67,0-3.04-1.36-3.04-3.04s1.36-3.04,3.04-3.04,3.04,1.36,3.04,3.04-1.36,3.04-3.04,3.04ZM21.1,18.92c-1.12,0-2.04.91-2.04,2.04s.91,2.04,2.04,2.04,2.04-.91,2.04-2.04-.91-2.04-2.04-2.04Z"/>
</svg>