<?xml version="1.0" encoding="UTF-8"?>
<svg id="Layer_1" data-name="Layer 1" xmlns="http://www.w3.org/2000/svg" width="150" height="150" xmlns:xlink="http://www.w3.org/1999/xlink" viewBox="0 0 150 150">
  <defs>
    <style>
      .cls-1 {
        clip-path: url(#clippath);
      }

      .cls-2 {
        fill: none;
      }

      .cls-2, .cls-3, .cls-4, .cls-5, .cls-6, .cls-7, .cls-8, .cls-9, .cls-10, .cls-11 {
        stroke-width: 0px;
      }

      .cls-3 {
        fill: #da1b3d;
      }

      .cls-4 {
        fill: #da173a;
      }

      .cls-5 {
        fill: #d70027;
      }

      .cls-6 {
        fill: #e57185;
      }

      .cls-7 {
        fill: #ea8d9d;
      }

      .cls-8 {
        fill: #e57286;
      }

      .cls-9 {
        fill: #e67185;
      }

      .cls-10 {
        fill: #efefef;
      }

      .cls-11 {
        fill: #0052b3;
      }
    </style>
    <clipPath id="clippath">
      <circle class="cls-2" cx="75" cy="75" r="72.8"/>
    </clipPath>
  </defs>
  <g class="cls-1">
    <g id="dPJAWm">
      <g>
        <path class="cls-5" d="m81,150.2h-1.2c-.2-.2-.4-.2-.6,0h-1.5c-.7-.2-1.4-.2-2.1,0h-1.2c-.8-.2-1.6-.2-2.3,0h-1.2c-.2-.2-.4-.2-.6,0h-1.5c-.9-.3-1.9,0-2.8-.3-.4,0-.8,0-1-.4-.5-1-.3-2-.3-3,0-19.2,0-38.4,0-57.6q0-3.4-3.4-3.4c-19.2,0-38.5,0-57.7,0-1,0-2.1.2-3-.4-.4-.4-.4-.9-.4-1.3-.4-5.7-.4-11.4,0-17.1,0-.5,0-1,.4-1.4,1-.6,2.1-.5,3.1-.5,19.1,0,38.2,0,57.3,0q3.8,0,3.8-3.7c0-19.1,0-38.3,0-57.4,0-1-.2-2.1.4-3,.3-.4.9-.4,1.3-.4,5.7-.4,11.4-.4,17.1,0,.5,0,1,0,1.4.4.6,1,.5,2.1.5,3.1,0,19.2,0,38.4,0,57.5,0,.7,0,1.4,0,2,0,.9.5,1.4,1.5,1.5.7,0,1.4,0,2,0,19.1,0,38.3,0,57.4,0,1,0,2.1-.2,3,.3.7.7.4,1.6.6,2.4.1.5-.1,1,.2,1.4v.9c-.2.2-.1.4-.1.6,0,.2,0,.4.1.6v1.2c-.2.7-.2,1.4,0,2.1v1.8c-.2.7-.2,1.4,0,2.1v1.2c-.2.2-.2.4,0,.6v1.5c-.3.9,0,1.9-.3,2.8,0,.4,0,.8-.4,1-1,.5-2,.3-3,.3-19.2,0-38.4,0-57.6,0q-3.4,0-3.4,3.4c0,19.2,0,38.4,0,57.6,0,1,.2,2.1-.3,3-.7.7-1.7.4-2.6.6-.5,0-1.1-.1-1.5.2Z"/>
        <path class="cls-4" d="m72.2,150.2c.8-.5,1.6-.4,2.3,0h-2.3Z"/>
        <path class="cls-3" d="m150.2,74.3c-.4-.7-.4-1.4,0-2.1v2.1Z"/>
        <path class="cls-3" d="m150.2,78.1c-.4-.7-.4-1.4,0-2.1v2.1Z"/>
        <path class="cls-4" d="m75.7,150.2c.7-.4,1.4-.4,2.1,0h-2.1Z"/>
        <path class="cls-7" d="m150,70.4c0-.2,0-.5.2-.6v.6c0,.2-.2.2-.2,0Z"/>
        <path class="cls-8" d="m150,70.4c0,0,.2,0,.2,0v.6c-.3-.1-.3-.3-.2-.6Z"/>
        <path class="cls-8" d="m150.2,79.8c-.4-.2-.3-.4,0-.6v.6Z"/>
        <path class="cls-9" d="m70.5,150.2c.2-.4.4-.3.6,0h-.6Z"/>
        <path class="cls-6" d="m79.3,150.2c.2-.3.4-.4.6,0h-.6Z"/>
        <path class="cls-10" d="m134.9,120.6c-.8.9-1.4,1.9-2.4,2.6-1.1.2-1.6-.6-2.2-1.2-6-6-11.9-11.9-17.9-17.9-2.6-2.6-5.1-5.1-7.7-7.7-.7-.8-1.5-1.1-2.6-1.1-1.8,0-3.7,0-5.6,0,.2.6.7.9,1,1.3,9.7,9.7,19.5,19.5,29.2,29.2.6.6,1.5,1.2,1.4,2.3-2.5,2.3-5,4.7-7.7,6.8-.9-.3-1.4-1-2.1-1.6-7.3-7.4-14.7-14.7-22.1-22.1-.3-.3-.5-.6-.9-.7-.3.5-.1,1-.1,1.6,0,11,0,22,0,33,0,.9.1,1.8-.6,2.5-3.3,1.1-6.6,1.5-10,2.1,0-.6.1-1.3.1-1.9,0-20.4,0-40.7,0-61.1,0-1.4.4-1.8,1.8-1.8,20.4,0,40.7,0,61.1,0,.6,0,1.3,0,1.9-.1-.6,3.3-1,6.7-2.1,10-.7.7-1.6.6-2.5.6-11,0-22,0-33,0-.5,0-1,0-1.5,0,0,.4.3.6.6.9,7.4,7.4,14.8,14.8,22.2,22.2.6.6,1.3,1.2,1.6,2.1Z"/>
        <path class="cls-10" d="m22.3,128.5c-2.3-2.6-4.8-5.1-7-7.9.3-.9,1-1.4,1.6-2.1,7.4-7.3,14.7-14.7,22.1-22.1.3-.3.6-.5.8-.9-.5-.3-1.1-.2-1.6-.2-11,0-22,0-33,0-.9,0-1.8.1-2.5-.6-.9-2.6-1.3-5.4-1.8-8.1-.1-.6-.2-1.2-.3-1.9.6,0,1.3.1,1.9.1,20.4,0,40.7,0,61.1,0,1.4,0,1.8.4,1.8,1.8,0,20.4,0,40.7,0,61.1,0,.6,0,1.3.1,1.9-3.3-.6-6.7-1-10-2.1-.7-.7-.6-1.6-.6-2.5,0-11,0-22,0-33,0-.5,0-1,0-1.5-.4,0-.6.3-.9.6-7.4,7.4-14.8,14.8-22.2,22.2-.6.6-1.2,1.3-2.1,1.6-.8-.9-2-1.4-2.7-2.4-.2-1,.6-1.5,1.1-2.1,5.5-5.6,11.1-11.1,16.7-16.7,2.7-2.7,5.4-5.5,8.2-8.2,1.3-1.3,2.1-2.6,1.9-4.5-.2-1.5,0-3,0-4.7-.5.3-.9.8-1.2,1.1-9.8,9.8-19.7,19.7-29.5,29.5-.6.6-1.1,1.1-1.9,1.4Z"/>
        <path class="cls-10" d="m15.3,29.7c.8-.9,1.4-1.9,2.4-2.6,1.1-.2,1.6.6,2.2,1.2,6.1,6.1,12.2,12.2,18.3,18.3,2.4,2.4,4.8,4.8,7.2,7.3.7.8,1.5,1.1,2.6,1.1,1.9,0,3.9,0,6,0-.3-.6-.7-.9-1.1-1.2-9.8-9.8-19.7-19.7-29.5-29.5-.6-.6-1.3-1.1-1.4-2,2.4-2.4,5-4.6,7.6-6.8.9.3,1.4,1,2.1,1.6,7.3,7.4,14.7,14.7,22.1,22.1.3.3.5.6.9.7.3-.5.1-1,.1-1.6,0-11,0-22,0-33,0-.9-.1-1.8.6-2.5,3.2-1.1,6.6-1.5,10-2.1,0,.6-.1,1.3-.1,1.9,0,20.4,0,40.7,0,61.1,0,1.4-.4,1.8-1.8,1.8-20.4,0-40.7,0-61.1,0-.6,0-1.3,0-1.9.1.6-3.3,1-6.7,2.1-10,.7-.7,1.6-.6,2.5-.6,11,0,22,0,33,0,.5,0,1,0,1.6,0-.1-.5-.5-.7-.8-1-7.4-7.4-14.8-14.8-22.2-22.2-.6-.6-1.2-1.2-1.5-2Z"/>
        <path class="cls-10" d="m84.8.7c3.4.5,6.7,1,10,2.1.7.7.6,1.6.6,2.5,0,11,0,22,0,33,0,.5,0,1,0,1.6.5-.1.7-.5,1-.8,7.4-7.4,14.8-14.8,22.2-22.2.6-.6,1.2-1.2,2-1.5.9.8,1.9,1.4,2.6,2.4.2,1.1-.6,1.6-1.2,2.2-6,6-11.9,11.9-17.9,17.9-2.6,2.6-5.1,5.1-7.7,7.7-.7.7-1.1,1.5-1.1,2.6,0,1.9,0,3.9,0,6,.6-.3.9-.7,1.2-1.1,9.8-9.8,19.5-19.5,29.3-29.3.6-.6,1.1-1.4,2.1-1.3,2.1,1.5,3.7,3.5,5.3,5.5.5.6,1,1.3,1.6,1.9-.3.9-1,1.4-1.6,2.1-7.4,7.3-14.7,14.7-22.1,22.1-.3.3-.6.5-.7.9.5.3,1,.1,1.6.1,11,0,22,0,33,0,.9,0,1.8-.1,2.5.6,1.1,3.2,1.5,6.6,2.1,10-.6,0-1.3-.1-1.9-.1-20.4,0-40.7,0-61.1,0-1.4,0-1.8-.4-1.8-1.8,0-20.4,0-40.7,0-61.1,0-.6,0-1.3-.1-1.9Z"/>
        <path class="cls-11" d="m120.6,15.3c.2.5-.2.7-.5,1-8.2,8.2-16.5,16.5-24.7,24.7-.1.1-.3.2-.5.4,0-.3-.1-.4-.1-.5,0-12.7,0-25.5,0-38.2,8.8,2.3,16.8,6.2,24.2,11.5.5.4,1,.7,1.6,1.1Z"/>
        <path class="cls-11" d="m15.3,29.7c.5-.2.7.2,1,.5,8.2,8.2,16.5,16.5,24.7,24.7.1.1.2.3.5.6-13.1,0-25.9,0-38.8,0,2.3-8.9,6.3-16.9,11.6-24.4.3-.5.7-1,1-1.4Z"/>
        <path class="cls-11" d="m2.8,94.8c12.7,0,25.5,0,38.2,0,.1,0,.2,0,.5.1-.4.4-.7.8-1,1.1-7.9,7.9-15.8,15.8-23.7,23.7-.4.4-.6,1.1-1.4.9-5-6.8-9-14.1-11.5-22.2-.4-1.2-.7-2.4-1-3.6Z"/>
        <path class="cls-11" d="m55.5,2.8c0,12.7,0,25.5,0,38.2,0,.1,0,.2-.1.5-.4-.4-.7-.6-1-.9-8-8-15.9-15.9-23.9-23.9-.3-.4-1-.6-.8-1.3,6.1-4.5,12.7-8.2,19.8-10.7,2-.7,3.9-1.4,6-1.8Z"/>
        <path class="cls-11" d="m147.5,55.5c-12.7,0-25.5,0-38.2,0-.1,0-.2,0-.5-.1.4-.4.7-.8,1-1.1,7.9-7.9,15.9-15.9,23.8-23.8.3-.3.6-1,1.3-.8,4.2,5.9,7.9,12,10.4,18.9.8,2.3,1.7,4.6,2.2,6.9Z"/>
        <path class="cls-11" d="m29.7,134.9c-.2-.5.2-.7.5-1,8.2-8.2,16.5-16.5,24.7-24.7.1-.1.3-.2.5-.4,0,.3.1.4.1.5,0,12.7,0,25.5,0,38.2-8.5-2.2-16.3-6-23.5-11-.8-.5-1.5-1-2.3-1.6Z"/>
        <path class="cls-5" d="m128.1,22.3c-.4.4-.8.7-1.2,1.1-10.3,10.2-20.5,20.5-30.7,30.8-.4.4-.6.8-1,1.3-.1,0-.3-.1-.4-.2,0-2.9,0-5.8,0-8.7,0-.5.5-.8.9-1.1,8.9-8.9,17.7-17.7,26.6-26.6.3-.3.7-.7,1-1.1,1.8,1.3,3.6,2.7,4.8,4.6Z"/>
        <path class="cls-5" d="m22.1,22.1c11,11.1,22,22.2,33.3,33.4-2,0-3.9-.2-5.7,0-2.4.2-4-.6-5.7-2.3-8.3-8.5-16.7-16.8-25.1-25.2-.3-.3-.7-.7-1.1-1,1.2-1.9,2.8-3.3,4.4-4.9Z"/>
        <path class="cls-5" d="m22.3,128.5c-.2-.5.2-.7.4-1,10.8-10.8,21.5-21.5,32.3-32.3,0,0,.2,0,.3-.2.4.4.2.9.2,1.4,0,2.5.6,5.2-.2,7.4-.9,2.1-3.3,3.6-5,5.4-7.4,7.4-14.8,14.8-22.2,22.3-.3.3-.7.7-1,1.1-1.8-1.1-3.1-2.8-4.7-4Z"/>
        <path class="cls-11" d="m94.8,147.5c0-12.7,0-25.5,0-38.2,0-.1,0-.2.1-.4.5.1.7.5,1,.8,8,8,15.9,15.9,23.9,23.9.3.3,1,.6.8,1.3-6.1,4.4-12.5,8.1-19.5,10.6-2.1.7-4.1,1.5-6.3,2Z"/>
        <path class="cls-11" d="m134.9,120.6c-.5.2-.7-.2-1-.5-8.2-8.2-16.5-16.5-24.7-24.7-.1-.1-.2-.3-.5-.6h38.8c-2.2,8.6-6,16.4-11.1,23.6-.5.7-1,1.4-1.5,2.2Z"/>
        <path class="cls-5" d="m128.3,128.2c-1.9-1.9-3.8-3.7-5.7-5.6-8.8-8.8-17.5-17.5-26.3-26.3-.4-.4-.8-.7-1.4-1.2,1.3-.5,2.4-.3,3.4-.3,2,0,4.1-.5,5.8.2,1.6.7,2.8,2.5,4.1,3.9,7.8,7.8,15.6,15.6,23.4,23.4.3.3.7.7,1.1,1-1.1,1.9-2.8,3.3-4.3,4.9Z"/>
      </g>
    </g>
  </g>
</svg>