<?xml version="1.0" encoding="UTF-8"?>
<svg id="Layer_1" xmlns="http://www.w3.org/2000/svg" version="1.1" viewBox="0 0 269.65 68.31">
  <!-- Generator: Adobe Illustrator 30.0.0, SVG Export Plug-In . SVG Version: 2.1.1 Build 123)  -->
  <polygon points="64.81 46.8 68.49 46.8 68.49 45.02 64.81 45.02 64.81 43.08 68.85 43.08 68.85 41.29 62.7 41.29 62.7 50.66 69 50.66 69 48.85 64.81 48.85 64.81 46.8"/>
  <polygon points="81.09 50.66 83.2 50.66 83.2 41.29 81.41 41.29 78.09 46.15 74.76 41.29 72.95 41.29 72.95 50.66 75.06 50.66 75.06 45.01 77.34 48.34 78.81 48.34 81.09 45.02 81.09 50.66"/>
  <rect x="87.59" y="41.29" width="2.13" height="9.37"/>
  <path d="M88.66,38.13c-.37,0-.66.11-.88.33-.22.22-.33.5-.33.85s.11.62.33.84c.22.22.52.33.88.33s.65-.11.87-.33c.22-.22.33-.51.33-.84s-.11-.63-.33-.85c-.22-.22-.51-.33-.87-.33Z"/>
  <polygon points="100.06 46.99 95.92 41.29 94.11 41.29 94.11 50.66 96.23 50.66 96.23 44.91 100.36 50.66 102.17 50.66 102.17 41.29 100.06 41.29 100.06 46.99"/>
  <path d="M115.4,45.1c-.71-.17-1.21-.35-1.5-.55s-.43-.44-.43-.72c0-.31.13-.56.38-.73.25-.17.61-.26,1.06-.26.49,0,.87.12,1.15.35.28.24.42.57.42,1h2.05c0-.47-.09-.9-.25-1.28s-.41-.7-.73-.97c-.32-.27-.7-.48-1.15-.62-.45-.15-.95-.22-1.51-.22s-1.02.07-1.45.19c-.43.13-.8.31-1.1.55-.3.24-.54.53-.7.87-.16.34-.24.73-.24,1.16,0,.77.26,1.39.78,1.85.52.47,1.34.82,2.44,1.05.67.14,1.16.32,1.47.52.31.2.46.47.46.8,0,.31-.13.55-.39.73-.26.17-.61.26-1.06.26-.52,0-.93-.12-1.24-.37-.31-.25-.46-.6-.46-1.05h-2.09c0,.48.09.92.26,1.31s.43.73.76,1c.33.28.73.49,1.2.64.47.15,1,.22,1.59.22,1.12,0,1.99-.25,2.63-.74.64-.49.96-1.19.96-2.08,0-.75-.26-1.35-.78-1.81-.52-.46-1.36-.83-2.53-1.1Z"/>
  <polygon points="124.69 46.8 128.37 46.8 128.37 45.02 124.69 45.02 124.69 43.08 128.73 43.08 128.73 41.29 122.57 41.29 122.57 50.66 128.88 50.66 128.88 48.85 124.69 48.85 124.69 46.8"/>
  <path d="M139.87,46.29c.31-.49.47-1.08.47-1.78,0-.5-.08-.95-.25-1.35-.17-.4-.4-.74-.7-1.02-.3-.28-.67-.49-1.1-.64s-.92-.22-1.45-.22h-4v9.37h2.13v-2.92h1.41l1.67,2.92h2.46l-1.94-3.25c.56-.25,1-.62,1.31-1.11ZM137.76,45.58c-.28.25-.68.37-1.21.37h-1.62v-2.84h1.62c.53,0,.93.12,1.21.37s.42.6.42,1.05-.14.81-.42,1.05Z"/>
  <polygon points="150.19 50.66 152.31 50.66 152.31 41.29 150.19 41.29 150.19 44.89 146.52 44.89 146.52 41.29 144.39 41.29 144.39 50.66 146.52 50.66 146.52 46.88 150.19 46.88 150.19 50.66"/>
  <path d="M162.96,50.66h2.28l-3.72-9.37h-2.09l-3.72,9.37h2.28l.63-1.62h3.72l.63,1.62ZM159.15,47.36l1.31-3.43,1.33,3.43h-2.64Z"/>
  <polygon points="175.97 41.29 167.9 41.29 167.9 43.28 170.87 43.28 170.87 50.66 173 50.66 173 43.28 175.97 43.28 175.97 41.29"/>
  <path d="M191.17,50.66h2.28l-3.72-9.37h-2.09l-3.72,9.37h2.28l.63-1.62h3.72l.63,1.62ZM187.37,47.36l1.31-3.43,1.33,3.43h-2.64Z"/>
  <path d="M203.88,46.29c.31-.49.47-1.08.47-1.78,0-.5-.08-.95-.25-1.35-.17-.4-.4-.74-.7-1.02-.3-.28-.67-.49-1.1-.64s-.92-.22-1.45-.22h-4v9.37h2.13v-2.92h1.41l1.67,2.92h2.46l-1.94-3.25c.56-.25,1-.62,1.31-1.11ZM201.77,45.58c-.28.25-.68.37-1.21.37h-1.62v-2.84h1.62c.53,0,.93.12,1.21.37s.42.6.42,1.05-.14.81-.42,1.05Z"/>
  <rect x="208.4" y="41.29" width="2.13" height="9.37"/>
  <path d="M221.1,45.44c.14-.24.28-.51.4-.82l1.3-3.33h-2.3l-.88,2.44c-.08.22-.17.41-.26.56-.09.15-.21.26-.34.35s-.29.15-.48.19c-.19.04-.42.06-.68.06h-.8v-3.6h-2.13v9.37h2.13v-3.79h1.37c.08,0,.15,0,.23-.01l2.01,3.8h2.48l-2.53-4.59c.19-.18.35-.39.5-.62Z"/>
  <path d="M229.51,41.29l-3.72,9.37h2.28l.63-1.62h3.72l.63,1.62h2.28l-3.72-9.37h-2.09ZM229.24,47.36l1.31-3.43,1.33,3.43h-2.64Z"/>
  <polygon points="244.65 46.99 240.51 41.29 238.71 41.29 238.71 50.66 240.82 50.66 240.82 44.91 244.96 50.66 246.77 50.66 246.77 41.29 244.65 41.29 244.65 46.99"/>
  <path d="M86.35,62.02c-.32-.32-.71-.57-1.15-.76-.45-.18-.94-.27-1.48-.27s-1.03.09-1.48.27c-.45.18-.83.43-1.15.76s-.57.71-.75,1.15c-.18.45-.27.94-.27,1.48s.09,1.03.27,1.48c.18.45.43.83.75,1.15.32.32.71.57,1.15.76.45.18.94.27,1.48.27s1.03-.09,1.48-.27c.45-.18.83-.43,1.15-.76.32-.32.57-.71.76-1.15s.27-.94.27-1.48-.09-1.03-.27-1.48-.43-.83-.76-1.15ZM86.26,65.78c-.13.34-.32.63-.56.88s-.53.43-.87.57c-.34.13-.71.2-1.11.2s-.77-.07-1.11-.2c-.34-.14-.62-.32-.87-.57s-.43-.54-.56-.88c-.14-.34-.2-.71-.2-1.12s.07-.78.2-1.12c.13-.34.32-.63.56-.88s.53-.44.87-.57.71-.2,1.11-.2.77.07,1.11.2c.34.13.62.32.87.57s.43.54.56.88c.14.34.2.71.2,1.12s-.07.78-.2,1.12Z"/>
  <path d="M99.51,64.81c.3-.37.44-.84.44-1.42,0-.35-.06-.66-.18-.94s-.28-.52-.49-.72c-.21-.2-.47-.35-.77-.45-.3-.1-.63-.16-.99-.16h-2.69v7.06h.89v-2.53h1.55l1.72,2.53h1.07l-1.77-2.62c.52-.13.92-.38,1.22-.75ZM95.72,64.8v-2.83h1.7c.52,0,.92.12,1.2.37.28.25.42.6.42,1.05s-.14.8-.42,1.04c-.28.25-.68.37-1.2.37h-1.7Z"/>
  <polygon points="106.86 61.97 109.24 61.97 109.24 68.18 110.13 68.18 110.13 61.97 112.51 61.97 112.51 61.12 106.86 61.12 106.86 61.97"/>
  <polygon points="124.36 64.16 120.62 64.16 120.62 61.12 119.74 61.12 119.74 68.18 120.62 68.18 120.62 65 124.36 65 124.36 68.18 125.25 68.18 125.25 61.12 124.36 61.12 124.36 64.16"/>
  <path d="M138.99,62.02c-.32-.32-.71-.57-1.15-.76-.45-.18-.94-.27-1.48-.27s-1.03.09-1.48.27c-.45.18-.83.43-1.15.76s-.57.71-.75,1.15c-.18.45-.27.94-.27,1.48s.09,1.03.27,1.48c.18.45.43.83.75,1.15.32.32.71.57,1.15.76.45.18.94.27,1.48.27s1.03-.09,1.48-.27c.45-.18.83-.43,1.15-.76.32-.32.57-.71.76-1.15s.27-.94.27-1.48-.09-1.03-.27-1.48-.43-.83-.76-1.15ZM138.9,65.78c-.13.34-.32.63-.56.88s-.53.43-.87.57c-.34.13-.71.2-1.11.2s-.77-.07-1.11-.2c-.34-.14-.62-.32-.87-.57s-.43-.54-.56-.88c-.14-.34-.2-.71-.2-1.12s.07-.78.2-1.12c.13-.34.32-.63.56-.88s.53-.44.87-.57.71-.2,1.11-.2.77.07,1.11.2c.34.13.62.32.87.57s.43.54.56.88c.14.34.2.71.2,1.12s-.07.78-.2,1.12Z"/>
  <path d="M152.52,62.11c-.32-.31-.7-.55-1.14-.73-.44-.17-.94-.26-1.48-.26h-2.44v7.06h2.44c.54,0,1.04-.09,1.48-.26.44-.17.82-.41,1.14-.73.32-.31.56-.68.74-1.11s.26-.91.26-1.43-.09-1-.26-1.43-.42-.8-.74-1.11ZM152.42,65.75c-.13.33-.32.61-.55.85-.24.24-.52.42-.86.54s-.7.19-1.1.19h-1.55v-5.36h1.51c.41,0,.78.06,1.12.19.34.13.63.31.87.54.24.24.43.52.56.85s.2.7.2,1.1-.07.77-.2,1.1Z"/>
  <path d="M166.82,62.02c-.32-.32-.71-.57-1.15-.76-.45-.18-.94-.27-1.48-.27s-1.03.09-1.48.27c-.45.18-.83.43-1.15.76s-.57.71-.75,1.15c-.18.45-.27.94-.27,1.48s.09,1.03.27,1.48c.18.45.43.83.75,1.15.32.32.71.57,1.15.76.45.18.94.27,1.48.27s1.03-.09,1.48-.27c.45-.18.83-.43,1.15-.76.32-.32.57-.71.76-1.15s.27-.94.27-1.48-.09-1.03-.27-1.48-.43-.83-.76-1.15ZM166.73,65.78c-.13.34-.32.63-.56.88s-.53.43-.87.57c-.34.13-.71.2-1.11.2s-.77-.07-1.11-.2c-.34-.14-.62-.32-.87-.57s-.43-.54-.56-.88c-.14-.34-.2-.71-.2-1.12s.07-.78.2-1.12c.13-.34.32-.63.56-.88s.53-.44.87-.57.71-.2,1.11-.2.77.07,1.11.2c.34.13.62.32.87.57s.43.54.56.88c.14.34.2.71.2,1.12s-.07.78-.2,1.12Z"/>
  <polygon points="180.03 66.65 176.13 61.12 175.29 61.12 175.29 68.18 176.17 68.18 176.17 62.66 180.07 68.18 180.9 68.18 180.9 61.12 180.03 61.12 180.03 66.65"/>
  <polygon points="188.11 61.97 190.5 61.97 190.5 68.18 191.39 68.18 191.39 61.97 193.77 61.97 193.77 61.12 188.11 61.12 188.11 61.97"/>
  <rect x="201" y="61.12" width=".89" height="7.06"/>
  <path d="M215.12,66.42c-.17.22-.36.4-.59.54-.22.15-.47.26-.74.34-.27.08-.55.12-.86.12-.39,0-.75-.07-1.08-.2-.33-.14-.62-.32-.85-.57s-.42-.54-.55-.88c-.14-.34-.2-.71-.2-1.12s.07-.78.2-1.12c.13-.34.32-.63.55-.88s.52-.44.85-.57.69-.2,1.08-.2c.3,0,.57.04.83.12.26.08.5.19.71.33.22.14.41.31.57.51.16.2.29.43.37.69h.95c-.11-.39-.28-.74-.5-1.05-.22-.31-.48-.58-.78-.8-.3-.22-.63-.39-1-.5-.37-.12-.76-.18-1.18-.18-.52,0-.99.09-1.43.27-.44.18-.81.44-1.13.76-.32.33-.56.71-.74,1.16-.18.45-.27.94-.27,1.47s.09,1.02.27,1.47c.18.45.42.83.74,1.16.31.33.69.58,1.13.76.44.18.91.27,1.43.27.43,0,.84-.06,1.21-.19.38-.12.72-.3,1.03-.53.31-.23.57-.5.79-.83.22-.32.38-.68.49-1.07h-.94c-.09.26-.22.5-.38.72Z"/>
  <path d="M228.17,65.05c-.2-.17-.46-.33-.78-.46-.32-.14-.7-.26-1.15-.37-.34-.08-.63-.17-.86-.26s-.42-.19-.56-.29-.25-.21-.31-.33c-.06-.12-.09-.25-.09-.4,0-.34.14-.61.43-.81.29-.19.68-.29,1.18-.29s.94.12,1.23.37c.3.25.46.58.47,1h.88c0-.34-.06-.65-.18-.93-.12-.28-.29-.51-.52-.7-.23-.19-.5-.34-.81-.44s-.67-.15-1.07-.15-.73.05-1.04.14c-.31.09-.58.22-.8.39-.22.17-.39.37-.5.61-.12.24-.18.51-.18.81,0,.54.2.98.6,1.31.4.33,1.04.59,1.9.8.64.15,1.1.32,1.38.52.28.2.42.46.42.79,0,.35-.14.62-.43.82-.29.2-.69.29-1.19.29-.55,0-1-.13-1.34-.38-.35-.26-.53-.61-.54-1.07h-.89c0,.34.07.65.2.94.13.28.32.52.56.73.24.2.53.36.87.47.34.11.72.17,1.14.17.38,0,.73-.04,1.04-.14.31-.09.58-.22.8-.39.22-.17.39-.38.51-.62.12-.25.18-.52.18-.83,0-.26-.05-.5-.14-.71-.09-.21-.24-.4-.44-.57Z"/>
  <path d="M269.41,18.24c-.18-.55-.32-1.2-.41-1.85,0-.27-.01-.55-.05-.85l-.1-1.12c-.46-3.26-3.31-6.28-8.51-9.09-2.68-1.39-6.17-2.63-10.47-3.72-4.43-.92-9.89-1.46-16.34-1.59-6.6-.1-12.93.34-18.96,1.37-6.05,1.02-11.92,2.35-17.61,3.93-10.5,2.96-20.9,6.27-31.17,9.96-10.13,3.67-21.16,5.93-33.06,6.76-14,1.04-25.03-.08-33.14-3.35-1.75-.73-3.33-1.4-4.76-2.01.01-.21-.01-.42-.08-.64-.14-.41-.4-.71-.78-.91-.39-.19-.78-.22-1.19-.08-.41.14-.73.43-.95.87-1.92,4.01-3.8,7.32-5.64,9.93-1.84,2.61-3.35,4.37-4.53,5.27-1.18.91-2.16,1.28-2.93,1.11-.28,0-.54-.09-.78-.29-.25-.19-.59-.65-1.03-1.36-.44-.71-.82-1.61-1.15-2.68-.33-1.07-.66-2.65-.99-4.74-.33-2.09-.55-4.48-.66-7.17-.06-.77-.44-1.25-1.15-1.44-.71-.19-1.29-.01-1.73.54-.28.38-.77,1.07-1.48,2.06-3.19,4.4-5.88,7.77-8.07,10.14-.44.44-.82.8-1.15,1.07-.33-1.76.26-4.71,1.77-8.86,1.51-4.15,3.39-7.02,5.64-8.61,1.98-1.43,3.93-.99,5.85,1.32.27.33.63.51,1.07.54.44.03.82-.1,1.15-.37.33-.27.51-.63.54-1.07.03-.44-.1-.82-.37-1.15-2.47-2.97-5.16-3.93-8.07-2.88-1.98.66-3.82,2.28-5.52,4.86-.48.73-.93,1.47-1.34,2.22-.21.1-19.89,23.27-20.32,23.81-.66-1.65-1.51-3.27-2.55-4.86-2.47-3.73-4.34-6.85-5.6-9.35-1.26-2.5-1.84-4.66-1.73-6.47.17-3.41,1.68-5.96,4.53-7.66,2.36-1.43,4.53-1.68,6.51-.74.38.16.78.18,1.19.04.41-.14.71-.4.91-.78.19-.38.22-.78.08-1.19-.14-.41-.4-.73-.78-.95-1.43-.66-2.99-.91-4.7-.74-1.7.17-3.32.71-4.86,1.65-1.81,1.1-3.25,2.53-4.33,4.29-.72,1.19-1.21,2.48-1.49,3.87-.06.06-.14.1-.19.16-5.93,8.35-11.32,14.23-16.15,17.63-2.58,1.87-4.7,2.2-6.34.99-.28-.22-.54-.49-.78-.83-.25-.33-.52-.89-.82-1.69-.3-.79-.49-1.73-.58-2.8s.01-2.51.29-4.33c.27-1.81.74-3.79,1.4-5.93,3.95-3.35,6.95-6.48,8.98-9.39,2.03-2.91,2.75-5.16,2.14-6.76-.38-1.15-1.21-1.7-2.47-1.65-1.76.05-3.74,1.54-5.93,4.45-2.2,2.91-4.07,6.87-5.6,11.86v.08c-.99,3.08-1.61,5.82-1.85,8.24-.25,2.42-.18,4.37.21,5.85.38,1.48.84,2.64,1.36,3.46.52.83,1.11,1.48,1.77,1.98,1.15.82,2.5,1.24,4.04,1.24,1.98,0,3.98-.71,6.02-2.14,4.44-3.15,9.29-8.21,14.55-15.16.29,1.36.79,2.78,1.52,4.29,1.32,2.75,3.35,6.18,6.1,10.3,1.32,1.98,2.28,4.01,2.88,6.1-9.45,12.85-12.72,20.68-9.81,23.48.55.55,1.24.82,2.06.82,1.32,0,2.75-.66,4.28-1.98,1.65-1.32,3.08-3.02,4.28-5.11s2.14-4.59,2.8-7.5c.66-2.91.6-5.93-.16-9.06.88-1.15,1.78-2.33,2.72-3.54,1.27-1.59,5.68-6.79,13.2-15.57-.38,1.64-.6,3.14-.6,4.44-.05,2.36.58,3.79,1.9,4.29,1.32.6,2.91-.08,4.78-2.06,2.09-2.31,4.48-5.27,7.17-8.9.88,9.17,3.16,14.12,6.84,14.83.33.05.63.08.91.08,4.4,0,9.38-5.54,14.94-16.6.01.02.02.04.03.06,1.51.61,3.15,1.32,4.97,2.13,7.97,3.43,19.4,4.59,34.27,3.47,6.83-.51,13.27-1.43,19.28-2.75,6.01-1.33,11.94-2.94,17.74-4.84,10.63-3.27,20.95-6.58,30.97-9.93,10.17-3.37,21.1-5.02,32.79-4.94,5.4.07,10.09.53,14.06,1.34,3.84.83,7.08,1.87,9.75,3.11,4.71,2.1,7.47,4.45,8.31,7.09.18.51.3.97.37,1.38-.22.77-.61,1.81-1.1,2.51h-.01s0,.03,0,.03c-.12.15-.23.3-.35.41-.07.07-.12.18-.17.26-.54.86-.46,2.08.16,2.97l2.8.95c1.13-.39,2-1.58,1.9-2.62-.04-.41-.1-.84-.23-1.24ZM12.96,4.14c-.61,2.03-2.5,4.64-5.69,7.83,1.87-4.01,3.76-6.62,5.69-7.83ZM36.11,57.69c-.99,1.43-1.98,2.54-2.97,3.34s-1.73,1.22-2.22,1.28c-.11-.44-.01-1.22.29-2.35.3-1.13,1.15-2.98,2.55-5.56s3.25-5.52,5.56-8.82c.27,4.39-.8,8.43-3.21,12.11Z"/>
</svg>