<?xml version="1.0" encoding="UTF-8"?>
<svg id="Layer_1" data-name="Layer 1" xmlns="http://www.w3.org/2000/svg" viewBox="0 0 410.85 54.17">
  <defs>
    <style>
      .cls-1 {
        fill: #fff;
      }
    </style>
  </defs>
  <path class="cls-1" d="M9.03,7.24h4.25c2.69,0,4.69.64,5.99,1.93,1.3,1.29,1.95,3.36,1.95,6.21v8.56c0,2.88-.65,4.95-1.95,6.23-1.3,1.28-3.3,1.91-5.99,1.91h-4.25c-2.69,0-4.69-.64-5.99-1.91-1.3-1.28-1.95-3.35-1.95-6.23v-8.56c0-2.85.65-4.93,1.95-6.21,1.3-1.29,3.29-1.93,5.99-1.93M13.1,9.12h-3.9c-2.11,0-3.65.48-4.63,1.43-.97.95-1.46,2.56-1.46,4.84v8.53c0,2.3.49,3.92,1.46,4.87.97.95,2.52,1.43,4.63,1.43h3.9c2.11,0,3.65-.48,4.63-1.43.97-.95,1.46-2.58,1.46-4.87v-8.53c0-2.27-.49-3.89-1.46-4.84-.97-.95-2.52-1.43-4.63-1.43"/>
  <path class="cls-1" d="M28.77,31.71v6.72h-1.91V13.82c2.48-.49,5.02-.73,7.62-.73h1.43c2.18,0,3.84.56,4.98,1.67,1.14,1.11,1.71,2.69,1.71,4.73v6.23c0,2.04-.57,3.61-1.71,4.72-1.14,1.1-2.8,1.65-4.98,1.65h-1.43c-1.55,0-3.46-.13-5.71-.38M34.13,30.35h1.64c3.25,0,4.87-1.57,4.87-4.7v-6.09c0-3.13-1.62-4.7-4.87-4.7h-1.64c-1.79,0-3.57.13-5.36.38v14.76c1.9.23,3.69.35,5.36.35"/>
  <path class="cls-1" d="M49.62,31.8c-.28.29-.63.44-1.04.44s-.77-.15-1.04-.44c-.28-.29-.42-.63-.42-1.03s.14-.74.42-1.03c.28-.29.63-.44,1.04-.44s.77.15,1.04.44c.28.29.42.63.42,1.03s-.14.74-.42,1.03"/>
  <path class="cls-1" d="M73.25,31.88h-10.72V7.45h10.72c2.69,0,4.69.64,5.99,1.93,1.3,1.29,1.95,3.36,1.95,6.21v8.15c0,2.88-.65,4.95-1.95,6.23-1.3,1.28-3.3,1.91-5.99,1.91M64.55,30h8.53c2.11,0,3.65-.48,4.63-1.43.97-.95,1.46-2.58,1.46-4.87v-8.11c0-2.27-.49-3.89-1.46-4.84-.97-.95-2.52-1.43-4.63-1.43h-8.53v20.68Z"/>
  <path class="cls-1" d="M88.71,18.94v12.95h-1.91v-12.95c0-3.83,1.95-5.74,5.85-5.74h2.33c.37,0,.77.01,1.18.03.42.02.86.06,1.34.1.48.05.83.08,1.06.1v1.5h-5.88c-1.28,0-2.26.35-2.94,1.06-.68.71-1.03,1.69-1.03,2.94"/>
  <path class="cls-1" d="M104.16,31.8c-.28.29-.63.44-1.04.44s-.77-.15-1.04-.44c-.28-.29-.42-.63-.42-1.03s.14-.74.42-1.03c.28-.29.63-.44,1.04-.44s.77.15,1.04.44c.28.29.42.63.42,1.03s-.14.74-.42,1.03"/>
  <path class="cls-1" d="M122.47,31.88h-6.2V7.45h6.2v24.44ZM117.56.71c.49-.48,1.09-.71,1.81-.71s1.32.24,1.81.71c.49.48.73,1.06.73,1.76s-.24,1.29-.73,1.78c-.49.49-1.09.73-1.81.73s-1.32-.24-1.81-.73c-.49-.49-.73-1.08-.73-1.78s.24-1.28.73-1.76"/>
  <path class="cls-1" d="M139.21,31.88h-11.77V7.45h11.73c2.34,0,4.14.54,5.38,1.62,1.24,1.08,1.86,2.65,1.86,4.72v1.22c0,1-.24,1.87-.71,2.63-.48.75-1.11,1.31-1.9,1.65.9.26,1.61.79,2.12,1.6.51.81.77,1.82.77,3.03v1.46c0,4.34-2.49,6.51-7.48,6.51M133.64,17.06h4.49c.65,0,1.18-.16,1.58-.49.41-.32.61-.79.61-1.39v-.94c0-1.25-.73-1.88-2.19-1.88h-4.49v4.7ZM138.17,21.76h-4.52v5.26h4.52c.72,0,1.29-.19,1.71-.56.42-.37.63-.88.63-1.53v-1.08c0-.67-.21-1.19-.63-1.55-.42-.36-.99-.54-1.71-.54"/>
  <path class="cls-1" d="M157.03,24.33v7.55h-6.2V7.45h11.24c2.85,0,4.97.63,6.35,1.9,1.38,1.26,2.07,3.24,2.07,5.93v1.46c0,3.43-1.23,5.67-3.69,6.72l4.53,8.42h-6.72l-3.76-7.55h-3.83ZM157.03,19.46h4.56c1.81,0,2.71-.88,2.71-2.65v-1.81c0-1.76-.91-2.65-2.71-2.65h-4.56v7.1Z"/>
  <path class="cls-1" d="M190.52,31.88l-1.36-4.21h-8.7l-1.36,4.21h-6.4l8.63-24.44h6.96l8.63,24.44h-6.4ZM184.81,14.45l-2.75,8.32h5.5l-2.75-8.32Z"/>
  <polygon class="cls-1" points="205.56 31.88 199.36 31.88 199.36 7.45 205.56 7.45 205.56 17.16 213.25 17.16 213.25 7.45 219.45 7.45 219.45 31.88 213.25 31.88 213.25 22.21 205.56 22.21 205.56 31.88"/>
  <path class="cls-1" d="M230.62,31.88h-6.2V7.45h6.2v24.44ZM225.71.71c.49-.48,1.09-.71,1.81-.71s1.32.24,1.81.71c.49.48.73,1.06.73,1.76s-.24,1.29-.73,1.78c-.49.49-1.09.73-1.81.73s-1.32-.24-1.81-.73c-.49-.49-.73-1.08-.73-1.78s.24-1.28.73-1.76"/>
  <polygon class="cls-1" points="248.93 23.91 255.85 7.45 262.22 7.45 262.22 31.88 256.31 31.88 256.31 20.05 251.26 31.88 246.6 31.88 241.55 20.05 241.55 31.88 235.63 31.88 235.63 7.45 242 7.45 248.93 23.91"/>
  <path class="cls-1" d="M284.61,36.51c0-.44-.2-.66-.59-.66h-.91c-.28,0-.74.06-1.39.17l-1.01-.73,1.36-3.1c-3.02-.05-5.19-.73-6.51-2.05-1.32-1.32-1.98-3.46-1.98-6.4v-8.11c0-2.99.69-5.16,2.07-6.49,1.38-1.33,3.65-2,6.81-2h2.12c2.65,0,4.95.2,6.93.59v4.46h-8.35c-1.16,0-2.01.28-2.56.84-.55.56-.82,1.46-.82,2.72v7.9c0,1.25.27,2.15.82,2.7.54.55,1.4.82,2.56.82h8.53v4.49c-1.76.32-3.81.51-6.13.56l-.7,1.5c.19-.16.48-.24.87-.24h.45c.74,0,1.35.23,1.81.68.46.45.7,1.11.7,1.97v.7c0,.93-.32,1.64-.96,2.14-.64.5-1.51.75-2.63.75h-1.22c-1.07,0-2.03-.09-2.89-.28v-2.26h3.03c.39,0,.59-.21.59-.63"/>
  <path class="cls-1" d="M307.68,32.2h-3.76c-3.16,0-5.42-.66-6.81-1.98-1.38-1.32-2.07-3.48-2.07-6.47v-8.11c0-2.99.69-5.16,2.07-6.49,1.38-1.33,3.65-2,6.81-2h3.76c3.16,0,5.42.67,6.81,2,1.38,1.33,2.07,3.5,2.07,6.49v8.11c0,2.99-.69,5.15-2.07,6.47-1.38,1.32-3.65,1.98-6.81,1.98M304.62,27.15h2.37c1.16,0,2.01-.27,2.56-.82.54-.54.82-1.44.82-2.7v-7.9c0-1.25-.27-2.16-.82-2.72-.55-.56-1.4-.84-2.56-.84h-2.37c-1.16,0-2.01.28-2.56.84-.55.56-.82,1.46-.82,2.72v7.9c0,1.25.27,2.15.82,2.7.54.55,1.4.82,2.56.82"/>
  <polygon class="cls-1" points="320.91 7.45 327.11 7.45 327.11 26.84 337.79 26.84 337.79 31.88 320.91 31.88 320.91 7.45"/>
  <polygon class="cls-1" points="346.95 31.88 340.75 31.88 340.75 7.45 346.95 7.45 346.95 17.16 354.64 17.16 354.64 7.45 360.84 7.45 360.84 31.88 354.64 31.88 354.64 22.21 346.95 22.21 346.95 31.88"/>
  <path class="cls-1" d="M381.13,31.88l-1.36-4.21h-8.7l-1.36,4.21h-6.4l8.63-24.44h6.96l8.63,24.44h-6.4ZM375.42,14.45l-2.75,8.32h5.5l-2.75-8.32Z"/>
  <polygon class="cls-1" points="403.82 7.45 410.02 7.45 410.02 31.88 403.75 31.88 396.17 17.82 396.17 31.88 389.97 31.88 389.97 7.45 396.24 7.45 403.82 21.51 403.82 7.45"/>
  <path class="cls-1" d="M8.48,48.01v5.94c-.93.15-2.11.23-3.54.23h-1.27c-1.25,0-2.17-.3-2.77-.89-.6-.59-.9-1.55-.9-2.87v-3.94c0-1.32.3-2.28.9-2.87.6-.59,1.52-.89,2.77-.89h2.29c.89.04,1.49.09,1.79.13v.74H3.73c-.97,0-1.67.22-2.12.66-.45.44-.68,1.19-.68,2.24v3.91c0,1.05.23,1.8.68,2.24.45.44,1.16.66,2.12.66h1.92c.49,0,1.13-.01,1.9-.03v-4.39h-3.25v-.87h4.19Z"/>
  <path class="cls-1" d="M18.19,50.21h-6.31v.93c0,1.46.75,2.19,2.24,2.19h3.65v.68c-1.03.08-1.81.11-2.33.11h-1.38c-1.01,0-1.77-.25-2.29-.76-.52-.5-.78-1.23-.78-2.17v-2.85c0-.94.26-1.67.78-2.19.52-.52,1.29-.77,2.29-.77h1.08c1,0,1.76.26,2.28.77.52.51.78,1.24.78,2.19v1.87ZM17.31,49.39v-1c0-1.46-.75-2.19-2.25-2.19h-.93c-1.49,0-2.24.73-2.24,2.19v1h5.43Z"/>
  <path class="cls-1" d="M21.54,54.07h-.9v-8.36c1.16-.23,2.35-.34,3.57-.34h.55c1.01,0,1.78.25,2.3.76.53.5.79,1.23.79,2.17v5.76h-.9v-5.72c0-1.44-.75-2.16-2.25-2.16h-.66c-.82,0-1.65.06-2.5.18v7.7Z"/>
  <path class="cls-1" d="M37.49,50.21h-6.31v.93c0,1.46.75,2.19,2.24,2.19h3.65v.68c-1.03.08-1.81.11-2.33.11h-1.38c-1.01,0-1.77-.25-2.29-.76-.52-.5-.78-1.23-.78-2.17v-2.85c0-.94.26-1.67.78-2.19.52-.52,1.29-.77,2.29-.77h1.08c1,0,1.76.26,2.28.77.52.51.78,1.24.78,2.19v1.87ZM36.61,49.39v-1c0-1.46-.75-2.19-2.25-2.19h-.93c-1.49,0-2.24.73-2.24,2.19v1h5.43Z"/>
  <rect class="cls-1" x="40.01" y="42.45" width=".9" height="11.62"/>
  <path class="cls-1" d="M46.81,50.39v-3.91c0-1.32.3-2.28.9-2.87.6-.59,1.52-.89,2.77-.89h2.13c.89.04,1.49.09,1.79.13v.74h-3.85c-.97,0-1.67.22-2.12.66-.45.44-.68,1.19-.68,2.24v3.86c0,1.05.23,1.8.68,2.24.45.44,1.16.66,2.12.66h3.93v.76c-.59.08-1.37.11-2.33.11h-1.66c-1.25,0-2.17-.29-2.77-.88-.6-.58-.9-1.54-.9-2.86"/>
  <path class="cls-1" d="M63.69,50.21h-6.31v.93c0,1.46.75,2.19,2.24,2.19h3.65v.68c-1.03.08-1.81.11-2.33.11h-1.38c-1.01,0-1.77-.25-2.29-.76-.52-.5-.78-1.23-.78-2.17v-2.85c0-.94.26-1.67.78-2.19.52-.52,1.29-.77,2.29-.77h1.08c1,0,1.76.26,2.28.77.52.51.78,1.24.78,2.19v1.87ZM62.8,49.39v-1c0-1.46-.75-2.19-2.25-2.19h-.93c-1.49,0-2.24.73-2.24,2.19v1h5.43Z"/>
  <path class="cls-1" d="M67.02,48.09v5.99h-.89v-5.99c0-1.77.9-2.66,2.7-2.66h1.08c.17,0,.35,0,.55.02.19.01.4.03.62.05.22.02.38.04.49.05v.69h-2.72c-.59,0-1.04.16-1.36.49-.32.33-.47.78-.47,1.36"/>
  <path class="cls-1" d="M74.42,48.09v5.99h-.89v-5.99c0-1.77.9-2.66,2.7-2.66h1.08c.17,0,.35,0,.55.02.19.01.4.03.62.05.22.02.38.04.49.05v.69h-2.72c-.59,0-1.04.16-1.36.49-.32.33-.47.78-.47,1.36"/>
  <path class="cls-1" d="M83.99,49.04c.78,0,1.66.06,2.64.19v-.82c0-1.45-.76-2.17-2.27-2.17h-3.19v-.68c1.17-.09,1.95-.13,2.33-.13h.97c1.01,0,1.77.25,2.29.75.52.5.77,1.22.77,2.17v5.51c-1.09.21-2.28.32-3.54.32h-.72c-.92,0-1.63-.2-2.11-.6-.48-.4-.72-.96-.72-1.69v-.55c0-.73.24-1.3.72-1.7.48-.4,1.19-.6,2.11-.6h.72ZM86.63,53.21v-3.19c-.86-.11-1.69-.16-2.48-.16h-.82c-1.33,0-2,.51-2,1.53v.45c0,1.02.67,1.53,2,1.53h.82c.79,0,1.62-.05,2.48-.16"/>
  <path class="cls-1" d="M90.27,42.45h.89v3.14c1.07-.14,1.97-.21,2.69-.21h.55c1.01,0,1.78.25,2.3.76.53.5.79,1.23.79,2.17v5.76h-.9v-5.72c0-1.44-.76-2.16-2.27-2.16h-.64c-.82,0-1.65.06-2.51.18v7.7h-.89v-11.62Z"/>
  <path class="cls-1" d="M100.27,42.64c.12-.13.28-.19.46-.19s.34.06.46.19c.12.13.19.28.19.45s-.06.32-.19.45c-.12.13-.28.19-.46.19s-.34-.06-.46-.19c-.12-.13-.19-.28-.19-.45s.06-.32.19-.45M100.28,45.48h.9v8.6h-.9v-8.6Z"/>
  <path class="cls-1" d="M107.36,50.39v-7.61h.93v7.58c0,1.05.23,1.8.68,2.24.45.44,1.16.66,2.14.66h1.48c.98,0,1.69-.22,2.14-.66.45-.44.68-1.19.68-2.24v-7.58h.93v7.61c0,1.32-.3,2.27-.9,2.86-.6.58-1.52.88-2.77.88h-1.66c-1.25,0-2.17-.29-2.76-.88-.6-.58-.89-1.54-.89-2.86"/>
  <polygon class="cls-1" points="119.98 53.25 125.52 53.25 125.52 54.07 118.82 54.07 118.82 53.37 124.23 46.3 118.92 46.3 118.92 45.48 125.39 45.48 125.39 46.19 119.98 53.25"/>
  <path class="cls-1" d="M128.77,54.07h-.9v-8.36c1.09-.23,2.1-.34,3.01-.34h.31c.89,0,1.58.18,2.08.55,1.02-.36,2.04-.55,3.06-.55h.24c2.04,0,3.06.96,3.06,2.88v5.81h-.9v-5.76c0-.71-.18-1.24-.54-1.59-.36-.35-.93-.52-1.7-.52h-.35c-.76,0-1.52.12-2.29.37.24.41.35.94.35,1.61v5.89h-.9v-5.84c0-.7-.17-1.21-.51-1.54-.34-.33-.89-.49-1.67-.49h-.42c-.52,0-1.16.05-1.93.16v7.71Z"/>
  <path class="cls-1" d="M145.69,49.04c.78,0,1.66.06,2.64.19v-.82c0-1.45-.76-2.17-2.27-2.17h-3.19v-.68c1.17-.09,1.95-.13,2.33-.13h.97c1.01,0,1.77.25,2.29.75.52.5.77,1.22.77,2.17v5.51c-1.09.21-2.28.32-3.54.32h-.72c-.92,0-1.63-.2-2.11-.6-.48-.4-.72-.96-.72-1.69v-.55c0-.73.24-1.3.72-1.7.48-.4,1.19-.6,2.11-.6h.72ZM148.33,53.21v-3.19c-.86-.11-1.69-.16-2.48-.16h-.82c-1.33,0-2,.51-2,1.53v.45c0,1.02.67,1.53,2,1.53h.82c.79,0,1.62-.05,2.48-.16"/>
  <path class="cls-1" d="M152.87,54.07h-.9v-8.36c1.16-.23,2.35-.34,3.57-.34h.55c1.01,0,1.78.25,2.3.76.53.5.79,1.23.79,2.17v5.76h-.9v-5.72c0-1.44-.75-2.16-2.25-2.16h-.66c-.82,0-1.65.06-2.5.18v7.7Z"/>
  <rect class="cls-1" x="161.98" y="45.48" width=".9" height="8.6"/>
  <rect class="cls-1" x="169.16" y="42.77" width=".93" height="11.3"/>
  <polygon class="cls-1" points="182.22 52.95 186.74 42.77 187.97 42.77 187.97 54.08 187.03 54.08 187.03 44.42 182.72 54.08 181.72 54.08 177.41 44.42 177.41 54.08 176.47 54.08 176.47 42.77 177.7 42.77 182.22 52.95"/>
  <path class="cls-1" d="M197.8,50.21h-6.31v.93c0,1.46.75,2.19,2.24,2.19h3.65v.68c-1.03.08-1.81.11-2.33.11h-1.38c-1.01,0-1.77-.25-2.29-.76-.52-.5-.78-1.23-.78-2.17v-2.85c0-.94.26-1.67.78-2.19.52-.52,1.29-.77,2.29-.77h1.08c1,0,1.76.26,2.28.77.52.51.78,1.24.78,2.19v1.87ZM196.92,49.39v-1c0-1.46-.75-2.19-2.25-2.19h-.93c-1.49,0-2.24.73-2.24,2.19v1h5.43Z"/>
  <path class="cls-1" d="M201.15,54.07h-.9v-8.36c1.09-.23,2.1-.34,3.01-.34h.31c.89,0,1.58.18,2.08.55,1.02-.36,2.04-.55,3.06-.55h.24c2.04,0,3.06.96,3.06,2.88v5.81h-.9v-5.76c0-.71-.18-1.24-.54-1.59-.36-.35-.93-.52-1.7-.52h-.35c-.76,0-1.52.12-2.29.37.24.41.35.94.35,1.61v5.89h-.9v-5.84c0-.7-.17-1.21-.51-1.54-.34-.33-.89-.49-1.67-.49h-.42c-.52,0-1.16.05-1.93.16v7.71Z"/>
  <path class="cls-1" d="M221.65,50.21h-6.31v.93c0,1.46.75,2.19,2.24,2.19h3.65v.68c-1.03.08-1.81.11-2.33.11h-1.38c-1.01,0-1.77-.25-2.29-.76-.52-.5-.78-1.23-.78-2.17v-2.85c0-.94.26-1.67.78-2.19.52-.52,1.29-.77,2.29-.77h1.08c1,0,1.76.26,2.28.77.52.51.78,1.24.78,2.19v1.87ZM220.76,49.39v-1c0-1.46-.75-2.19-2.25-2.19h-.93c-1.49,0-2.24.73-2.24,2.19v1h5.43Z"/>
  <polygon class="cls-1" points="235.14 42.77 230.77 47.68 235.8 54.07 234.65 54.07 230.16 48.38 228.41 50.34 228.41 54.07 227.47 54.07 227.47 42.77 228.41 42.77 228.41 49.04 234.01 42.77 235.14 42.77"/>
  <path class="cls-1" d="M240.66,49.04c.78,0,1.66.06,2.64.19v-.82c0-1.45-.76-2.17-2.27-2.17h-3.19v-.68c1.17-.09,1.95-.13,2.33-.13h.97c1.01,0,1.77.25,2.29.75.52.5.77,1.22.77,2.17v5.51c-1.09.21-2.28.32-3.54.32h-.72c-.92,0-1.63-.2-2.11-.6-.48-.4-.72-.96-.72-1.69v-.55c0-.73.24-1.3.72-1.7.48-.4,1.19-.6,2.11-.6h.72ZM243.3,53.21v-3.19c-.86-.11-1.69-.16-2.48-.16h-.82c-1.33,0-2,.51-2,1.53v.45c0,1.02.67,1.53,2,1.53h.82c.79,0,1.62-.05,2.48-.16"/>
  <path class="cls-1" d="M247.84,54.07h-.9v-8.36c1.16-.23,2.35-.34,3.57-.34h.55c1.01,0,1.78.25,2.3.76.53.5.79,1.23.79,2.17v5.76h-.9v-5.72c0-1.44-.75-2.16-2.25-2.16h-.66c-.82,0-1.65.06-2.5.18v7.7Z"/>
  <path class="cls-1" d="M259.03,49.12l1.96.34c.78.14,1.35.38,1.69.73.34.35.52.84.52,1.47v.4c0,1.38-.87,2.08-2.62,2.08h-1.08c-.88,0-1.72-.04-2.53-.11v-.69h3.59c.57,0,1-.11,1.3-.34.3-.23.44-.54.44-.93v-.4c0-.4-.12-.71-.36-.93-.24-.23-.64-.39-1.18-.48l-1.96-.34c-.79-.14-1.36-.38-1.7-.73-.34-.35-.51-.84-.51-1.47v-.19c0-.65.21-1.17.64-1.54.43-.37,1.08-.56,1.96-.56h.87c.94,0,1.79.04,2.53.13v.69h-3.38c-.56,0-.98.11-1.28.34-.3.23-.44.54-.44.93v.19c0,.4.12.71.35.93.24.23.63.39,1.19.48"/>
  <path class="cls-1" d="M272.49,50.21h-6.31v.93c0,1.46.75,2.19,2.24,2.19h3.65v.68c-1.03.08-1.81.11-2.33.11h-1.38c-1.01,0-1.77-.25-2.29-.76-.52-.5-.78-1.23-.78-2.17v-2.85c0-.94.26-1.67.78-2.19.52-.52,1.29-.77,2.29-.77h1.08c1,0,1.76.26,2.28.77.52.51.78,1.24.78,2.19v1.87ZM271.6,49.39v-1c0-1.46-.75-2.19-2.25-2.19h-.93c-1.49,0-2.24.73-2.24,2.19v1h5.43Z"/>
  <path class="cls-1" d="M275.82,48.09v5.99h-.89v-5.99c0-1.77.9-2.66,2.7-2.66h1.08c.17,0,.35,0,.55.02.19.01.4.03.62.05.22.02.38.04.49.05v.69h-2.72c-.59,0-1.04.16-1.36.49-.32.33-.47.78-.47,1.36"/>
  <path class="cls-1" d="M282.39,42.64c.12-.13.28-.19.46-.19s.34.06.46.19c.12.13.19.28.19.45s-.06.32-.19.45c-.12.13-.28.19-.46.19s-.34-.06-.46-.19c-.12-.13-.18-.28-.18-.45s.06-.32.18-.45M282.4,45.48h.9v8.6h-.9v-8.6Z"/>
  <rect class="cls-1" x="289.58" y="42.77" width=".93" height="11.3"/>
  <polygon class="cls-1" points="295.68 43.64 295.68 42.77 304.51 42.77 304.51 43.64 300.56 43.64 300.56 54.07 299.63 54.07 299.63 43.64 295.68 43.64"/>
  <path class="cls-1" d="M306.29,42.64c.12-.13.28-.19.46-.19s.34.06.46.19c.12.13.19.28.19.45s-.06.32-.19.45c-.12.13-.28.19-.46.19s-.34-.06-.46-.19c-.12-.13-.19-.28-.19-.45s.06-.32.19-.45M306.29,45.48h.9v8.6h-.9v-8.6Z"/>
  <path class="cls-1" d="M310.91,48.09v5.99h-.89v-5.99c0-1.77.9-2.66,2.7-2.66h1.08c.17,0,.35,0,.55.02.19.01.4.03.62.05.22.02.38.04.49.05v.69h-2.72c-.59,0-1.04.16-1.36.49-.32.33-.47.78-.47,1.36"/>
  <path class="cls-1" d="M324.71,48.34v2.87c0,.94-.26,1.67-.79,2.19-.53.52-1.29.77-2.29.77h-1.53c-1,0-1.76-.26-2.29-.77-.53-.52-.79-1.24-.79-2.19v-2.87c0-.94.26-1.67.79-2.19.53-.52,1.29-.77,2.29-.77h1.53c1,0,1.76.26,2.29.77.53.52.79,1.25.79,2.19M323.81,51.18v-2.79c0-1.46-.75-2.19-2.25-2.19h-1.37c-1.5,0-2.25.73-2.25,2.19v2.79c0,1.45.75,2.17,2.25,2.17h1.37c1.5,0,2.25-.72,2.25-2.17"/>
  <path class="cls-1" d="M327.23,42.64c.12-.13.28-.19.46-.19s.34.06.46.19c.12.13.19.28.19.45s-.06.32-.19.45c-.12.13-.28.19-.46.19s-.34-.06-.46-.19c-.12-.13-.19-.28-.19-.45s.06-.32.19-.45M327.24,45.48h.9v8.6h-.9v-8.6Z"/>
  <path class="cls-1" d="M337.06,45.57v-3.12h.89v11.41c-1.13.2-2.3.31-3.53.31h-.66c-1.01,0-1.78-.25-2.3-.76-.53-.5-.79-1.23-.79-2.17v-2.9c0-.94.26-1.67.79-2.19.53-.52,1.29-.77,2.3-.77h.66c.76,0,1.64.06,2.64.19M334.58,46.2h-.76c-1.5,0-2.25.72-2.25,2.17v2.82c0,1.46.75,2.19,2.25,2.19h.76c.77,0,1.6-.05,2.48-.16v-6.84c-.83-.12-1.65-.18-2.48-.18"/>
  <path class="cls-1" d="M343.8,50.39v-3.91c0-1.32.3-2.28.9-2.87.6-.59,1.52-.89,2.77-.89h2.12c.89.04,1.49.09,1.79.13v.74h-3.85c-.97,0-1.67.22-2.13.66-.45.44-.68,1.19-.68,2.24v3.86c0,1.05.23,1.8.68,2.24.45.44,1.16.66,2.13.66h3.93v.76c-.59.08-1.37.11-2.33.11h-1.66c-1.25,0-2.17-.29-2.77-.88-.6-.58-.9-1.54-.9-2.86"/>
  <path class="cls-1" d="M360.67,50.21h-6.31v.93c0,1.46.75,2.19,2.24,2.19h3.65v.68c-1.03.08-1.81.11-2.33.11h-1.38c-1.01,0-1.77-.25-2.29-.76-.52-.5-.78-1.23-.78-2.17v-2.85c0-.94.26-1.67.78-2.19.52-.52,1.29-.77,2.29-.77h1.08c1,0,1.76.26,2.28.77.52.51.78,1.24.78,2.19v1.87ZM359.79,49.39v-1c0-1.46-.75-2.19-2.25-2.19h-.93c-1.49,0-2.24.73-2.24,2.19v1h5.43Z"/>
  <path class="cls-1" d="M364.01,48.09v5.99h-.89v-5.99c0-1.77.9-2.66,2.7-2.66h1.08c.17,0,.35,0,.55.02.19.01.4.03.62.05.22.02.38.04.49.05v.69h-2.72c-.59,0-1.04.16-1.36.49-.32.33-.47.78-.47,1.36"/>
  <path class="cls-1" d="M371.41,48.09v5.99h-.89v-5.99c0-1.77.9-2.66,2.7-2.66h1.08c.17,0,.35,0,.55.02.19.01.4.03.62.05.22.02.38.04.49.05v.69h-2.72c-.59,0-1.04.16-1.36.49-.32.33-.47.78-.47,1.36"/>
  <path class="cls-1" d="M380.97,49.04c.78,0,1.66.06,2.64.19v-.82c0-1.45-.76-2.17-2.27-2.17h-3.19v-.68c1.17-.09,1.95-.13,2.33-.13h.97c1.01,0,1.77.25,2.29.75.52.5.77,1.22.77,2.17v5.51c-1.09.21-2.28.32-3.54.32h-.72c-.92,0-1.63-.2-2.11-.6-.48-.4-.72-.96-.72-1.69v-.55c0-.73.24-1.3.72-1.7.48-.4,1.19-.6,2.11-.6h.72ZM383.62,53.21v-3.19c-.86-.11-1.69-.16-2.48-.16h-.82c-1.33,0-2,.51-2,1.53v.45c0,1.02.67,1.53,2,1.53h.82c.79,0,1.62-.05,2.48-.16"/>
  <path class="cls-1" d="M387.25,42.45h.89v3.14c1.07-.14,1.97-.21,2.69-.21h.55c1.01,0,1.78.25,2.3.76.53.5.79,1.23.79,2.17v5.76h-.9v-5.72c0-1.44-.76-2.16-2.27-2.16h-.64c-.82,0-1.65.06-2.51.18v7.7h-.89v-11.62Z"/>
  <path class="cls-1" d="M397.26,42.64c.12-.13.28-.19.46-.19s.34.06.46.19c.12.13.19.28.19.45s-.06.32-.19.45c-.12.13-.28.19-.46.19s-.34-.06-.46-.19c-.12-.13-.19-.28-.19-.45s.06-.32.19-.45M397.27,45.48h.9v8.6h-.9v-8.6Z"/>
  <path class="cls-1" d="M403.14,49.12l1.96.34c.78.14,1.35.38,1.69.73.34.35.52.84.52,1.47v.4c0,1.38-.87,2.08-2.62,2.08h-1.08c-.88,0-1.72-.04-2.53-.11v-.69h3.59c.57,0,1-.11,1.3-.34.3-.23.44-.54.44-.93v-.4c0-.4-.12-.71-.36-.93-.24-.23-.64-.39-1.18-.48l-1.96-.34c-.79-.14-1.36-.38-1.7-.73-.34-.35-.51-.84-.51-1.47v-.19c0-.65.21-1.17.64-1.54.43-.37,1.08-.56,1.96-.56h.87c.94,0,1.79.04,2.53.13v.69h-3.38c-.56,0-.98.11-1.28.34-.3.23-.44.54-.44.93v.19c0,.4.12.71.35.93.24.23.63.39,1.19.48"/>
  <path class="cls-1" d="M409.75,42.64c.12-.13.28-.19.46-.19s.34.06.46.19c.12.13.19.28.19.45s-.06.32-.19.45c-.12.13-.28.19-.46.19s-.34-.06-.46-.19c-.12-.13-.19-.28-.19-.45s.06-.32.19-.45M409.76,45.48h.9v8.6h-.9v-8.6Z"/>
</svg>