<?xml version="1.0" encoding="UTF-8"?>
<svg id="Layer_1" data-name="Layer 1" xmlns="http://www.w3.org/2000/svg" viewBox="0 0 415.09 54.73">
  <defs>
    <style>
      .cls-1 {
        fill: #303843;
      }
    </style>
  </defs>
  <path class="cls-1" d="M9.12,7.31h4.29c2.72,0,4.74.65,6.05,1.95,1.31,1.3,1.97,3.39,1.97,6.28v8.65c0,2.91-.66,5.01-1.97,6.3-1.31,1.29-3.33,1.93-6.05,1.93h-4.29c-2.72,0-4.74-.64-6.05-1.93-1.31-1.29-1.97-3.39-1.97-6.3v-8.65c0-2.88.66-4.98,1.97-6.28,1.31-1.3,3.33-1.95,6.05-1.95M13.24,9.21h-3.94c-2.13,0-3.69.48-4.68,1.44-.98.96-1.48,2.59-1.48,4.89v8.62c0,2.32.49,3.96,1.48,4.92.98.96,2.54,1.44,4.68,1.44h3.94c2.13,0,3.69-.48,4.68-1.44.98-.96,1.48-2.6,1.48-4.92v-8.62c0-2.3-.49-3.93-1.48-4.89-.98-.96-2.54-1.44-4.68-1.44"/>
  <path class="cls-1" d="M29.06,32.04v6.79h-1.93V13.96c2.51-.49,5.08-.74,7.7-.74h1.44c2.2,0,3.88.56,5.03,1.69,1.15,1.13,1.72,2.72,1.72,4.78v6.3c0,2.06-.57,3.65-1.72,4.77-1.15,1.11-2.83,1.67-5.03,1.67h-1.44c-1.57,0-3.49-.13-5.77-.39M34.48,30.67h1.65c3.28,0,4.92-1.58,4.92-4.75v-6.15c0-3.17-1.64-4.75-4.92-4.75h-1.65c-1.81,0-3.61.13-5.42.39v14.91c1.92.23,3.73.35,5.42.35"/>
  <path class="cls-1" d="M50.13,32.13c-.28.29-.63.44-1.05.44s-.77-.15-1.06-.44c-.28-.29-.42-.64-.42-1.04s.14-.74.42-1.04c.28-.29.63-.44,1.06-.44s.77.15,1.05.44c.28.29.42.64.42,1.04s-.14.74-.42,1.04"/>
  <path class="cls-1" d="M74.01,32.21h-10.83V7.53h10.83c2.72,0,4.74.65,6.05,1.95,1.31,1.3,1.97,3.39,1.97,6.28v8.23c0,2.91-.66,5.01-1.97,6.3-1.31,1.29-3.33,1.93-6.05,1.93M65.22,30.31h8.62c2.13,0,3.69-.48,4.68-1.44.98-.96,1.48-2.6,1.48-4.92v-8.19c0-2.3-.49-3.93-1.48-4.89-.98-.96-2.54-1.44-4.68-1.44h-8.62v20.89Z"/>
  <path class="cls-1" d="M89.62,19.13v13.08h-1.93v-13.08c0-3.87,1.97-5.8,5.91-5.8h2.36c.37,0,.77.01,1.2.04.42.02.87.06,1.35.11.48.05.84.08,1.07.11v1.51h-5.94c-1.29,0-2.28.36-2.97,1.07-.69.72-1.04,1.71-1.04,2.97"/>
  <path class="cls-1" d="M105.24,32.13c-.28.29-.63.44-1.06.44s-.77-.15-1.05-.44c-.28-.29-.42-.64-.42-1.04s.14-.74.42-1.04c.28-.29.63-.44,1.05-.44s.77.15,1.06.44c.28.29.42.64.42,1.04s-.14.74-.42,1.04"/>
  <path class="cls-1" d="M123.73,32.21h-6.26V7.53h6.26v24.69ZM118.77.72c.49-.48,1.1-.72,1.83-.72s1.34.24,1.83.72c.49.48.74,1.07.74,1.78s-.25,1.3-.74,1.79c-.49.49-1.1.74-1.83.74s-1.34-.25-1.83-.74c-.49-.49-.74-1.09-.74-1.79s.25-1.3.74-1.78"/>
  <path class="cls-1" d="M140.65,32.21h-11.89V7.53h11.85c2.37,0,4.18.54,5.43,1.64,1.25,1.09,1.88,2.68,1.88,4.77v1.23c0,1.01-.24,1.89-.72,2.66-.48.76-1.12,1.32-1.92,1.67.91.26,1.63.8,2.15,1.62.52.82.77,1.84.77,3.06v1.48c0,4.38-2.52,6.58-7.56,6.58M135.02,17.23h4.54c.66,0,1.19-.16,1.6-.49.41-.33.62-.8.62-1.41v-.95c0-1.27-.74-1.9-2.22-1.9h-4.54v4.75ZM139.59,21.98h-4.57v5.31h4.57c.73,0,1.3-.19,1.72-.56.42-.37.63-.89.63-1.55v-1.09c0-.68-.21-1.2-.63-1.56-.42-.36-1-.54-1.72-.54"/>
  <path class="cls-1" d="M158.65,24.58v7.63h-6.26V7.53h11.36c2.88,0,5.02.64,6.42,1.92,1.39,1.28,2.09,3.28,2.09,6v1.48c0,3.47-1.24,5.73-3.73,6.79l4.57,8.51h-6.79l-3.8-7.63h-3.87ZM158.65,19.66h4.61c1.83,0,2.74-.89,2.74-2.67v-1.83c0-1.78-.91-2.67-2.74-2.67h-4.61v7.17Z"/>
  <path class="cls-1" d="M192.49,32.21l-1.37-4.26h-8.79l-1.37,4.26h-6.47l8.72-24.69h7.03l8.72,24.69h-6.47ZM186.72,14.59l-2.78,8.41h5.56l-2.78-8.41Z"/>
  <polygon class="cls-1" points="207.68 32.21 201.42 32.21 201.42 7.53 207.68 7.53 207.68 17.34 215.45 17.34 215.45 7.53 221.71 7.53 221.71 32.21 215.45 32.21 215.45 22.44 207.68 22.44 207.68 32.21"/>
  <path class="cls-1" d="M233,32.21h-6.26V7.53h6.26v24.69ZM228.04.72c.49-.48,1.1-.72,1.83-.72s1.34.24,1.83.72c.49.48.74,1.07.74,1.78s-.25,1.3-.74,1.79c-.49.49-1.1.74-1.83.74s-1.34-.25-1.83-.74c-.49-.49-.74-1.09-.74-1.79s.25-1.3.74-1.78"/>
  <polygon class="cls-1" points="251.5 24.16 258.49 7.53 264.93 7.53 264.93 32.21 258.95 32.21 258.95 20.26 253.85 32.21 249.14 32.21 244.04 20.26 244.04 32.21 238.06 32.21 238.06 7.53 244.5 7.53 251.5 24.16"/>
  <path class="cls-1" d="M287.54,36.89c0-.45-.2-.67-.6-.67h-.91c-.28,0-.75.06-1.41.18l-1.02-.74,1.37-3.13c-3.05-.05-5.24-.74-6.58-2.07-1.34-1.34-2-3.49-2-6.47v-8.19c0-3.02.7-5.21,2.09-6.56,1.39-1.35,3.69-2.02,6.88-2.02h2.15c2.67,0,5.01.2,7,.6v4.5h-8.44c-1.17,0-2.03.28-2.58.84-.55.56-.83,1.48-.83,2.74v7.98c0,1.27.28,2.17.83,2.73.55.55,1.41.83,2.58.83h8.62v4.54c-1.78.33-3.85.52-6.19.56l-.7,1.51c.19-.16.48-.25.88-.25h.46c.75,0,1.36.23,1.83.69.47.46.7,1.12.7,1.99v.7c0,.94-.32,1.66-.97,2.16-.65.5-1.53.76-2.66.76h-1.23c-1.08,0-2.05-.09-2.92-.28v-2.29h3.06c.4,0,.6-.21.6-.63"/>
  <path class="cls-1" d="M310.86,32.53h-3.8c-3.19,0-5.48-.67-6.88-2-1.4-1.34-2.09-3.52-2.09-6.54v-8.19c0-3.02.7-5.21,2.09-6.56,1.39-1.35,3.69-2.02,6.88-2.02h3.8c3.19,0,5.48.67,6.88,2.02,1.39,1.35,2.09,3.53,2.09,6.56v8.19c0,3.02-.7,5.2-2.09,6.54-1.4,1.34-3.69,2-6.88,2M307.76,27.43h2.39c1.17,0,2.03-.28,2.59-.83.55-.55.83-1.46.83-2.73v-7.98c0-1.27-.28-2.18-.83-2.74-.55-.56-1.41-.84-2.59-.84h-2.39c-1.17,0-2.03.28-2.58.84-.55.56-.83,1.48-.83,2.74v7.98c0,1.27.28,2.17.83,2.73.55.55,1.41.83,2.58.83"/>
  <polygon class="cls-1" points="324.22 7.53 330.48 7.53 330.48 27.11 341.28 27.11 341.28 32.21 324.22 32.21 324.22 7.53"/>
  <polygon class="cls-1" points="350.53 32.21 344.27 32.21 344.27 7.53 350.53 7.53 350.53 17.34 358.3 17.34 358.3 7.53 364.56 7.53 364.56 32.21 358.3 32.21 358.3 22.44 350.53 22.44 350.53 32.21"/>
  <path class="cls-1" d="M385.06,32.21l-1.37-4.26h-8.79l-1.37,4.26h-6.47l8.72-24.69h7.03l8.72,24.69h-6.47ZM379.29,14.59l-2.78,8.41h5.56l-2.78-8.41Z"/>
  <polygon class="cls-1" points="407.99 7.53 414.25 7.53 414.25 32.21 407.92 32.21 400.25 18.01 400.25 32.21 393.99 32.21 393.99 7.53 400.32 7.53 407.99 21.73 407.99 7.53"/>
  <path class="cls-1" d="M8.57,48.5v6c-.94.15-2.14.23-3.58.23h-1.29c-1.26,0-2.19-.3-2.8-.89-.61-.6-.91-1.56-.91-2.9v-3.98c0-1.33.3-2.3.91-2.9.61-.6,1.54-.89,2.8-.89h2.31c.9.04,1.5.09,1.81.13v.75H3.77c-.98,0-1.69.22-2.15.67-.46.44-.68,1.2-.68,2.26v3.95c0,1.06.23,1.82.68,2.26.46.44,1.17.67,2.15.67h1.94c.5,0,1.14-.01,1.92-.03v-4.44h-3.29v-.88h4.23Z"/>
  <path class="cls-1" d="M18.38,50.73h-6.38v.94c0,1.47.75,2.21,2.26,2.21h3.69v.68c-1.04.08-1.83.11-2.36.11h-1.4c-1.02,0-1.79-.25-2.32-.76-.53-.51-.79-1.24-.79-2.2v-2.88c0-.95.26-1.69.79-2.21.53-.52,1.3-.78,2.32-.78h1.09c1.01,0,1.78.26,2.3.78.53.52.79,1.26.79,2.21v1.89ZM17.48,49.9v-1.01c0-1.47-.76-2.21-2.28-2.21h-.94c-1.51,0-2.26.74-2.26,2.21v1.01h5.48Z"/>
  <path class="cls-1" d="M21.76,54.63h-.91v-8.44c1.17-.23,2.37-.34,3.61-.34h.55c1.02,0,1.79.26,2.33.76.53.51.8,1.24.8,2.2v5.82h-.91v-5.77c0-1.45-.76-2.18-2.28-2.18h-.67c-.82,0-1.66.06-2.52.18v7.77Z"/>
  <path class="cls-1" d="M37.88,50.73h-6.38v.94c0,1.47.75,2.21,2.26,2.21h3.69v.68c-1.04.08-1.83.11-2.36.11h-1.4c-1.02,0-1.79-.25-2.32-.76-.53-.51-.79-1.24-.79-2.2v-2.88c0-.95.26-1.69.79-2.21.53-.52,1.3-.78,2.32-.78h1.09c1.01,0,1.78.26,2.3.78.53.52.79,1.26.79,2.21v1.89ZM36.99,49.9v-1.01c0-1.47-.76-2.21-2.28-2.21h-.94c-1.51,0-2.26.74-2.26,2.21v1.01h5.48Z"/>
  <rect class="cls-1" x="40.42" y="42.89" width=".91" height="11.74"/>
  <path class="cls-1" d="M47.3,50.91v-3.95c0-1.33.3-2.3.91-2.9.61-.6,1.54-.89,2.8-.89h2.15c.9.04,1.5.09,1.81.13v.75h-3.89c-.98,0-1.69.22-2.15.67-.46.44-.68,1.2-.68,2.26v3.9c0,1.06.23,1.82.68,2.26.46.44,1.17.67,2.15.67h3.97v.76c-.6.08-1.38.11-2.36.11h-1.68c-1.26,0-2.19-.3-2.8-.89-.61-.59-.91-1.55-.91-2.89"/>
  <path class="cls-1" d="M64.34,50.73h-6.38v.94c0,1.47.75,2.21,2.26,2.21h3.69v.68c-1.04.08-1.83.11-2.36.11h-1.4c-1.02,0-1.79-.25-2.32-.76-.53-.51-.79-1.24-.79-2.2v-2.88c0-.95.26-1.69.79-2.21.53-.52,1.3-.78,2.32-.78h1.09c1.01,0,1.78.26,2.3.78.53.52.79,1.26.79,2.21v1.89ZM63.45,49.9v-1.01c0-1.47-.76-2.21-2.28-2.21h-.94c-1.51,0-2.26.74-2.26,2.21v1.01h5.48Z"/>
  <path class="cls-1" d="M67.71,48.58v6.05h-.89v-6.05c0-1.79.91-2.68,2.73-2.68h1.09c.17,0,.36,0,.55.02.2.01.4.03.63.05.22.02.39.04.5.05v.7h-2.75c-.6,0-1.05.17-1.37.5-.32.33-.48.79-.48,1.37"/>
  <path class="cls-1" d="M75.19,48.58v6.05h-.89v-6.05c0-1.79.91-2.68,2.73-2.68h1.09c.17,0,.36,0,.55.02.2.01.4.03.63.05.22.02.39.04.5.05v.7h-2.75c-.6,0-1.05.17-1.37.5-.32.33-.48.79-.48,1.37"/>
  <path class="cls-1" d="M84.85,49.54c.79,0,1.68.07,2.67.2v-.83c0-1.46-.76-2.2-2.29-2.2h-3.22v-.68c1.18-.09,1.97-.13,2.36-.13h.98c1.02,0,1.79.25,2.31.76.52.5.78,1.23.78,2.19v5.56c-1.11.22-2.3.33-3.58.33h-.73c-.93,0-1.64-.2-2.13-.6-.49-.4-.73-.97-.73-1.71v-.55c0-.74.24-1.31.73-1.72.49-.41,1.2-.61,2.13-.61h.73ZM87.52,53.75v-3.22c-.87-.11-1.7-.16-2.5-.16h-.83c-1.34,0-2.02.52-2.02,1.55v.46c0,1.03.67,1.55,2.02,1.55h.83c.8,0,1.64-.05,2.5-.16"/>
  <path class="cls-1" d="M91.2,42.89h.89v3.17c1.08-.14,1.99-.21,2.72-.21h.55c1.02,0,1.79.26,2.33.76.53.51.8,1.24.8,2.2v5.82h-.91v-5.77c0-1.45-.76-2.18-2.29-2.18h-.65c-.82,0-1.67.06-2.54.18v7.77h-.89v-11.74Z"/>
  <path class="cls-1" d="M101.3,43.08c.12-.13.28-.2.46-.2s.34.07.46.2c.12.13.19.28.19.46s-.06.33-.19.46c-.12.13-.28.2-.46.2s-.34-.06-.46-.2c-.12-.13-.19-.28-.19-.46s.06-.33.19-.46M101.31,45.95h.91v8.69h-.91v-8.69Z"/>
  <path class="cls-1" d="M108.47,50.91v-7.69h.94v7.66c0,1.06.23,1.82.68,2.26.46.44,1.18.67,2.16.67h1.5c.99,0,1.71-.22,2.16-.67.46-.44.68-1.2.68-2.26v-7.66h.94v7.69c0,1.33-.3,2.3-.91,2.89-.61.59-1.54.89-2.8.89h-1.68c-1.26,0-2.19-.3-2.79-.89-.6-.59-.9-1.55-.9-2.89"/>
  <polygon class="cls-1" points="121.22 53.8 126.82 53.8 126.82 54.63 120.05 54.63 120.05 53.92 125.51 46.78 120.15 46.78 120.15 45.95 126.69 45.95 126.69 46.66 121.22 53.8"/>
  <path class="cls-1" d="M130.1,54.63h-.91v-8.44c1.11-.23,2.12-.34,3.04-.34h.31c.9,0,1.6.18,2.1.55,1.03-.37,2.06-.55,3.09-.55h.24c2.06,0,3.09.97,3.09,2.91v5.87h-.91v-5.82c0-.72-.18-1.25-.54-1.6-.36-.35-.94-.53-1.72-.53h-.36c-.77,0-1.54.12-2.31.37.24.41.36.95.36,1.63v5.95h-.91v-5.9c0-.7-.17-1.22-.51-1.55-.34-.33-.9-.5-1.68-.5h-.42c-.52,0-1.17.05-1.95.16v7.79Z"/>
  <path class="cls-1" d="M147.2,49.54c.79,0,1.68.07,2.67.2v-.83c0-1.46-.76-2.2-2.29-2.2h-3.22v-.68c1.18-.09,1.97-.13,2.36-.13h.98c1.02,0,1.79.25,2.31.76.52.5.78,1.23.78,2.19v5.56c-1.11.22-2.3.33-3.58.33h-.73c-.93,0-1.64-.2-2.13-.6-.49-.4-.73-.97-.73-1.71v-.55c0-.74.24-1.31.73-1.72.49-.41,1.2-.61,2.13-.61h.73ZM149.86,53.75v-3.22c-.87-.11-1.7-.16-2.5-.16h-.83c-1.34,0-2.02.52-2.02,1.55v.46c0,1.03.67,1.55,2.02,1.55h.83c.8,0,1.64-.05,2.5-.16"/>
  <path class="cls-1" d="M154.45,54.63h-.91v-8.44c1.17-.23,2.37-.34,3.61-.34h.55c1.02,0,1.79.26,2.33.76.53.51.8,1.24.8,2.2v5.82h-.91v-5.77c0-1.45-.76-2.18-2.28-2.18h-.67c-.82,0-1.66.06-2.52.18v7.77Z"/>
  <rect class="cls-1" x="163.66" y="45.95" width=".91" height="8.69"/>
  <rect class="cls-1" x="170.91" y="43.21" width=".94" height="11.42"/>
  <polygon class="cls-1" points="184.1 53.49 188.67 43.21 189.91 43.21 189.91 54.63 188.96 54.63 188.96 44.87 184.6 54.63 183.6 54.63 179.24 44.87 179.24 54.63 178.29 54.63 178.29 43.21 179.53 43.21 184.1 53.49"/>
  <path class="cls-1" d="M199.84,50.73h-6.38v.94c0,1.47.75,2.21,2.26,2.21h3.69v.68c-1.04.08-1.83.11-2.36.11h-1.4c-1.02,0-1.79-.25-2.32-.76-.53-.51-.79-1.24-.79-2.2v-2.88c0-.95.26-1.69.79-2.21.53-.52,1.3-.78,2.32-.78h1.09c1.01,0,1.78.26,2.3.78.53.52.79,1.26.79,2.21v1.89ZM198.95,49.9v-1.01c0-1.47-.76-2.21-2.28-2.21h-.94c-1.51,0-2.26.74-2.26,2.21v1.01h5.48Z"/>
  <path class="cls-1" d="M203.23,54.63h-.91v-8.44c1.11-.23,2.12-.34,3.04-.34h.31c.9,0,1.6.18,2.1.55,1.03-.37,2.06-.55,3.09-.55h.24c2.06,0,3.09.97,3.09,2.91v5.87h-.91v-5.82c0-.72-.18-1.25-.54-1.6-.36-.35-.94-.53-1.72-.53h-.36c-.77,0-1.54.12-2.31.37.24.41.36.95.36,1.63v5.95h-.91v-5.9c0-.7-.17-1.22-.51-1.55-.34-.33-.9-.5-1.68-.5h-.42c-.52,0-1.17.05-1.95.16v7.79Z"/>
  <path class="cls-1" d="M223.93,50.73h-6.38v.94c0,1.47.75,2.21,2.26,2.21h3.69v.68c-1.04.08-1.83.11-2.36.11h-1.4c-1.02,0-1.79-.25-2.32-.76-.53-.51-.79-1.24-.79-2.2v-2.88c0-.95.26-1.69.79-2.21.53-.52,1.3-.78,2.32-.78h1.09c1.01,0,1.78.26,2.3.78.53.52.79,1.26.79,2.21v1.89ZM223.04,49.9v-1.01c0-1.47-.76-2.21-2.28-2.21h-.94c-1.51,0-2.26.74-2.26,2.21v1.01h5.48Z"/>
  <polygon class="cls-1" points="237.56 43.21 233.15 48.18 238.23 54.63 237.07 54.63 232.54 48.87 230.76 50.86 230.76 54.63 229.82 54.63 229.82 43.21 230.76 43.21 230.76 49.54 236.42 43.21 237.56 43.21"/>
  <path class="cls-1" d="M243.14,49.54c.79,0,1.68.07,2.67.2v-.83c0-1.46-.76-2.2-2.29-2.2h-3.22v-.68c1.18-.09,1.97-.13,2.36-.13h.98c1.02,0,1.79.25,2.31.76.52.5.78,1.23.78,2.19v5.56c-1.11.22-2.3.33-3.58.33h-.73c-.93,0-1.64-.2-2.13-.6-.49-.4-.73-.97-.73-1.71v-.55c0-.74.24-1.31.73-1.72.49-.41,1.2-.61,2.13-.61h.73ZM245.81,53.75v-3.22c-.87-.11-1.7-.16-2.5-.16h-.83c-1.34,0-2.02.52-2.02,1.55v.46c0,1.03.67,1.55,2.02,1.55h.83c.8,0,1.64-.05,2.5-.16"/>
  <path class="cls-1" d="M250.4,54.63h-.91v-8.44c1.17-.23,2.37-.34,3.61-.34h.55c1.02,0,1.79.26,2.33.76.53.51.8,1.24.8,2.2v5.82h-.91v-5.77c0-1.45-.76-2.18-2.28-2.18h-.67c-.82,0-1.66.06-2.52.18v7.77Z"/>
  <path class="cls-1" d="M261.7,49.62l1.98.34c.79.14,1.36.39,1.71.74.35.35.52.85.52,1.49v.41c0,1.4-.88,2.1-2.65,2.1h-1.09c-.89,0-1.74-.04-2.55-.11v-.7h3.63c.57,0,1.01-.11,1.31-.34.3-.23.45-.54.45-.94v-.41c0-.4-.12-.72-.37-.94-.24-.23-.64-.39-1.2-.49l-1.98-.34c-.8-.14-1.37-.39-1.72-.74-.34-.35-.51-.85-.51-1.49v-.2c0-.66.22-1.18.65-1.55.43-.37,1.1-.56,1.98-.56h.88c.95,0,1.81.04,2.55.13v.7h-3.42c-.56,0-1,.11-1.29.34-.3.23-.45.54-.45.94v.2c0,.4.12.72.36.94.24.23.64.39,1.2.49"/>
  <path class="cls-1" d="M275.3,50.73h-6.38v.94c0,1.47.75,2.21,2.26,2.21h3.69v.68c-1.04.08-1.83.11-2.36.11h-1.4c-1.02,0-1.79-.25-2.32-.76-.53-.51-.79-1.24-.79-2.2v-2.88c0-.95.26-1.69.79-2.21.53-.52,1.3-.78,2.32-.78h1.09c1.01,0,1.78.26,2.3.78.53.52.79,1.26.79,2.21v1.89ZM274.4,49.9v-1.01c0-1.47-.76-2.21-2.28-2.21h-.94c-1.51,0-2.26.74-2.26,2.21v1.01h5.48Z"/>
  <path class="cls-1" d="M278.66,48.58v6.05h-.89v-6.05c0-1.79.91-2.68,2.73-2.68h1.09c.17,0,.36,0,.55.02.2.01.4.03.63.05.22.02.39.04.5.05v.7h-2.75c-.6,0-1.05.17-1.37.5-.32.33-.48.79-.48,1.37"/>
  <path class="cls-1" d="M285.31,43.08c.12-.13.28-.2.46-.2s.34.07.46.2c.12.13.19.28.19.46s-.06.33-.19.46c-.12.13-.28.2-.46.2s-.34-.06-.46-.2c-.12-.13-.19-.28-.19-.46s.06-.33.19-.46M285.32,45.95h.91v8.69h-.91v-8.69Z"/>
  <rect class="cls-1" x="292.57" y="43.21" width=".94" height="11.42"/>
  <polygon class="cls-1" points="298.73 44.09 298.73 43.21 307.65 43.21 307.65 44.09 303.66 44.09 303.66 54.63 302.72 54.63 302.72 44.09 298.73 44.09"/>
  <path class="cls-1" d="M309.44,43.08c.12-.13.28-.2.46-.2s.34.07.46.2c.12.13.19.28.19.46s-.06.33-.19.46c-.12.13-.28.2-.46.2s-.34-.06-.46-.2c-.12-.13-.19-.28-.19-.46s.06-.33.19-.46M309.45,45.95h.91v8.69h-.91v-8.69Z"/>
  <path class="cls-1" d="M314.12,48.58v6.05h-.89v-6.05c0-1.79.91-2.68,2.73-2.68h1.09c.17,0,.36,0,.55.02.2.01.4.03.63.05.22.02.39.04.5.05v.7h-2.75c-.6,0-1.05.17-1.37.5-.32.33-.48.79-.48,1.37"/>
  <path class="cls-1" d="M328.06,48.84v2.89c0,.95-.27,1.69-.8,2.21-.53.52-1.3.78-2.31.78h-1.55c-1.01,0-1.78-.26-2.31-.78-.53-.52-.8-1.26-.8-2.21v-2.89c0-.95.27-1.69.8-2.21.53-.52,1.3-.78,2.31-.78h1.55c1.01,0,1.78.26,2.31.78.53.52.8,1.26.8,2.21M327.15,51.71v-2.81c0-1.47-.76-2.21-2.28-2.21h-1.38c-1.52,0-2.28.74-2.28,2.21v2.81c0,1.46.76,2.2,2.28,2.2h1.38c1.52,0,2.28-.73,2.28-2.2"/>
  <path class="cls-1" d="M330.6,43.08c.12-.13.28-.2.46-.2s.34.07.46.2c.12.13.19.28.19.46s-.06.33-.19.46c-.12.13-.28.2-.46.2s-.34-.06-.46-.2c-.12-.13-.19-.28-.19-.46s.06-.33.19-.46M330.61,45.95h.91v8.69h-.91v-8.69Z"/>
  <path class="cls-1" d="M340.53,46.04v-3.16h.89v11.53c-1.14.21-2.33.31-3.56.31h-.67c-1.02,0-1.79-.25-2.33-.76-.53-.51-.8-1.24-.8-2.2v-2.93c0-.95.27-1.69.8-2.21.53-.52,1.31-.78,2.33-.78h.67c.77,0,1.66.07,2.67.2M338.03,46.68h-.76c-1.52,0-2.28.73-2.28,2.2v2.85c0,1.47.76,2.21,2.28,2.21h.76c.78,0,1.62-.05,2.5-.16v-6.91c-.84-.12-1.67-.18-2.5-.18"/>
  <path class="cls-1" d="M347.35,50.91v-3.95c0-1.33.3-2.3.91-2.9.61-.6,1.54-.89,2.8-.89h2.15c.9.04,1.5.09,1.81.13v.75h-3.89c-.98,0-1.69.22-2.15.67-.46.44-.68,1.2-.68,2.26v3.9c0,1.06.23,1.82.68,2.26.46.44,1.17.67,2.15.67h3.97v.76c-.6.08-1.38.11-2.36.11h-1.68c-1.26,0-2.19-.3-2.8-.89-.61-.59-.91-1.55-.91-2.89"/>
  <path class="cls-1" d="M364.39,50.73h-6.38v.94c0,1.47.75,2.21,2.26,2.21h3.69v.68c-1.04.08-1.83.11-2.36.11h-1.4c-1.02,0-1.79-.25-2.32-.76-.53-.51-.79-1.24-.79-2.2v-2.88c0-.95.26-1.69.79-2.21.53-.52,1.3-.78,2.32-.78h1.09c1.01,0,1.78.26,2.3.78.53.52.79,1.26.79,2.21v1.89ZM363.5,49.9v-1.01c0-1.47-.76-2.21-2.28-2.21h-.94c-1.51,0-2.26.74-2.26,2.21v1.01h5.48Z"/>
  <path class="cls-1" d="M367.76,48.58v6.05h-.89v-6.05c0-1.79.91-2.68,2.73-2.68h1.09c.17,0,.36,0,.55.02.2.01.4.03.63.05.22.02.39.04.5.05v.7h-2.75c-.6,0-1.05.17-1.37.5-.32.33-.48.79-.48,1.37"/>
  <path class="cls-1" d="M375.24,48.58v6.05h-.89v-6.05c0-1.79.91-2.68,2.73-2.68h1.09c.17,0,.36,0,.55.02.2.01.4.03.63.05.22.02.39.04.5.05v.7h-2.75c-.6,0-1.05.17-1.37.5-.32.33-.48.79-.48,1.37"/>
  <path class="cls-1" d="M384.9,49.54c.79,0,1.68.07,2.67.2v-.83c0-1.46-.76-2.2-2.29-2.2h-3.22v-.68c1.18-.09,1.97-.13,2.36-.13h.98c1.02,0,1.79.25,2.31.76.52.5.78,1.23.78,2.19v5.56c-1.11.22-2.3.33-3.58.33h-.73c-.93,0-1.64-.2-2.13-.6-.49-.4-.73-.97-.73-1.71v-.55c0-.74.24-1.31.73-1.72.49-.41,1.2-.61,2.13-.61h.73ZM387.57,53.75v-3.22c-.87-.11-1.7-.16-2.5-.16h-.83c-1.34,0-2.02.52-2.02,1.55v.46c0,1.03.67,1.55,2.02,1.55h.83c.8,0,1.64-.05,2.5-.16"/>
  <path class="cls-1" d="M391.25,42.89h.89v3.17c1.08-.14,1.99-.21,2.72-.21h.55c1.02,0,1.79.26,2.33.76.53.51.8,1.24.8,2.2v5.82h-.91v-5.77c0-1.45-.76-2.18-2.29-2.18h-.65c-.82,0-1.67.06-2.54.18v7.77h-.89v-11.74Z"/>
  <path class="cls-1" d="M401.36,43.08c.12-.13.28-.2.46-.2s.34.07.46.2c.12.13.19.28.19.46s-.06.33-.19.46c-.12.13-.28.2-.46.2s-.34-.06-.46-.2c-.12-.13-.19-.28-.19-.46s.06-.33.19-.46M401.36,45.95h.91v8.69h-.91v-8.69Z"/>
  <path class="cls-1" d="M407.3,49.62l1.98.34c.79.14,1.36.39,1.71.74.35.35.52.85.52,1.49v.41c0,1.4-.88,2.1-2.65,2.1h-1.09c-.89,0-1.74-.04-2.55-.11v-.7h3.63c.57,0,1.01-.11,1.31-.34.3-.23.45-.54.45-.94v-.41c0-.4-.12-.72-.37-.94-.24-.23-.64-.39-1.2-.49l-1.98-.34c-.8-.14-1.37-.39-1.72-.74-.34-.35-.51-.85-.51-1.49v-.2c0-.66.22-1.18.65-1.55.43-.37,1.1-.56,1.98-.56h.88c.95,0,1.81.04,2.55.13v.7h-3.42c-.56,0-1,.11-1.29.34-.3.23-.45.54-.45.94v.2c0,.4.12.72.36.94.24.23.64.39,1.2.49"/>
  <path class="cls-1" d="M413.98,43.08c.12-.13.28-.2.46-.2s.34.07.46.2c.12.13.19.28.19.46s-.06.33-.19.46c-.12.13-.28.2-.46.2s-.34-.06-.46-.2c-.12-.13-.19-.28-.19-.46s.06-.33.19-.46M413.99,45.95h.91v8.69h-.91v-8.69Z"/>
</svg>