<?xml version="1.0" encoding="UTF-8"?>
<svg id="Layer_1" data-name="Layer 1" xmlns="http://www.w3.org/2000/svg" width="150" height="150" xmlns:xlink="http://www.w3.org/1999/xlink" viewBox="0 0 150 150">
  <defs>
    <style>
      .cls-1 {
        clip-path: url(#clippath);
      }

      .cls-2 {
        fill: none;
      }

      .cls-2, .cls-3, .cls-4, .cls-5 {
        stroke-width: 0px;
      }

      .cls-3 {
        fill: #d70027;
      }

      .cls-4 {
        fill: #efefef;
      }

      .cls-5 {
        fill: #0052b3;
      }
    </style>
    <clipPath id="clippath">
      <circle class="cls-2" cx="75" cy="75" r="72.9"/>
    </clipPath>
  </defs>
  <g class="cls-1">
    <g id="_6I7qM9" data-name="6I7qM9">
      <g>
        <path class="cls-5" d="m150.4,69v2.1c-.3.6,0,1.2-.1,1.7,0,.5-.2,1,.1,1.5v1.2c-.3.5,0,1-.1,1.5,0,.6-.2,1.2.1,1.7v2.6c-.4,2.2-.3,4.4-.6,6.7-.6,4.2-1.8,8.2-3.1,12.1-.2.6-.6,1.1-1.3,1.3-.8.3-1.6.2-2.5.2-45.2,0-90.5,0-135.7,0-.8,0-1.7,0-2.5-.3-.8-.2-1.1-.9-1.3-1.6C1.4,93.8,0,87.6-.1,81.2c-.1-5.9-.2-11.8.3-17.7.4-4.7,1.7-9.3,3.3-13.8.2-.6.5-1.2,1.2-1.4.9-.3,1.7-.3,2.6-.3,45.2,0,90.4,0,135.6,0,.8,0,1.7,0,2.5.2.9.2,1.2,1,1.4,1.7,1.7,5.2,3.2,10.5,3.3,16.1,0,1,0,1.9.3,2.9Z"/>
        <path class="cls-4" d="m145.7,48.7c-36.8,0-73.7,0-110.5,0-10.2,0-20.4,0-30.6,0-.6-.8-.1-1.5.2-2.2,2.1-5.3,4.8-10.3,8.1-14.9,6.5-9.3,14.7-16.9,24.6-22.5C44.8,4.7,52.7,1.8,61.1.3c2.4-.4,5-.5,7.4-.5.6,0,1.3.2,1.9-.1h9.4c2.7.3,5.5.2,8.2.5,6.1.8,11.9,2.7,17.5,5.2,8.8,3.8,16.5,9.2,23.2,15.9,7.3,7.3,12.9,15.7,16.7,25.3.3.7.8,1.4.2,2.2Z"/>
        <path class="cls-3" d="m145.7,101c-4,11-10.3,20.5-18.8,28.5-11.7,11-25.6,17.6-41.5,19.9-32.6,4.7-65.7-13.7-78.9-43.9-.6-1.5-1.2-3-1.8-4.5,3.7,0,7.3,0,11,0,42.7,0,85.4,0,128.1,0,.6,0,1.3,0,1.9,0Z"/>
      </g>
    </g>
  </g>
</svg>