<?xml version="1.0" encoding="UTF-8"?>
<svg id="Layer_1" data-name="Layer 1" xmlns="http://www.w3.org/2000/svg" width="150" height="150" xmlns:xlink="http://www.w3.org/1999/xlink" viewBox="0 0 150 150">
  <defs>
    <style>
      .cls-1 {
        clip-path: url(#clippath);
      }

      .cls-2 {
        fill: none;
      }

      .cls-2, .cls-3, .cls-4 {
        stroke-width: 0px;
      }

      .cls-3 {
        fill: #e43030;
      }

      .cls-4 {
        fill: #fefefe;
      }
    </style>
    <clipPath id="clippath">
      <circle class="cls-2" cx="75" cy="75" r="72.1"/>
    </clipPath>
  </defs>
  <g class="cls-1">
    <g id="VcTHlL">
      <g>
        <path class="cls-3" d="m148.3,62.3c-.9-7.4-3.5-14.3-6.8-20.9-3.9-7.7-9.1-14.6-15.4-20.6-6.9-6.5-14.6-11.6-23.3-15.1-5-2-10-3.7-15.4-4.2-2.2-.2-4.4-.2-6.5-.5h-11.8c-.3.3-.7.1-1.1.1-2.9.2-5.9.2-8.7.8-6.7,1.4-13.1,3.7-19.2,7-7.3,3.9-13.8,8.9-19.5,14.9-6.4,6.7-11.4,14.4-14.8,23-2.1,5.1-3.8,10.4-4.3,15.9-.2,1.9-.1,3.9-.5,5.8v12.4c.2.3.1.6.1,1,.2,2.8.2,5.7.8,8.4,1.5,6.9,3.8,13.4,7.2,19.6,5.5,10.2,13,18.6,22.3,25.5,5.5,4.1,11.6,7.2,18,9.6,4.6,1.7,9.3,3.1,14.2,3.5,6.2.5,12.4.6,18.6.3,2.2-.1,4.5-.2,6.7-.6,7.6-1.5,14.7-4,21.5-7.7,6.4-3.5,12.1-7.8,17.3-12.9,3-3.1,5.9-6.3,8.3-9.9,5.6-8.1,9.6-17,11.7-26.6.8-3.7.9-7.4,1.1-11.2.2-5.9.2-11.7-.5-17.5Z"/>
        <path class="cls-4" d="m89.9,58.7c-9.7-13.1-30.7-10-38.5,4.4-7.6,14.1-.8,33.5,17.4,36.8,6.4,1.1,12.5.4,17.5-4.2.1-.1.3-.3.6,0-.2.7-.7,1.2-1.1,1.7-5.3,6-12,8.6-19.9,8.2-14.6-.7-26.2-10.5-28.7-24.8-3.4-19.1,9.4-33.5,24.9-36,11.1-1.8,22,3.1,27.6,12.8.2.3.3.6.4.9.1.3,0,.4-.3.3Z"/>
        <path class="cls-4" d="m111.7,87.8c-3-1.2-6-2.3-8.9-3.5-.8-.3-1.2-.2-1.8.5-2,2.6-4,5.1-5.9,7.6,0-3.1-.1-6.2,0-9.4,0-1.4-.4-1.9-1.6-2.3-2.7-1-5.4-2.1-8.5-3.3,3.1-.9,6-1.7,8.8-2.4,1.2-.3,1.7-.9,1.7-2.2,0-3.2.2-6.4.6-9.7.7,1.1,1.5,2.3,2.2,3.4,1,1.6,2.1,3.2,3.1,4.9.5.9,1,1.1,2.1.8,2.7-.8,5.3-1.5,8-2.3.3,0,.6-.1,1.2-.3-.8,1-1.3,1.7-1.9,2.4-1.4,1.9-2.9,3.7-4.4,5.6-.5.6-.5,1,0,1.6,1.6,2.4,3.1,4.9,4.6,7.3.2.4.7.7.5,1.3Z"/>
      </g>
    </g>
  </g>
</svg>