<?xml version="1.0" encoding="UTF-8"?>
<svg id="Capa_1" data-name="Capa 1" xmlns="http://www.w3.org/2000/svg" viewBox="0 0 20.33 35">
  <path d="M17.97,0H2.36C1.06,0,0,1.06,0,2.36v30.27C0,33.93,1.06,35,2.36,35h15.6c1.3,0,2.36-1.06,2.36-2.36V2.36c0-1.3-1.06-2.36-2.36-2.36h0ZM7.67,1.7h4.99c.16,0,.29.13.29.29s-.13.29-.29.29h-4.99c-.16,0-.29-.13-.29-.29s.13-.29.29-.29ZM10.17,33.82c-.65,0-1.18-.53-1.18-1.18s.53-1.18,1.18-1.18,1.18.53,1.18,1.18-.53,1.18-1.18,1.18ZM18.69,30.62H1.65V3.75h17.04v26.88h0Z"/>
</svg>