<?xml version="1.0" encoding="UTF-8"?>
<svg id="Layer_1" data-name="Layer 1" xmlns="http://www.w3.org/2000/svg" viewBox="0 0 40.04 40.04">
  <defs>
    <style>
      .cls-1 {
        fill: #08c303;
      }

      .cls-2 {
        fill: #fff;
      }
    </style>
  </defs>
  <path class="cls-1" d="M38.58,12.18c-1.01-2.4-2.47-4.55-4.32-6.4-1.85-1.85-4-3.3-6.4-4.32C25.38.41,22.74-.12,20.02-.12s-5.36.53-7.84,1.58c-2.4,1.01-4.55,2.47-6.4,4.32-1.85,1.85-3.3,4-4.32,6.4C.41,14.66-.12,17.3-.12,20.02s.53,5.36,1.58,7.84c1.01,2.4,2.47,4.55,4.32,6.4,1.85,1.85,4,3.3,6.4,4.32,2.48,1.05,5.12,1.58,7.84,1.58s5.36-.53,7.84-1.58c2.4-1.01,4.55-2.47,6.4-4.32,1.85-1.85,3.3-4,4.32-6.4,1.05-2.48,1.58-5.12,1.58-7.84s-.53-5.36-1.58-7.84h0Z"/>
  <g>
    <path class="cls-2" d="M13.82,29.4c.19,0,.37.05.53.15,1.71,1.02,3.67,1.56,5.67,1.56,1.5,0,2.95-.29,4.31-.87,1.32-.56,2.5-1.36,3.52-2.37,1.02-1.02,1.82-2.2,2.38-3.52.58-1.37.87-2.82.87-4.31s-.29-2.95-.87-4.31c-.56-1.32-1.36-2.5-2.38-3.52-1.02-1.02-2.2-1.82-3.52-2.37-1.37-.58-2.82-.87-4.31-.87s-2.95.29-4.31.87c-1.32.56-2.5,1.36-3.52,2.37-1.02,1.02-1.82,2.2-2.37,3.52-.58,1.37-.87,2.82-.87,4.31,0,2.11.6,4.17,1.73,5.94.17.26.21.59.11.89l-1.26,3.75,4.02-1.16c.09-.03.19-.04.29-.04h0ZM7.91,33.17c-.28,0-.55-.11-.75-.32-.27-.28-.36-.68-.23-1.05l1.73-5.16c-1.17-2.01-1.79-4.29-1.79-6.63,0-1.77.35-3.5,1.03-5.12.66-1.57,1.61-2.97,2.82-4.18,1.21-1.21,2.61-2.16,4.18-2.82,1.62-.69,3.34-1.03,5.12-1.03s3.5.35,5.12,1.03c1.57.66,2.97,1.61,4.18,2.82,1.21,1.21,2.16,2.61,2.82,4.18.69,1.62,1.03,3.34,1.03,5.12s-.35,3.5-1.03,5.12c-.66,1.57-1.61,2.97-2.82,4.18s-2.61,2.16-4.18,2.82c-1.62.69-3.34,1.03-5.12,1.03-2.22,0-4.4-.56-6.33-1.62l-5.5,1.58c-.09.03-.19.04-.29.04h0Z"/>
    <path class="cls-2" d="M17.17,19.21c1,1.33,2.39,2.44,4.07,3.39.2.11.46.08.62-.09l.86-.91c.2-.21.5-.27.76-.16l2.42,1.02c.73.31,1,1.21.56,1.86-1.51,2.23-3.7,2.25-6.99.14-1.39-.89-2.67-1.96-3.79-3.18-2.65-2.88-3.01-5.03-1.08-6.91.57-.55,1.5-.44,1.93.22l1.43,2.2c.16.24.15.55-.02.78l-.76,1.03c-.13.18-.13.43,0,.61h0Z"/>
  </g>
</svg>