<?xml version="1.0" encoding="UTF-8"?>
<svg id="Layer_1" data-name="Layer 1" xmlns="http://www.w3.org/2000/svg" viewBox="0 0 325.3 211.66">
  <defs>
    <style>
      .cls-1 {
        fill: #c4c5c5;
      }

      .cls-2 {
        fill: #fff;
      }
    </style>
  </defs>
  <path class="cls-2" d="M167.12,79.57C147.58,53.06,127.78,26.75,108.33.17c-9.56-.25-19.14-.05-28.71-.17-.17,44.48.07,88.98-.12,133.47,8.46.26,16.93.14,25.41.14.12-32.43-.12-64.87.12-97.29,21.2,28.57,42.16,57.31,63.3,85.91.59-10.96.08-21.93.34-32.88-.22-3.26.61-7-1.56-9.77"/>
  <path class="cls-2" d="M244.49.07c-39.1-.03-78.2.02-117.3-.03,5.72,7.52,11.47,15.03,17.15,22.59,12.98.03,25.95,0,38.93.02-.02,36.96.02,73.92-.02,110.88,8.56.09,17.14.05,25.72.05.05-36.99-.07-73.99.05-110.98,11.82.1,23.64.03,35.46.05-.03-7.52-.03-15.05,0-22.57"/>
  <path class="cls-1" d="M167.95,154.51h2.72v-2.58h-2.72v2.58ZM158.53,146.72v-4.4h1.76c1.69,0,2.38.65,2.38,2.14s-.67,2.26-2.36,2.26h-1.78ZM155.69,154.04h2.86v-5.45h2.02l2.74,5.45h3.29l-3.43-6.07v-.1c1.51-.56,2.46-1.63,2.46-3.55,0-2.76-1.71-4.11-4.98-4.11h-4.96v13.84ZM144.94,151.85v-9.48h1.73c2.44,0,3.83,1.01,3.83,4.38v.69c0,3.21-1.15,4.42-3.67,4.42h-1.9ZM142.08,154.04h4.76c4.42,0,6.7-2.36,6.7-6.86v-.4c0-4.58-2.44-6.58-6.72-6.58h-4.74v13.84ZM131.47,154.51h2.72v-2.58h-2.72v2.58ZM120.82,154.04h2.86v-5.65h4.62v-2.18h-4.62v-3.85h5.93v-2.16h-8.79v13.84ZM112.3,152.09c-2.36,0-3.37-1.65-3.37-4.74v-.71c0-2.74,1.11-4.5,3.31-4.5,2.46.02,3.43,1.71,3.43,4.76v.69c0,2.74-1.13,4.5-3.37,4.5ZM112.24,154.27c3.71,0,6.43-2.36,6.43-6.94v-.44c0-4.68-2.62-6.9-6.33-6.9s-6.43,2.34-6.43,6.92v.46c0,4.64,2.62,6.9,6.33,6.9ZM96.93,146.72v-4.4h1.76c1.69,0,2.38.65,2.38,2.14s-.67,2.26-2.36,2.26h-1.78ZM94.09,154.04h2.86v-5.45h2.02l2.74,5.45h3.29l-3.43-6.07v-.1c1.51-.56,2.46-1.63,2.46-3.55,0-2.76-1.71-4.11-4.98-4.11h-4.96v13.84ZM84.89,146.92v-4.56h1.92c1.67,0,2.38.44,2.38,2.18,0,1.59-.67,2.38-2.42,2.38h-1.88ZM82.03,154.04h2.86v-5.02h2.38c3.05,0,4.9-1.65,4.9-4.6,0-2.78-1.65-4.22-5.02-4.22h-5.12v13.84Z"/>
  <path class="cls-2" d="M306.41,176.31v-10.29h4.11c3.96,0,5.57,1.51,5.57,5s-1.56,5.29-5.52,5.29h-4.15ZM299.76,193.45h6.7v-12.74h4.72l6.42,12.74h7.69l-8.03-14.21v-.24c3.54-1.32,5.76-3.82,5.76-8.31,0-6.47-4.01-9.63-11.66-9.63h-11.61v32.38ZM273.04,193.45h21.1v-5.14h-14.4v-8.97h11v-5h-11v-8.21h14.07v-5.05h-20.77v32.38ZM250.47,176.31v-10.29h4.11c3.96,0,5.57,1.51,5.57,5s-1.56,5.29-5.52,5.29h-4.15ZM243.82,193.45h6.7v-12.74h4.72l6.42,12.74h7.69l-8.03-14.21v-.24c3.54-1.32,5.76-3.82,5.76-8.31,0-6.47-4.01-9.63-11.66-9.63h-11.61v32.38ZM226.4,158.42h5.38v-5.19h-5.38v5.19ZM216.25,158.42h5.33v-5.19h-5.33v5.19ZM223.9,188.87c-5.52,0-7.88-3.87-7.88-11.09v-1.65c0-6.42,2.6-10.53,7.74-10.53,5.76.05,8.03,4.01,8.03,11.14v1.6c0,6.42-2.64,10.53-7.88,10.53ZM223.76,193.97c8.69,0,15.06-5.52,15.06-16.24v-1.04c0-10.95-6.14-16.14-14.82-16.14s-15.06,5.48-15.06,16.19v1.09c0,10.86,6.14,16.14,14.82,16.14ZM190.43,193.45h6.66v-27.33h9.11v-5.05h-24.78v5.05h9.02v27.33ZM141.33,193.4h2.31v-28.18h.09l17.61,28.18h2.64v-31.67h-2.36v27.38h-.05l-17.23-27.38h-3.02v31.67ZM123.21,165.08l5.95,16.05h-11.94l6-16.05ZM110.27,193.4h2.46l3.68-10.06h13.55l3.73,10.06h2.69l-11.75-31.67h-2.5l-11.85,31.67ZM87.1,193.4h2.55v-31.67h-2.55v31.67ZM105.03,193.4h3.02l-14.4-16.29,13.88-15.39h-2.79l-14.35,15.58,14.63,16.1ZM63.26,177.21v-13.31h6.14c5.48,0,7.55,2.45,7.55,6.47s-1.84,6.84-7.51,6.84h-6.18ZM60.71,193.4h2.55v-14.07h7.08l8.5,14.07h2.93l-8.87-14.54v-.14c4.63-1.09,6.75-3.87,6.75-8.36,0-5.24-3.12-8.64-10.1-8.64h-8.83v31.67ZM41.82,193.92c7.32,0,11.14-3.45,11.14-11.38v-20.86h-2.31v20.72c0,7.08-3.02,9.39-8.78,9.39s-8.92-2.36-8.92-9.35v-20.77h-2.5v20.91c0,7.74,4.11,11.33,11.38,11.33ZM0,193.4h2.31v-28.18h.09l17.61,28.18h2.64v-31.67h-2.36v27.38h-.05l-17.23-27.38H0v31.67Z"/>
  <path class="cls-1" d="M322.07,201.06h1.63v-1.57h-1.63v1.57ZM321.84,211.66h2.04v-9.8h-2.04v9.8ZM311.85,211.66h2.03v-4.27h3.87v4.27h2.04v-9.8h-2.04v3.99h-3.87v-3.99h-2.03v9.8ZM306,204.16h.06l1.27,3.72h-2.56l1.23-3.72ZM301.66,211.66h1.86l.8-2.34h3.49l.81,2.34h2.09l-3.44-9.8h-2.11l-3.49,9.8ZM295.69,206.47v-3.11h1.24c1.2,0,1.69.46,1.69,1.51s-.47,1.6-1.67,1.6h-1.26ZM293.67,211.66h2.03v-3.86h1.43l1.94,3.86h2.33l-2.43-4.3v-.07c1.07-.4,1.74-1.16,1.74-2.51,0-1.96-1.21-2.91-3.53-2.91h-3.52v9.8ZM286.84,206.47v-3.11h1.24c1.2,0,1.69.46,1.69,1.51s-.47,1.6-1.67,1.6h-1.26ZM284.83,211.66h2.03v-3.86h1.43l1.94,3.86h2.33l-2.43-4.3v-.07c1.07-.4,1.74-1.16,1.74-2.51,0-1.96-1.22-2.91-3.53-2.91h-3.52v9.8ZM276.74,211.66h6.39v-1.56h-4.36v-2.71h3.33v-1.51h-3.33v-2.49h4.26v-1.53h-6.29v9.8ZM272.54,211.82c1.2,0,2.09-.23,2.73-.59v-1.53c-.54.24-1.21.5-2.3.5-1.99,0-2.76-1.21-2.76-3.33v-.49c0-2.19,1.07-3.1,2.74-3.1.9,0,1.54.2,2.24.43v-1.53c-.59-.31-1.37-.49-2.5-.49-2.57,0-4.66,1.33-4.66,4.87v.36c0,3.3,1.73,4.89,4.5,4.89ZM257.3,211.66h6.06v-1.56h-4.03v-8.24h-2.03v9.8ZM249.22,211.66h6.39v-1.56h-4.36v-2.71h3.33v-1.51h-3.33v-2.49h4.26v-1.53h-6.29v9.8ZM239.33,211.66h1.79v-7.03h.04l4.06,7.03h2v-9.8h-1.79v6.52h-.04l-3.79-6.52h-2.27v9.8ZM231.24,211.66h6.39v-1.56h-4.36v-2.71h3.33v-1.51h-3.33v-2.49h4.26v-1.53h-6.29v9.8ZM226.24,211.82c1.33,0,2.54-.31,3.29-.6v-4.63h-3.66v1.43h1.7v2.06c-.31.1-.84.21-1.37.21-2.14,0-2.63-1.34-2.63-3.33v-.44c0-1.79.67-3.2,2.91-3.2,1.26,0,2.02.3,2.6.52v-1.57c-.57-.29-1.47-.56-2.77-.56-2.57,0-4.87,1.22-4.87,4.94v.31c0,3.47,1.86,4.86,4.8,4.86Z"/>
</svg>