<?xml version="1.0" encoding="UTF-8"?>
<svg xmlns="http://www.w3.org/2000/svg" xmlns:xlink="http://www.w3.org/1999/xlink" version="1.1" viewBox="0 0 31.2 65.5">
  <!-- Generator: Adobe Illustrator 29.2.1, SVG Export Plug-In . SVG Version: 2.1.0 Build 116)  -->
  <defs>
    <style>
      .st0 {
        fill: none;
      }

      .st1 {
        isolation: isolate;
      }

      .st2 {
        fill: #fff;
      }
    </style>
    <clipPath id="clippath">
      <rect class="st0" x="-272" y="-470.1" width="451.3" height="317.6"/>
    </clipPath>
    <clipPath id="clippath-1">
      <rect class="st0" x="-383.4" y="-623.1" width="472.7" height="634.8"/>
    </clipPath>
  </defs>
  <g class="st1">
    <g id="Layer_1">
      <g>
        <path class="st2" d="M31.1,32.4l-4.6-16c-.3-.9-1-3.6-4.3-4l-3-.4c1.1-1,1.9-2.5,1.9-4.1v-2.5c0-3-2.4-5.4-5.4-5.4s-5.4,2.4-5.4,5.4v.4h1.8v-.4c0-2,1.6-3.6,3.6-3.6s3.6,1.6,3.6,3.6v2.5c0,2-1.6,3.6-3.6,3.6s-3.6-1.6-3.6-3.6v-.4h-1.8v.4c0,1.6.7,3.1,1.9,4.1l-3,.4c-3.3.4-4.1,3.1-4.3,4L.1,32.4c-.5,1.7.4,3.4,1.9,3.9.3.1.7.2,1,.2,1.3,0,2.6-.8,3-2.1l2.2-6.3v5.7s-1.6,22.3-1.6,22.3l-1.5.3c-1.5.3-2.5,1.4-2.5,2.7v2.7h10.2l2.8-19.7,2.8,19.7h10.2v-2.7c0-1.3-1-2.4-2.5-2.7l-1.5-.3-.5-7h-1.8c0,.1.6,8.5.6,8.5l2.9.6c.2,0,1.1.2,1.1.9v.9h-6.8l-3.5-24.3v-1.8h-1.8v1.8l-3.5,24.3h-6.8v-.9c0-.7.9-.9,1.1-.9l2.9-.6,1.8-23.7h0s0-13,0-13h-1.8s0,1.7,0,1.7l-3.9,11.2c-.2.7-1,1-1.7.8-.7-.2-1-1-.8-1.7l4.6-16c.5-1.8,1.3-2.5,2.8-2.7l6.3-.8,6.3.8c1.5.2,2.3,1,2.8,2.7l4.6,16c.2.7-.1,1.5-.8,1.7-.7.2-1.5-.1-1.7-.8l-3.9-11.2v-1.7s-1.8,0-1.8,0v13s1,13.6,1,13.6h1.8c0-.1-1-13.6-1-13.6v-5.7s2.2,6.3,2.2,6.3c.4,1.3,1.7,2.1,3,2.1s.7,0,1-.2c1.6-.5,2.4-2.3,1.9-3.9h0Z"/>
        <rect class="st2" x="14.7" y="51.4" width="1.8" height="26.4" rx=".9" ry=".9" transform="translate(80.3 49) rotate(90)"/>
      </g>
    </g>
  </g>
</svg>