<?xml version="1.0" encoding="UTF-8"?>
<svg id="Layer_1" data-name="Layer 1" xmlns="http://www.w3.org/2000/svg" viewBox="0 0 115.35 75.18">
  <defs>
    <style>
      .cls-1 {
        fill: #c4c5c5;
      }

      .cls-2 {
        fill: #fff;
      }
    </style>
  </defs>
  <path class="cls-2" d="M59.26,28.25C52.33,18.85,45.31,9.52,38.42.09c-3.39-.09-6.79-.02-10.18-.06-.06,15.77.02,31.55-.04,47.33,3,.09,6,.05,9.01.05.04-11.5-.04-23,.04-34.5,7.52,10.13,14.95,20.32,22.45,30.46.21-3.88.03-7.78.12-11.66-.08-1.16.22-2.48-.55-3.46"/>
  <path class="cls-2" d="M86.7.06c-13.87-.01-27.73,0-41.6-.01,2.03,2.67,4.07,5.33,6.08,8.01,4.6.01,9.2,0,13.81,0,0,13.11,0,26.21,0,39.32,3.04.03,6.08.02,9.12.02.02-13.12-.02-26.24.02-39.35,4.19.04,8.38.01,12.58.02-.01-2.67-.01-5.34,0-8"/>
  <path class="cls-1" d="M59.56,54.82h.97v-.92h-.97v.92ZM56.22,52.06v-1.56h.62c.6,0,.84.23.84.76s-.24.8-.84.8h-.63ZM55.21,54.66h1.02v-1.93h.72l.97,1.93h1.17l-1.22-2.15v-.04c.54-.2.87-.58.87-1.26,0-.98-.61-1.46-1.77-1.46h-1.76v4.91ZM51.4,53.88v-3.36h.62c.87,0,1.36.36,1.36,1.55v.24c0,1.14-.41,1.57-1.3,1.57h-.67ZM50.38,54.66h1.69c1.57,0,2.37-.84,2.37-2.43v-.14c0-1.62-.87-2.33-2.38-2.33h-1.68v4.91ZM46.62,54.82h.97v-.92h-.97v.92ZM42.84,54.66h1.02v-2h1.64v-.77h-1.64v-1.37h2.1v-.77h-3.12v4.91ZM39.82,53.97c-.84,0-1.19-.59-1.19-1.68v-.25c0-.97.39-1.59,1.17-1.59.87,0,1.22.61,1.22,1.69v.24c0,.97-.4,1.6-1.19,1.6ZM39.8,54.74c1.32,0,2.28-.84,2.28-2.46v-.16c0-1.66-.93-2.45-2.25-2.45s-2.28.83-2.28,2.45v.16c0,1.64.93,2.45,2.25,2.45ZM34.37,52.06v-1.56h.62c.6,0,.84.23.84.76s-.24.8-.84.8h-.63ZM33.37,54.66h1.02v-1.93h.72l.97,1.93h1.17l-1.22-2.15v-.04c.54-.2.87-.58.87-1.26,0-.98-.61-1.46-1.77-1.46h-1.76v4.91ZM30.1,52.13v-1.62h.68c.59,0,.84.16.84.77,0,.57-.24.84-.86.84h-.67ZM29.09,54.66h1.02v-1.78h.84c1.08,0,1.74-.59,1.74-1.63,0-.99-.59-1.49-1.78-1.49h-1.82v4.91Z"/>
  <path class="cls-2" d="M108.66,62.56v-3.65h1.46c1.41,0,1.98.54,1.98,1.77s-.55,1.87-1.96,1.87h-1.47ZM106.3,68.63h2.38v-4.52h1.67l2.28,4.52h2.73l-2.85-5.04v-.08c1.26-.47,2.04-1.36,2.04-2.95,0-2.29-1.42-3.41-4.13-3.41h-4.12v11.48ZM96.82,68.63h7.48v-1.82h-5.11v-3.18h3.9v-1.77h-3.9v-2.91h4.99v-1.79h-7.37v11.48ZM88.82,62.56v-3.65h1.46c1.41,0,1.98.54,1.98,1.77s-.55,1.87-1.96,1.87h-1.47ZM86.46,68.63h2.38v-4.52h1.67l2.28,4.52h2.73l-2.85-5.04v-.08c1.26-.47,2.04-1.36,2.04-2.95,0-2.29-1.42-3.41-4.13-3.41h-4.12v11.48ZM80.28,56.21h1.91v-1.84h-1.91v1.84ZM76.68,56.21h1.89v-1.84h-1.89v1.84ZM79.4,67.01c-1.96,0-2.8-1.37-2.8-3.93v-.59c0-2.28.92-3.73,2.75-3.73,2.04.02,2.85,1.42,2.85,3.95v.57c0,2.28-.94,3.73-2.8,3.73ZM79.35,68.82c3.08,0,5.34-1.96,5.34-5.76v-.37c0-3.88-2.18-5.72-5.26-5.72s-5.34,1.94-5.34,5.74v.38c0,3.85,2.18,5.72,5.26,5.72ZM67.53,68.63h2.36v-9.69h3.23v-1.79h-8.79v1.79h3.2v9.69ZM50.12,68.62h.82v-9.99h.03l6.24,9.99h.94v-11.23h-.84v9.71h-.02l-6.11-9.71h-1.07v11.23ZM43.69,58.57l2.11,5.69h-4.24l2.13-5.69ZM39.1,68.62h.87l1.31-3.57h4.8l1.32,3.57h.95l-4.17-11.23h-.89l-4.2,11.23ZM30.88,68.62h.9v-11.23h-.9v11.23ZM37.25,68.62h1.07l-5.11-5.78,4.92-5.46h-.99l-5.09,5.52,5.19,5.71ZM22.43,62.87v-4.72h2.18c1.94,0,2.68.87,2.68,2.29s-.65,2.43-2.66,2.43h-2.19ZM21.53,68.62h.9v-4.99h2.51l3.01,4.99h1.04l-3.15-5.16v-.05c1.64-.39,2.39-1.37,2.39-2.96,0-1.86-1.1-3.06-3.58-3.06h-3.13v11.23ZM14.83,68.8c2.59,0,3.95-1.22,3.95-4.03v-7.4h-.82v7.35c0,2.51-1.07,3.33-3.11,3.33s-3.16-.84-3.16-3.31v-7.37h-.89v7.42c0,2.75,1.46,4.02,4.03,4.02ZM0,68.62h.82v-9.99h.03l6.24,9.99h.94v-11.23h-.84v9.71h-.02l-6.11-9.71H0v11.23Z"/>
  <path class="cls-1" d="M114.21,71.33h.58v-.56h-.58v.56ZM114.13,75.09h.72v-3.48h-.72v3.48ZM110.58,75.09h.72v-1.52h1.37v1.52h.72v-3.48h-.72v1.41h-1.37v-1.41h-.72v3.48ZM108.51,72.43h.02l.45,1.32h-.91l.44-1.32ZM106.97,75.09h.66l.28-.83h1.24l.29.83h.74l-1.22-3.48h-.75l-1.24,3.48ZM104.85,73.25v-1.1h.44c.43,0,.6.16.6.54s-.17.57-.59.57h-.45ZM104.14,75.09h.72v-1.37h.51l.69,1.37h.83l-.86-1.53v-.03c.38-.14.62-.41.62-.89,0-.69-.43-1.03-1.25-1.03h-1.25v3.48ZM101.72,73.25v-1.1h.44c.43,0,.6.16.6.54s-.17.57-.59.57h-.45ZM101,75.09h.72v-1.37h.51l.69,1.37h.83l-.86-1.53v-.03c.38-.14.62-.41.62-.89,0-.69-.43-1.03-1.25-1.03h-1.25v3.48ZM98.13,75.09h2.27v-.55h-1.55v-.96h1.18v-.54h-1.18v-.88h1.51v-.54h-2.23v3.48ZM96.64,75.15c.43,0,.74-.08.97-.21v-.54c-.19.09-.43.18-.82.18-.7,0-.98-.43-.98-1.18v-.17c0-.78.38-1.1.97-1.1.32,0,.55.07.8.15v-.54c-.21-.11-.49-.17-.89-.17-.91,0-1.65.47-1.65,1.73v.13c0,1.17.61,1.73,1.6,1.73ZM91.24,75.09h2.15v-.55h-1.43v-2.92h-.72v3.48ZM88.37,75.09h2.27v-.55h-1.55v-.96h1.18v-.54h-1.18v-.88h1.51v-.54h-2.23v3.48ZM84.87,75.09h.63v-2.49h.02l1.44,2.49h.71v-3.48h-.63v2.31h-.02l-1.34-2.31h-.81v3.48ZM82,75.09h2.27v-.55h-1.55v-.96h1.18v-.54h-1.18v-.88h1.51v-.54h-2.23v3.48ZM80.23,75.15c.47,0,.9-.11,1.17-.21v-1.64h-1.3v.51h.6v.73c-.11.04-.3.08-.49.08-.76,0-.93-.48-.93-1.18v-.16c0-.63.24-1.14,1.03-1.14.45,0,.71.11.92.18v-.56c-.2-.1-.52-.2-.98-.2-.91,0-1.73.43-1.73,1.75v.11c0,1.23.66,1.72,1.7,1.72Z"/>
</svg>