<?xml version="1.0" encoding="UTF-8"?>
<svg id="Capa_1" data-name="Capa 1" xmlns="http://www.w3.org/2000/svg" viewBox="0 0 20.33 20.33">
  <defs>
    <style>
      .cls-1 {
        fill: #fff;
      }
    </style>
  </defs>
  <g id="Note">
    <path class="cls-1" d="M5.56,15.57h-1.59c-.44,0-.79-.36-.79-.79s.36-.79.79-.79h1.59c.44,0,.79.36.79.79s-.36.79-.79.79Z"/>
    <path class="cls-1" d="M5.56,12.39h-1.59c-.44,0-.79-.36-.79-.79s.36-.79.79-.79h1.59c.44,0,.79.36.79.79s-.36.79-.79.79Z"/>
    <path class="cls-1" d="M8.74,9.21H3.97c-.44,0-.79-.36-.79-.79s.36-.79.79-.79h4.77c.44,0,.79.36.79.79s-.36.79-.79.79Z"/>
    <g>
      <path class="cls-1" d="M19.63,4.42c-.93-.93-2.44-.93-3.37,0l-6.64,6.64c-.33.33-.56.75-.65,1.22l-.47,2.34c-.05.26.03.53.22.72.19.19.45.27.72.22l2.34-.47c.46-.09.88-.32,1.22-.65l6.64-6.64c.93-.93.93-2.44,0-3.37ZM18.51,6.67l-6.64,6.64c-.11.11-.25.19-.41.22h0l-1.17.23.23-1.17c.03-.15.11-.29.22-.41l6.64-6.64c.31-.31.81-.31,1.12,0,.31.31.31.81,0,1.12Z"/>
      <path class="cls-1" d="M13.5,16.18c-.44,0-.79.36-.79.79v.97c0,.44-.36.79-.79.79H2.38c-.44,0-.79-.36-.79-.79V3.97c0-.44.36-.79.79-.79h.79v.79c0,.44.36.79.79.79s.79-.36.79-.79v-.79h1.59v.79c0,.44.36.79.79.79s.79-.36.79-.79v-.79h1.59v.79c0,.44.36.79.79.79s.79-.36.79-.79v-.79h.79c.44,0,.79.36.79.79v.16c0,.44.36.79.79.79s.79-.36.79-.79v-.16c0-1.31-1.07-2.38-2.38-2.38h-.79v-.79c0-.44-.36-.79-.79-.79s-.79.36-.79.79v.79h-1.59v-.79c0-.44-.36-.79-.79-.79s-.79.36-.79.79v.79h-1.59v-.79c0-.44-.36-.79-.79-.79s-.79.36-.79.79v.79h-.79C1.07,1.59,0,2.66,0,3.97v13.98c0,1.31,1.07,2.38,2.38,2.38h9.53c1.31,0,2.38-1.07,2.38-2.38v-.97c0-.44-.36-.79-.79-.79Z"/>
    </g>
  </g>
</svg>