<?xml version="1.0" encoding="UTF-8"?>
<svg id="Capa_1" data-name="Capa 1" xmlns="http://www.w3.org/2000/svg" viewBox="0 0 20.33 28.92">
  <defs>
    <style>
      .cls-1 {
        fill: #fff;
      }
    </style>
  </defs>
  <path class="cls-1" d="M9.46,28.54c.16.24.42.38.7.38s.55-.14.7-.38c2-3.01,4.96-6.72,7.02-10.5,1.65-3.02,2.45-5.6,2.45-7.87C20.33,4.56,15.77,0,10.17,0S0,4.56,0,10.17c0,2.28.8,4.85,2.45,7.87,2.06,3.77,5.02,7.5,7.02,10.5ZM10.17,1.69c4.67,0,8.47,3.8,8.47,8.47,0,1.99-.73,4.3-2.24,7.06-1.77,3.26-4.31,6.56-6.23,9.34-1.93-2.78-4.46-6.08-6.23-9.34-1.51-2.77-2.24-5.08-2.24-7.06C1.69,5.49,5.49,1.69,10.17,1.69h0Z"/>
  <path class="cls-1" d="M10.17,15.25c2.8,0,5.08-2.28,5.08-5.08s-2.28-5.08-5.08-5.08-5.08,2.28-5.08,5.08,2.28,5.08,5.08,5.08ZM10.17,6.78c1.87,0,3.39,1.52,3.39,3.39s-1.52,3.39-3.39,3.39-3.39-1.52-3.39-3.39,1.52-3.39,3.39-3.39Z"/>
</svg>