<?xml version="1.0" encoding="UTF-8"?>
<svg fill="#ffffff" xmlns="http://www.w3.org/2000/svg" version="1.1" viewBox="0 0 46 46">
  <!-- Generator: Adobe Illustrator 28.6.0, SVG Export Plug-In . SVG Version: 1.2.0 Build 709)  -->
  <g>
    <g id="Layer_1">
      <g>
        <path d="M32.76,3.47H13.24C7.87,3.47,3.48,7.87,3.48,13.24v19.52c0,5.37,4.39,9.76,9.76,9.76h19.52c5.37,0,9.76-4.4,9.76-9.76V13.24c0-5.37-4.39-9.76-9.76-9.76M39.27,32.76c0,3.59-2.92,6.51-6.51,6.51H13.24c-3.59,0-6.51-2.92-6.51-6.51V13.24c0-3.59,2.92-6.51,6.51-6.51h19.52c3.59,0,6.51,2.92,6.51,6.51v19.52Z"/>
        <path d="M33.57,9.98c1.35,0,2.44,1.09,2.44,2.44s-1.09,2.44-2.44,2.44-2.44-1.09-2.44-2.44,1.09-2.44,2.44-2.44"/>
        <path d="M23,13.24c-5.39,0-9.76,4.37-9.76,9.76s4.37,9.76,9.76,9.76,9.76-4.37,9.76-9.76-4.37-9.76-9.76-9.76M23,29.51c-3.59,0-6.51-2.91-6.51-6.51s2.91-6.51,6.51-6.51,6.51,2.91,6.51,6.51-2.91,6.51-6.51,6.51"/>
      </g>
    </g>
  </g>
</svg>
