<?xml version="1.0" encoding="UTF-8"?>
<svg   fill="#ffffff" xmlns="http://www.w3.org/2000/svg" version="1.1" viewBox="0 0 46 46">
  <!-- Generator: Adobe Illustrator 28.6.0, SVG Export Plug-In . SVG Version: 1.2.0 Build 709)  -->
  <g>
    <g id="Layer_1">
      <g>
        <path d="M9.62,5.42c-2.34,0-4.23,1.9-4.23,4.23,0,2.34,1.89,4.23,4.23,4.23s4.23-1.9,4.23-4.23-1.9-4.23-4.23-4.23Z"/>
        <path d="M5.97,17.09h7.3v23.49h-7.3v-23.49Z"/>
        <path d="M31.85,16.51c-3.55,0-5.93,1.95-6.91,3.79h-.1v-3.21h-7v23.49h7.29v-11.62c0-3.06.58-6.03,4.38-6.03s3.79,3.5,3.79,6.23v11.42h7.3v-12.88c0-6.32-1.36-11.19-8.76-11.19Z"/>
      </g>
    </g>
  </g>
</svg>
