<?xml version="1.0" encoding="UTF-8"?>
<svg fill="#ffffff" xmlns="http://www.w3.org/2000/svg" version="1.1" viewBox="0 0 46 46">
  <!-- Generator: Adobe Illustrator 28.6.0, SVG Export Plug-In . SVG Version: 1.2.0 Build 709)  -->
  <g>
    <g id="Layer_1">
      <path d="M41.79,13.57c-.45-1.68-1.78-3-3.46-3.45-3.07-.84-15.33-.84-15.33-.84,0,0-12.27,0-15.34.81-1.65.45-3,1.81-3.45,3.49-.81,3.07-.81,9.43-.81,9.43,0,0,0,6.39.81,9.43.45,1.68,1.78,3,3.45,3.45,3.1.84,15.34.84,15.34.84,0,0,12.27,0,15.33-.81,1.68-.45,3-1.78,3.46-3.45.81-3.07.81-9.43.81-9.43,0,0,.03-6.39-.81-9.46M19.09,28.87v-11.75l10.2,5.88-10.2,5.87Z"/>
    </g>
  </g>
</svg>
