<?xml version="1.0" encoding="UTF-8"?>
<svg id="Layer_1" data-name="Layer 1" xmlns="http://www.w3.org/2000/svg" viewBox="0 0 498.04 474.82">
  <defs>
    <style>
      .cls-1 {
        fill: #656a6c;
      }

      .cls-2 {
        fill: #36a1da;
      }

      .cls-3 {
        fill: #fdb830;
      }

      .cls-4 {
        fill: #ef422e;
      }

      .cls-5 {
        fill: #8e4299;
      }

      .cls-6 {
        fill: #05b259;
      }
    </style>
  </defs>
  <g>
    <path class="cls-3" d="M174.41,127.68c0-25.53,28.8-42.56,72.59-42.56.7,0,1.34.04,2.03.05v-35.3c-.55,0-1.06-.04-1.62-.04-71.37,0-114.76,30.41-114.76,81.11,0,21.42,9.5,40.81,24.9,52.67l31.17-31.18c-9.18-5.8-14.31-14.75-14.31-24.75"/>
    <path class="cls-6" d="M289.58,175.97l-55.55-9.74c-25.14-4.44-33.27-6.9-42.58-12.17-.97-.5-1.84-1.06-2.73-1.62l-31.17,31.18c3.24,2.49,6.64,4.77,10.39,6.54,13.38,6.06,35.28,11.76,61.25,16.63l51.48,8.49c12.17,2.16,21.81,4.94,29.25,8.48l31.67-31.67c-12.18-7.16-27.28-11.64-52-16.1"/>
    <path class="cls-2" d="M184.15,277.74c-11.37-10.13-15.42-21.51-15.83-41.77h-43.39c1.21,30.4,6.07,45.81,19.46,62.05,19.4,23.32,54.7,35.39,104.62,35.98v-35.31c-28.93-.76-50.74-7.57-64.87-20.94"/>
    <path class="cls-5" d="M347.96,196.21c-2.04-1.49-4.18-2.84-6.38-4.14l-31.66,31.67c13.65,6.49,19.81,15.59,19.81,28.45,0,28.79-29.21,46.64-75.44,46.64-1.81,0-3.5-.1-5.27-.15v35.31c1.25.01,2.39.11,3.65.11,34.08,0,57.99-5.28,79.48-17.85,25.57-14.61,40.94-40.14,40.94-68.11,0-21.53-9.31-40.57-25.14-51.94"/>
    <path class="cls-4" d="M304.98,101.34c10.97,8.54,15.41,17.43,16.64,34.07h42.17c-3.24-32.45-11.35-49.07-31.23-64.08-18.77-13.99-47.4-21.24-83.53-21.45v35.3c24.13.28,42.57,5.52,55.96,16.16"/>
  </g>
  <g>
    <path class="cls-1" d="M44.54,423.28c-.33-.22-.61-.83-.33-1.38l1.66-3.31c.28-.61.88-.83,1.49-.44,1.16.72,2.98,1.66,5.63,1.66,1.93,0,2.81-.72,2.81-1.82,0-1.16-1.44-2.21-4.8-3.53-4.91-1.88-7.12-4.2-7.12-8.06s2.93-7.45,9.16-7.45c3.75,0,6.18.99,7.56,1.88.55.44.88,1.1.55,1.77l-1.44,2.92c-.39.61-1.05.72-1.6.5-1.21-.55-2.98-1.27-5.08-1.27-1.71,0-2.43.83-2.43,1.66,0,1.16,1.27,1.77,3.64,2.76,4.91,1.99,8.44,3.75,8.44,8.83,0,4.03-3.42,7.62-9.82,7.62-4.25,0-6.9-1.33-8.33-2.32Z"/>
    <path class="cls-1" d="M76.5,408.87c2.59,0,4.91.72,4.91.72.11-3.26-.83-4.8-3.53-4.8-2.32,0-5.69.5-7.18.94-.83.28-1.32-.33-1.43-1.1l-.55-2.87c-.22-.94.28-1.38.83-1.55.55-.22,4.58-1.27,8.72-1.27,7.95,0,9.6,4.14,9.6,11.09v13.74c0,.66-.55,1.21-1.21,1.21h-1.88c-.44,0-.77-.17-1.1-.88l-.72-1.71c-1.49,1.43-4.03,3.2-8,3.2-5.08,0-8.61-3.26-8.61-8.72,0-4.53,3.7-8,10.16-8ZM76.66,420.46c2.26,0,4.25-1.77,4.58-2.71v-3.75s-1.71-.77-3.75-.77c-2.92,0-4.53,1.38-4.53,3.64s1.32,3.59,3.7,3.59Z"/>
    <path class="cls-1" d="M94.71,387.57c0-.61.61-1.21,1.21-1.21h4.47c.66,0,1.21.61,1.21,1.21v13.52c1.27-1.1,3.48-2.15,6.51-2.15,8.11,0,10.32,5.63,10.32,12.03v12.8c0,.66-.61,1.21-1.21,1.21h-4.47c-.66,0-1.21-.55-1.21-1.21v-12.86c0-3.53-1.6-5.69-4.64-5.69s-4.64,1.88-5.3,4.47v14.07c0,.72-.33,1.21-1.32,1.21h-4.36c-.61,0-1.21-.55-1.21-1.21v-36.21Z"/>
    <path class="cls-1" d="M125.17,400.7c0-.72.61-1.21,1.21-1.21h2.1c.61,0,.88.28,1.05.77l.94,2.37c.94-1.05,3.31-3.7,8.22-3.7,8.11,0,10.21,5.46,10.21,11.64v13.19c0,.66-.61,1.21-1.21,1.21h-4.47c-.66,0-1.21-.55-1.21-1.21v-13.19c0-3.31-1.32-5.35-4.42-5.35-3.31,0-4.91,2.21-5.52,3.97v14.57c0,.94-.39,1.21-1.6,1.21h-4.08c-.61,0-1.21-.55-1.21-1.21v-23.07Z"/>
    <path class="cls-1" d="M167.01,398.94c6.62,0,11.7,4.91,11.7,11.81,0,.39-.06,1.27-.11,1.66-.06.66-.66,1.16-1.21,1.16h-16.34c.06,3.15,2.65,5.91,6.35,5.91,2.54,0,4.3-.94,5.46-1.88.61-.5,1.27-.55,1.66,0l2.15,2.87c.44.5.5,1.1-.11,1.66-2.21,1.88-5.35,3.48-9.49,3.48-7.62,0-12.91-6.07-12.91-13.36s5.3-13.3,12.86-13.3ZM171.75,409.04c-.11-2.48-2.1-4.42-4.91-4.42-3.09,0-5.08,1.88-5.41,4.42h10.32Z"/>
    <path class="cls-1" d="M183.9,400.7c0-.72.61-1.21,1.21-1.21h1.99c.55,0,.94.28,1.05.72l.94,2.43c1.05-1.21,3.31-3.7,7.78-3.7,3.7,0,5.52,1.32,7.62,3.86,1.1-1.16,3.64-3.86,8.22-3.86,8.17,0,10.1,5.19,10.1,11.81v13.03c0,.66-.55,1.21-1.27,1.21h-4.42c-.66,0-1.21-.55-1.21-1.21v-13.19c0-3.31-1.21-5.35-4.42-5.35-3.7,0-4.75,2.65-4.75,2.65,0,0,.11,1.27.11,2.43v13.47c0,.66-.61,1.21-1.21,1.21h-4.53c-.72,0-1.21-.55-1.21-1.21v-13.19c0-3.31-.94-5.35-4.19-5.35s-4.31,2.21-4.91,3.97v14.57c0,.66-.61,1.21-1.21,1.21h-4.47c-.61,0-1.21-.55-1.21-1.21v-23.07Z"/>
    <path class="cls-1" d="M240.91,398.94c6.62,0,11.7,4.91,11.7,11.81,0,.39-.06,1.27-.11,1.66-.05.66-.66,1.16-1.21,1.16h-16.34c.06,3.15,2.65,5.91,6.35,5.91,2.54,0,4.3-.94,5.46-1.88.61-.5,1.27-.55,1.66,0l2.15,2.87c.44.5.5,1.1-.11,1.66-2.21,1.88-5.35,3.48-9.49,3.48-7.62,0-12.91-6.07-12.91-13.36s5.3-13.3,12.86-13.3ZM245.65,409.04c-.11-2.48-2.1-4.42-4.91-4.42-3.09,0-5.08,1.88-5.41,4.42h10.32Z"/>
    <path class="cls-1" d="M268.89,398.94c2.54,0,4.97.61,6.13,1.05v-12.42c0-.61.61-1.21,1.21-1.21h4.47c.66,0,1.21.61,1.21,1.21v36.21c0,.66-.55,1.21-1.21,1.21h-2.04c-.61,0-.99-.5-1.21-1.21l-.66-1.99s-2.92,3.81-8.33,3.81c-6.95,0-12.2-5.63-12.2-13.36s5.02-13.3,12.64-13.3ZM275.01,406.66s-2.1-1.44-5.3-1.44c-4.19,0-6.35,3.42-6.35,7.01s2.04,7.06,6.02,7.06c3.31,0,5.08-2.1,5.63-3.53v-9.11Z"/>
    <path class="cls-1" d="M286.6,401.14c-.33-.88.11-1.66,1.1-1.66h5.3c.55,0,.94.28,1.05.72l4.58,15.23h.11l5.79-15.23c.39-.66.83-.72,1.6-.72h4.69c.99,0,1.49.83,1.1,1.66l-15.01,36.21c-.17.39-.61.77-1.1.77h-5.3c-.99,0-1.49-.83-1.1-1.71l5.13-12.92-7.95-22.35Z"/>
    <path class="cls-1" d="M324.3,408.87c2.59,0,4.91.72,4.91.72.11-3.26-.83-4.8-3.53-4.8-2.32,0-5.68.5-7.17.94-.83.28-1.32-.33-1.43-1.1l-.55-2.87c-.22-.94.28-1.38.83-1.55.55-.22,4.58-1.27,8.72-1.27,7.95,0,9.6,4.14,9.6,11.09v13.74c0,.66-.55,1.21-1.21,1.21h-1.88c-.44,0-.77-.17-1.1-.88l-.72-1.71c-1.49,1.43-4.03,3.2-8,3.2-5.08,0-8.61-3.26-8.61-8.72,0-4.53,3.7-8,10.15-8ZM324.46,420.46c2.26,0,4.25-1.77,4.58-2.71v-3.75s-1.71-.77-3.75-.77c-2.93,0-4.53,1.38-4.53,3.64s1.33,3.59,3.7,3.59Z"/>
    <path class="cls-1" d="M345.66,418.31c2.04,0,3.64,1.6,3.64,3.59s-1.6,3.7-3.64,3.7-3.59-1.71-3.59-3.7,1.6-3.59,3.59-3.59Z"/>
    <path class="cls-1" d="M367.95,398.94c3.81,0,6.9,1.49,9.27,4.19.5.61.39,1.32-.22,1.82l-.88.83c-.83.72-1.33.17-1.82-.39-1.77-1.99-3.81-2.76-6.4-2.76-4.86,0-8.72,4.3-8.72,9.6s3.81,9.66,8.55,9.66c3.86,0,5.52-1.99,6.95-3.64.72-.83,1.44-.61,2.15.11l.33.33c.55.55.77,1.1.33,1.77-1.93,2.81-5.35,5.13-9.6,5.13-7.56,0-12.86-5.63-12.86-13.3s5.52-13.36,12.91-13.36Z"/>
    <path class="cls-1" d="M395.16,398.94c7.06,0,12.8,6.07,12.8,13.25s-5.74,13.41-12.8,13.41-12.8-6.13-12.8-13.41,5.74-13.25,12.8-13.25ZM395.16,421.9c5.02,0,8.72-4.42,8.72-9.71s-3.7-9.55-8.72-9.55-8.78,4.36-8.78,9.55,3.75,9.71,8.78,9.71Z"/>
    <path class="cls-1" d="M414.92,400.7c0-.61.55-1.21,1.21-1.21h.88c.55,0,.88.22.99.77l.55,1.93s2.65-3.26,7.89-3.26c3.81,0,5.85,1.38,7.51,4.03.33-.22,3.97-4.03,9.11-4.03,7.4,0,9.16,4.8,9.16,11.37v13.47c0,.66-.55,1.21-1.21,1.21h-1.66c-.66,0-1.21-.55-1.21-1.21v-13.47c0-4.75-1.55-7.67-5.41-7.67-4.14,0-6.46,2.7-7.4,3.48.22,1.1.33,2.87.33,4.19v13.47c0,.66-.55,1.21-1.21,1.21h-1.66c-.61,0-1.21-.55-1.21-1.21v-13.47c0-4.86-1.6-7.67-5.74-7.67-4.53,0-6.84,3.53-6.84,3.53v17.61c0,.66-.61,1.21-1.21,1.21h-1.66c-.66,0-1.21-.55-1.21-1.21v-23.07Z"/>
  </g>
</svg>